<svg width="72" height="91" viewBox="0 0 72 91" fill="none" xmlns="http://www.w3.org/2000/svg">
<g clip-path="url(#clip0_9_44021)">
<path fill-rule="evenodd" clip-rule="evenodd" d="M65.4594 36.6042V42.6608L45.2441 49.0481V42.988L65.4594 36.6042Z" fill="#D3E5FB"/>
<path fill-rule="evenodd" clip-rule="evenodd" d="M45.7062 43.3344V48.4073L65.0049 42.3183V37.241L45.7062 43.3344ZM45.2483 49.5145C45.1498 49.5153 45.0538 49.4833 44.9752 49.4235C44.9131 49.3834 44.8624 49.3278 44.8277 49.2622C44.7931 49.1965 44.7758 49.123 44.7775 49.0486V42.9921C44.777 42.8915 44.8087 42.7935 44.8678 42.7124C44.9269 42.6314 45.0103 42.5717 45.1057 42.5421L65.3331 36.1584C65.4008 36.1371 65.4725 36.1322 65.5424 36.1438C65.6124 36.1555 65.6786 36.1835 65.7359 36.2256C65.7953 36.2695 65.844 36.3264 65.8783 36.3921C65.9125 36.4578 65.9315 36.5306 65.9337 36.6048V42.6613C65.9341 42.7619 65.9024 42.8599 65.8433 42.9409C65.7842 43.022 65.7008 43.0817 65.6055 43.1113L45.3787 49.495C45.3359 49.5096 45.2907 49.5162 45.2454 49.5145H45.2483Z" fill="#345BE4"/>
<path fill-rule="evenodd" clip-rule="evenodd" d="M62.2774 52.9114V58.9686L54.082 63.7354V57.6779L62.2774 52.9114Z" fill="#D3E5FB"/>
<path fill-rule="evenodd" clip-rule="evenodd" d="M54.5381 57.9495V62.9271L61.8162 58.7022V53.7239L54.5381 57.9495ZM54.0795 64.2054C53.9965 64.2031 53.9152 64.1812 53.8423 64.1412C53.7717 64.0999 53.7131 64.0407 53.6722 63.9695C53.6314 63.8983 53.6097 63.8176 53.6094 63.7353V57.6786C53.6092 57.5968 53.6308 57.5164 53.6717 57.4457C53.7126 57.375 53.7715 57.3166 53.8423 57.2764L62.0491 52.5055C62.1193 52.4665 62.1982 52.446 62.2784 52.446C62.3586 52.446 62.4375 52.4665 62.5077 52.5055C62.5793 52.5461 62.639 52.6051 62.6807 52.6765C62.7224 52.7479 62.7445 52.8292 62.7449 52.9121V58.9693C62.745 59.0523 62.7231 59.1337 62.6813 59.2052C62.6396 59.2767 62.5797 59.3357 62.5077 59.3759L54.3167 64.1427C54.2436 64.182 54.1623 64.2035 54.0795 64.2054Z" fill="#345BE4"/>
<path fill-rule="evenodd" clip-rule="evenodd" d="M54.0791 57.6779V63.7352L37.0371 53.8112V47.7539L54.0791 57.6779Z" fill="#345BE4"/>
<path fill-rule="evenodd" clip-rule="evenodd" d="M37.4991 53.5438L53.6089 62.9255V57.9479L37.4991 48.5655V53.5438ZM54.079 64.2039C53.996 64.2016 53.9147 64.1795 53.8417 64.1395L36.8033 54.2162C36.7332 54.1749 36.6754 54.1156 36.6359 54.0443C36.5963 53.9729 36.5764 53.892 36.5783 53.8103V47.753C36.5763 47.6713 36.5962 47.5906 36.6357 47.5192C36.6753 47.4478 36.7332 47.3883 36.8033 47.3471C36.8748 47.3059 36.9559 47.2842 37.0383 47.2842C37.1208 47.2842 37.2018 47.3059 37.2734 47.3471L54.3154 57.2749C54.3848 57.3157 54.442 57.3746 54.4809 57.4454C54.5199 57.5162 54.5392 57.5961 54.5369 57.6771V63.7336C54.5387 63.8149 54.5192 63.8954 54.4803 63.9667C54.4414 64.038 54.3846 64.0975 54.3154 64.1395C54.2428 64.1796 54.1618 64.2013 54.079 64.2039Z" fill="#345BE4"/>
<path fill-rule="evenodd" clip-rule="evenodd" d="M37.0355 47.7539V53.8112L26.0547 65.5748V59.5182L37.0355 47.7539Z" fill="#D3E5FB"/>
<path fill-rule="evenodd" clip-rule="evenodd" d="M26.5144 59.7017V64.3962L36.5787 53.6284V48.934L26.5144 59.7017ZM26.0557 66.045C25.9963 66.0439 25.9375 66.0319 25.8823 66.0095C25.7948 65.9762 25.7192 65.9171 25.6657 65.8397C25.6121 65.7624 25.5829 65.6705 25.582 65.5761V59.5196C25.5845 59.3995 25.6309 59.2844 25.7125 59.1967L36.6969 47.4375C36.7606 47.3678 36.844 47.3194 36.9358 47.2988C37.0277 47.2781 37.1236 47.2862 37.2107 47.322C37.2966 47.3563 37.37 47.4162 37.4213 47.4936C37.4725 47.571 37.499 47.6624 37.4974 47.7554V53.8127C37.4999 53.9315 37.4576 54.0469 37.3791 54.1356L26.3947 65.8948C26.306 65.9877 26.1837 66.0417 26.0557 66.045Z" fill="#345BE4"/>
<path fill-rule="evenodd" clip-rule="evenodd" d="M26.0556 59.5183V65.5756L6.20508 31.0808V25.0242L26.0556 59.5183Z" fill="#345BE4"/>
<path fill-rule="evenodd" clip-rule="evenodd" d="M6.66672 30.955L25.582 63.8328V59.6395L6.66672 26.7662V30.9594V30.955ZM26.0557 66.042C25.973 66.0419 25.8917 66.0203 25.8197 65.9792C25.7478 65.938 25.6876 65.8788 25.6451 65.8073L5.80173 31.3133C5.75981 31.2418 5.73664 31.1608 5.73438 31.0778V25.0206C5.73576 24.9182 5.77003 24.8189 5.83204 24.7378C5.89406 24.6567 5.98046 24.598 6.07834 24.5706C6.1768 24.542 6.28196 24.5479 6.37669 24.5872C6.47142 24.6266 6.55016 24.6971 6.60006 24.7873L26.4506 59.2813C26.4982 59.3502 26.5219 59.4329 26.5179 59.5167V65.5734C26.5166 65.6762 26.4825 65.7758 26.4205 65.8575C26.3585 65.9392 26.272 65.9986 26.1739 66.0269C26.1357 66.037 26.0966 66.0431 26.0571 66.0449L26.0557 66.042Z" fill="#345BE4"/>
<path fill-rule="evenodd" clip-rule="evenodd" d="M6.20898 25.0242L65.4595 36.605L45.2328 42.9924L62.2749 52.9121L54.0796 57.6787L37.0375 47.7547L26.0567 59.519L6.20898 25.0242Z" fill="white"/>
<path fill-rule="evenodd" clip-rule="evenodd" d="M7.11188 25.6804L26.1462 58.7365L36.6956 47.4351C36.768 47.3572 36.8643 47.3062 36.9689 47.2903C37.0736 47.2745 37.1806 47.2947 37.2725 47.3477L54.0773 57.1396L61.3403 52.9103L45.0056 43.3929C44.9291 43.3461 44.867 43.279 44.8258 43.199C44.7846 43.119 44.7659 43.0292 44.772 42.9393C44.7814 42.8477 44.8177 42.7609 44.8761 42.6901C44.9345 42.6192 45.0125 42.5674 45.1002 42.5413L63.569 36.7115L7.11188 25.6804ZM26.0544 59.9859H25.9993C25.9265 59.9759 25.8567 59.9501 25.7948 59.9102C25.7329 59.8703 25.6804 59.8172 25.6409 59.7548L5.7976 25.2607C5.75372 25.1828 5.73266 25.094 5.73685 25.0045C5.74104 24.915 5.7703 24.8286 5.82127 24.7552C5.8713 24.6825 5.94123 24.6261 6.02256 24.5929C6.10388 24.5597 6.19307 24.5511 6.27917 24.5681L65.5441 36.1483C65.6461 36.167 65.7389 36.2197 65.8076 36.298C65.8763 36.3764 65.9168 36.4758 65.9227 36.5802C65.9286 36.6845 65.8995 36.7879 65.84 36.8736C65.7805 36.9592 65.6942 37.0222 65.5949 37.0524L46.3793 43.1191L62.5034 52.508C62.5752 52.5484 62.635 52.6073 62.6766 52.6787C62.7183 52.7501 62.7402 52.8314 62.7402 52.9143C62.7402 52.9971 62.7183 53.0784 62.6766 53.1498C62.635 53.2213 62.5752 53.2802 62.5034 53.3205L54.3124 58.0872C54.24 58.1285 54.1583 58.1502 54.0752 58.1502C53.992 58.1502 53.9103 58.1285 53.838 58.0872L37.1277 48.3466L26.392 59.8393C26.3021 59.9293 26.1818 59.9817 26.0552 59.9859H26.0544Z" fill="#345BE4"/>
</g>
<defs>
<clipPath id="clip0_9_44021">
<rect width="71.6625" height="91" fill="white"/>
</clipPath>
</defs>
</svg>
