<svg width="73" height="91" viewBox="0 0 73 91" fill="none" xmlns="http://www.w3.org/2000/svg">
<g clip-path="url(#clip0_9_44002)">
<path fill-rule="evenodd" clip-rule="evenodd" d="M12.377 35.2964V89.6133L54.6186 65.4223V11.1047C40.5381 19.1647 26.4575 27.2287 12.377 35.2964Z" fill="white" stroke="#D3E5FB"/>
<path fill-rule="evenodd" clip-rule="evenodd" d="M19.5759 48.6394C19.4809 48.6636 19.3893 48.699 19.3029 48.7449C18.9866 48.9636 18.7232 49.249 18.5313 49.5808C18.3395 49.9126 18.224 50.2825 18.1935 50.6638C18.1862 50.7686 18.2068 50.8734 18.2532 50.9679C18.3464 50.9358 18.4376 50.8982 18.5262 50.8552C18.8452 50.6384 19.1111 50.3534 19.3045 50.0212C19.4979 49.689 19.6137 49.3179 19.6436 48.9355C19.6564 48.8318 19.6329 48.727 19.5768 48.6387L19.5759 48.6394ZM18.24 52.504C17.9671 52.5069 17.6985 52.4365 17.4626 52.3003C17.1888 52.1266 16.9671 51.8831 16.8208 51.5951C16.6745 51.3072 16.609 50.9855 16.6312 50.6638C16.6613 50.0102 16.8489 49.3733 17.1782 48.8065C17.5076 48.2396 17.9691 47.7594 18.524 47.4059C18.7877 47.2115 19.1029 47.0978 19.4308 47.0788C19.7588 47.0598 20.0853 47.1362 20.37 47.2988C20.6547 47.4614 20.8853 47.7031 21.0335 47.994C21.1816 48.2849 21.2408 48.6124 21.2037 48.9363C21.1736 49.5908 20.9852 50.2286 20.6542 50.7957C20.3232 51.3627 19.8594 51.8424 19.3022 52.1942C18.9818 52.3891 18.6157 52.496 18.24 52.504Z" fill="#345BE4"/>
<path fill-rule="evenodd" clip-rule="evenodd" d="M19.3036 58.0176C18.9872 58.2364 18.7237 58.522 18.5319 58.8539C18.34 59.1858 18.2246 59.5558 18.1942 59.9372C18.1859 60.0419 18.2066 60.1468 18.2539 60.2406C18.3499 60.2162 18.4418 60.1783 18.5269 60.1279C18.8457 59.9126 19.1116 59.6288 19.305 59.2978C19.4984 58.9668 19.6144 58.5969 19.6443 58.2154C19.6443 58.0176 19.5979 57.9266 19.5775 57.9122C19.4826 57.9365 19.391 57.9719 19.3045 58.0176H19.3036ZM18.24 61.7767C17.9671 61.7785 17.6988 61.7079 17.4626 61.5724C17.1888 61.3989 16.9671 61.1554 16.8208 60.8675C16.6745 60.5797 16.609 60.2581 16.6312 59.9365C16.6621 59.2831 16.8501 58.6465 17.1793 58.0798C17.5086 57.513 17.9697 57.0327 18.5241 56.6786C18.7883 56.484 19.1041 56.3703 19.4326 56.3516C19.7612 56.3329 20.0879 56.41 20.3728 56.5734C20.6578 56.7368 20.8883 56.9794 21.036 57.2711C21.1836 57.5629 21.2419 57.8912 21.2038 58.2154C21.1723 58.8687 20.9832 59.5048 20.6522 60.0704C20.3213 60.6359 19.8583 61.1144 19.3022 61.4654C18.9821 61.6606 18.6156 61.768 18.24 61.7767Z" fill="#345BE4"/>
<path fill-rule="evenodd" clip-rule="evenodd" d="M19.5759 67.7668C19.4808 67.7905 19.3891 67.826 19.3029 67.8722C18.9865 68.0909 18.723 68.3764 18.5311 68.7082C18.3393 69.04 18.224 69.4098 18.1934 69.7912C18.1861 69.8959 18.2067 70.0008 18.2532 70.0952C18.3491 70.0711 18.4411 70.0334 18.5262 69.9833C18.8452 69.7664 19.1111 69.4814 19.3045 69.1492C19.4978 68.817 19.6137 68.4461 19.6436 68.0636C19.6549 67.9603 19.6315 67.8561 19.5767 67.7675L19.5759 67.7668ZM18.24 71.6314C17.967 71.6341 17.6984 71.5635 17.4626 71.427C17.1888 71.2534 16.9671 71.01 16.8208 70.7221C16.6745 70.4343 16.609 70.1127 16.6312 69.7912C16.662 69.1377 16.85 68.5011 17.1793 67.9344C17.5086 67.3676 17.9696 66.8873 18.524 66.5332C18.7877 66.3389 19.1028 66.2253 19.4307 66.2062C19.7585 66.1872 20.0849 66.2636 20.3696 66.4261C20.6543 66.5886 20.8849 66.8301 21.0331 67.1209C21.1813 67.4117 21.2406 67.7391 21.2037 68.0629C21.1736 68.7175 20.9851 69.3553 20.6542 69.9223C20.3232 70.4894 19.8594 70.9691 19.3022 71.3208C18.9818 71.5159 18.615 71.6228 18.2393 71.6306L18.24 71.6314Z" fill="#345BE4"/>
<path fill-rule="evenodd" clip-rule="evenodd" d="M24.7952 47.7027C24.6574 47.7038 24.5219 47.6683 24.4026 47.5998C24.2833 47.5314 24.1846 47.4325 24.1168 47.3135C24.0143 47.1346 23.9869 46.9229 24.0406 46.7242C24.0942 46.5255 24.2247 46.3558 24.4037 46.2518L48.8812 32.2364C49.0602 32.134 49.2729 32.1063 49.4724 32.1595C49.6719 32.2127 49.842 32.3423 49.9452 32.5198C50.0484 32.6974 50.0762 32.9083 50.0227 33.1063C49.9691 33.3042 49.8383 33.473 49.6594 33.5754L25.1818 47.5973C25.064 47.6644 24.931 47.7006 24.7952 47.7027Z" fill="#345BE4"/>
<path fill-rule="evenodd" clip-rule="evenodd" d="M24.7952 57.5496C24.6579 57.552 24.5225 57.5178 24.4031 57.4505C24.2838 57.3831 24.1849 57.2851 24.1168 57.1668C24.0143 56.988 23.9869 56.7763 24.0406 56.5776C24.0942 56.3789 24.2247 56.2092 24.4037 56.1052L48.8812 42.0839C49.0605 41.9888 49.27 41.9666 49.4655 42.0222C49.6609 42.0778 49.8269 42.2067 49.9281 42.3817C50.0293 42.5566 50.0579 42.7638 50.0077 42.9593C49.9576 43.1548 49.8326 43.3232 49.6594 43.4288L25.1818 57.4506C25.0635 57.5157 24.9305 57.5498 24.7952 57.5496Z" fill="#345BE4"/>
<path fill-rule="evenodd" clip-rule="evenodd" d="M24.7964 66.8293C24.6585 66.8304 24.5229 66.7947 24.4036 66.7262C24.2842 66.6576 24.1856 66.5585 24.1179 66.4393C24.016 66.2603 23.9889 66.0488 24.0426 65.8503C24.0962 65.6517 24.2263 65.482 24.4048 65.3776L41.8491 55.3863C42.0288 55.2855 42.2414 55.2591 42.4406 55.313C42.6398 55.3668 42.8097 55.4965 42.913 55.6738C43.0163 55.8512 43.0448 56.0618 42.9925 56.2599C42.9401 56.4581 42.8109 56.6277 42.6331 56.7319L25.1822 66.7238C25.0659 66.7936 24.9323 66.8302 24.7964 66.8293Z" fill="#345BE4"/>
<path d="M55.5536 1.09996L59.5416 3.38432C59.6233 3.44098 59.6882 3.51828 59.7298 3.60816C59.7714 3.69804 59.7881 3.79725 59.7782 3.89566V23.9626C59.7782 33.2706 45.9236 48.4113 45.3317 49.0533C45.239 49.1547 45.1318 49.242 45.0136 49.3126C44.918 49.3714 44.8098 49.4068 44.6977 49.4158C44.3141 49.439 38.3291 49.7539 34.1853 47.4175L30.15 45.1064C28.951 44.4916 27.9507 43.5543 27.2634 42.4019C26.5762 41.2494 26.2299 39.9283 26.264 38.5897V18.5221C26.2896 18.2477 26.3774 17.9827 26.5208 17.7469C26.6643 17.511 26.8597 17.3103 27.0924 17.16C32.6252 13.9945 37.7795 9.51022 40.5524 5.46C40.8327 5.0505 41.2252 4.8295 41.5062 4.91472C44.2726 5.78861 49.4276 4.36875 55.004 1.17436C55.0799 1.11019 55.1729 1.06913 55.2717 1.05632C55.3706 1.0435 55.471 1.05939 55.5609 1.10207L55.5536 1.09996Z" fill="white"/>
<path d="M27.0859 17.1577C32.6187 13.9922 37.7729 9.50785 40.5459 5.45763C40.8262 5.04813 41.2186 4.82713 41.4996 4.91235C44.266 5.78624 49.421 4.36638 54.9982 1.172C55.0739 1.10788 55.1668 1.06694 55.2655 1.05412C55.3642 1.0413 55.4647 1.05717 55.5545 1.09979L59.5423 3.38415C59.4531 3.34277 59.3538 3.32763 59.2562 3.34042C59.1585 3.35322 59.0667 3.39341 58.9913 3.45636C53.4127 6.65074 48.2628 8.07141 45.4913 7.1968C45.2096 7.10869 44.8186 7.33395 44.5376 7.74129C41.7654 11.7937 36.6097 16.2766 31.0776 19.4413C30.8445 19.5911 30.6488 19.7916 30.5055 20.0276C30.3622 20.2636 30.275 20.529 30.2506 20.8034V40.874C30.2171 42.2228 30.5694 43.5534 31.2667 44.7118C31.964 45.8702 32.9776 46.809 34.1904 47.4195H34.1855L30.15 45.1083C28.951 44.4935 27.9507 43.5562 27.2634 42.4038C26.5762 41.2514 26.2299 39.9303 26.264 38.5918V18.5191C26.2889 18.2454 26.3757 17.9808 26.518 17.7451C26.6603 17.5094 26.8544 17.3086 27.0859 17.1577Z" fill="#4069FA"/>
<path d="M43.6634 49.7654C44.2735 49.7654 44.6571 49.7437 44.7183 49.7394C44.8825 49.7273 45.0414 49.6766 45.182 49.5914C45.3277 49.5053 45.46 49.3985 45.5744 49.2743C46.1721 48.6243 60.1112 33.3991 60.109 23.9604V3.89567C60.1199 3.73975 60.0884 3.58375 60.0178 3.44401C59.9473 3.30427 59.8403 3.18593 59.7078 3.10124L55.7198 0.816789L55.7001 0.806739C55.5589 0.738781 55.4014 0.711407 55.2453 0.727746C55.0892 0.744085 54.9409 0.803433 54.8171 0.899132C49.3615 4.02563 44.2866 5.44913 41.601 4.60052C41.3368 4.5617 41.067 4.60562 40.8293 4.72615C40.5915 4.84668 40.3976 5.03784 40.2745 5.27293C37.5263 9.28849 32.4121 13.7345 26.9215 16.8755C26.6387 17.0542 26.4018 17.2957 26.2294 17.581C26.0571 17.8663 25.954 18.1876 25.9285 18.5193V38.5905C25.8905 39.9831 26.2483 41.3584 26.9608 42.5589C27.6734 43.7594 28.7121 44.7368 29.9581 45.3794L29.9807 45.3938L34.0167 47.7049C34.0326 47.7138 34.049 47.7216 34.0661 47.7281C37.3181 49.538 41.6781 49.7654 43.6634 49.7654ZM55.4069 1.39099L59.3773 3.666C59.4129 3.68695 59.4501 3.76492 59.4501 3.89276V23.9611C59.4501 33.1485 45.6763 48.1961 45.0888 48.8309C45.0188 48.9078 44.9378 48.9741 44.8485 49.028C44.7968 49.0606 44.7384 49.0811 44.6776 49.088C44.4242 49.1039 38.429 49.4339 34.3464 47.1329C34.3321 47.1249 34.3174 47.118 34.3021 47.112L30.3308 44.8363L30.3076 44.8211C29.1593 44.2344 28.2009 43.3384 27.5425 42.2359C26.8842 41.1335 26.5524 39.8693 26.5853 38.5883V18.517C26.6104 18.2994 26.6829 18.0899 26.7978 17.9028C26.9127 17.7158 27.0673 17.5557 27.2507 17.4337C32.8184 14.2458 38.0171 9.7233 40.817 5.63263C41.0354 5.31558 41.3002 5.18772 41.3992 5.21589C44.2545 6.11722 49.5275 4.67352 55.1586 1.44591C55.2765 1.37369 55.355 1.35701 55.3827 1.37362L55.4038 1.38808L55.4069 1.39099Z" fill="#345BE4"/>
<path d="M45.0159 31.6413L53.9704 16.1294L52.7589 15.4375L45.0152 28.8708L40.2395 26.1408L39.0273 28.2165L45.0159 31.6413Z" fill="#345BE4"/>
</g>
<defs>
<clipPath id="clip0_9_44002">
<rect width="72.8" height="91" fill="white"/>
</clipPath>
</defs>
</svg>
