<svg width="60" height="91" viewBox="0 0 60 91" fill="none" xmlns="http://www.w3.org/2000/svg">
<g clip-path="url(#clip0_9_43938)">
<path fill-rule="evenodd" clip-rule="evenodd" d="M44.8384 61.2055L34.8906 55.4594V17.8396L44.8384 23.5856V61.2055Z" fill="#345BE4"/>
<path fill-rule="evenodd" clip-rule="evenodd" d="M35.3917 55.1728L44.3497 60.3461V23.8739L35.3917 18.7006V55.1728ZM44.8385 61.7031C44.7551 61.7029 44.6734 61.6796 44.6024 61.6359L34.6387 55.8893C34.5649 55.8448 34.5042 55.7816 34.4628 55.7062C34.4213 55.6307 34.4005 55.5456 34.4026 55.4595V17.8405C34.4 17.7538 34.4205 17.6679 34.462 17.5917C34.5035 17.5156 34.5644 17.4518 34.6387 17.4071C34.715 17.3635 34.8013 17.3406 34.8892 17.3406C34.977 17.3406 35.0634 17.3635 35.1397 17.4071L45.0912 23.1531C45.1663 23.1969 45.2288 23.2596 45.2724 23.335C45.3159 23.4103 45.3391 23.4957 45.3395 23.5828V61.2026C45.3392 61.2902 45.3162 61.3761 45.2726 61.4521C45.2291 61.5281 45.1665 61.5914 45.0912 61.6359C45.0132 61.6774 44.9267 61.7009 44.8385 61.7031Z" fill="#345BE4"/>
<path fill-rule="evenodd" clip-rule="evenodd" d="M44.8384 23.5863L34.8906 17.8404L44.9092 12.0518L54.857 17.7977L44.8384 23.5863Z" fill="#D3E5FB"/>
<path fill-rule="evenodd" clip-rule="evenodd" d="M35.8814 17.8397L44.8394 23.013L53.8768 17.7977L44.9102 12.6245L35.8814 17.8397ZM44.8394 24.0825C44.7557 24.0843 44.6735 24.0609 44.6033 24.0154L34.6396 18.2687C34.5665 18.2234 34.5061 18.1601 34.4642 18.0849C34.4223 18.0097 34.4004 17.925 34.4004 17.8389C34.4004 17.7528 34.4223 17.6682 34.4642 17.593C34.5061 17.5178 34.5665 17.4545 34.6396 17.4092L44.6711 11.6206C44.7452 11.5771 44.8296 11.5542 44.9155 11.5542C45.0015 11.5542 45.0858 11.5771 45.1599 11.6206L55.1078 17.3673C55.1846 17.4098 55.2486 17.4721 55.2931 17.5476C55.3376 17.6232 55.3611 17.7093 55.3611 17.797C55.3611 17.8848 55.3376 17.9709 55.2931 18.0464C55.2486 18.122 55.1846 18.1843 55.1078 18.2267L45.0929 24.0147C45.0157 24.0589 44.9284 24.0818 44.8394 24.0825Z" fill="#345BE4"/>
<path fill-rule="evenodd" clip-rule="evenodd" d="M34.8202 66.9941L24.873 61.2474V32.5549L34.8202 38.301V66.9941Z" fill="#345BE4"/>
<path fill-rule="evenodd" clip-rule="evenodd" d="M25.3609 60.9606L34.319 66.1374V38.5861L25.3609 33.4136V60.9606ZM34.8193 67.4909C34.7323 67.4888 34.647 67.4655 34.571 67.423L24.6195 61.6771C24.5438 61.6328 24.481 61.5695 24.4375 61.4935C24.3939 61.4175 24.371 61.3313 24.3711 61.2436V32.5513C24.3716 32.4647 24.3948 32.3798 24.4384 32.305C24.482 32.2303 24.5444 32.1682 24.6195 32.1251C24.6929 32.08 24.7774 32.0562 24.8635 32.0562C24.9497 32.0562 25.0341 32.08 25.1076 32.1251L35.0713 37.8718C35.1451 37.9152 35.2058 37.9775 35.2472 38.0523C35.2886 38.1271 35.3091 38.2117 35.3067 38.2972V66.9904C35.3093 67.077 35.289 67.1628 35.2476 67.2389C35.2062 67.3151 35.1454 67.3788 35.0713 67.4237C34.9934 67.4641 34.9071 67.4858 34.8193 67.4873V67.4909Z" fill="#345BE4"/>
<path fill-rule="evenodd" clip-rule="evenodd" d="M34.8202 38.3008L24.873 32.5548L34.8923 26.7705L44.8395 32.5165L34.8202 38.3008Z" fill="#D3E5FB"/>
<path fill-rule="evenodd" clip-rule="evenodd" d="M25.8664 32.5549L34.8193 37.7318L43.8445 32.5166L34.8915 27.3434L25.8664 32.5549ZM34.8193 38.7985C34.7321 38.7985 34.6464 38.7753 34.571 38.7313L24.6195 32.9847C24.5442 32.9409 24.4817 32.8782 24.4382 32.8028C24.3946 32.7274 24.3715 32.642 24.3711 32.5549C24.3716 32.4683 24.3948 32.3835 24.4384 32.3087C24.482 32.234 24.5444 32.1719 24.6195 32.1288L34.6388 26.3409C34.7152 26.2973 34.8015 26.2744 34.8893 26.2744C34.9772 26.2744 35.0636 26.2973 35.1399 26.3409L45.092 32.0869C45.1675 32.1299 45.2303 32.192 45.274 32.2671C45.3177 32.3422 45.3407 32.4276 45.3407 32.5145C45.3407 32.6014 45.3177 32.6867 45.274 32.7618C45.2303 32.8369 45.1675 32.8991 45.092 32.942L35.0727 38.7306C34.9954 38.7745 34.9082 38.7979 34.8193 38.7985Z" fill="#345BE4"/>
<path fill-rule="evenodd" clip-rule="evenodd" d="M34.8203 66.9932V38.3002L44.8396 32.5159V61.209L34.8203 66.9932Z" fill="white"/>
<path fill-rule="evenodd" clip-rule="evenodd" d="M35.3083 38.5877V66.1347L44.35 60.9196V33.3726L35.3083 38.5877ZM34.8195 67.4918C34.7324 67.4896 34.6472 67.4663 34.5711 67.4239C34.4943 67.3806 34.4304 67.3176 34.386 67.2415C34.3415 67.1653 34.3182 67.0787 34.3184 66.9906V38.2974C34.3184 38.2103 34.3419 38.1249 34.3864 38.05C34.4309 37.9752 34.4947 37.9137 34.5711 37.872L44.6035 32.0834C44.6776 32.04 44.762 32.0171 44.8479 32.0171C44.9338 32.0171 45.0181 32.04 45.0922 32.0834C45.1682 32.1273 45.2312 32.1905 45.2748 32.2666C45.3184 32.3427 45.3412 32.429 45.3406 32.5167V61.2099C45.3395 61.2962 45.316 61.3808 45.2724 61.4553C45.2289 61.5299 45.1668 61.5918 45.0922 61.6353L35.0729 67.4239C34.9949 67.4659 34.9081 67.4892 34.8195 67.4918Z" fill="#345BE4"/>
<path fill-rule="evenodd" clip-rule="evenodd" d="M44.8398 61.2099V23.5857L54.8584 17.7971V55.4169L44.8398 61.2099Z" fill="white"/>
<path fill-rule="evenodd" clip-rule="evenodd" d="M45.3417 23.8737V60.3518L54.3668 55.1322V18.66L45.3417 23.8752V23.8737ZM44.8406 61.7037C44.757 61.7055 44.6747 61.6821 44.6045 61.6366C44.527 61.5961 44.4624 61.5349 44.4177 61.4598C44.3731 61.3846 44.3502 61.2986 44.3518 61.2112V23.5848C44.3489 23.4961 44.3711 23.4084 44.4158 23.3318C44.4605 23.2551 44.5259 23.1926 44.6045 23.1515L54.6196 17.3637C54.6944 17.3223 54.7785 17.3005 54.864 17.3005C54.9495 17.3005 55.0335 17.3223 55.1084 17.3637C55.1847 17.4066 55.2483 17.4689 55.2927 17.5444C55.3371 17.6199 55.3607 17.7058 55.3611 17.7934V55.4132C55.3612 55.5014 55.3379 55.588 55.2935 55.6642C55.249 55.7404 55.1852 55.8033 55.1084 55.8465L45.0933 61.6344C45.0163 61.6785 44.9293 61.7028 44.8406 61.7037Z" fill="#345BE4"/>
<path fill-rule="evenodd" clip-rule="evenodd" d="M34.8199 47.2314L24.8728 41.4854L14.8535 47.2697L24.8006 53.0164L34.8199 47.2314Z" fill="#D3E5FB"/>
<path fill-rule="evenodd" clip-rule="evenodd" d="M15.8343 47.2695L24.8003 52.4472L33.8304 47.232L24.8724 42.0551L15.8343 47.2695ZM24.8003 53.5131C24.7126 53.5164 24.6259 53.493 24.5518 53.446L14.604 47.6992C14.5275 47.6571 14.4637 47.5952 14.4193 47.52C14.3749 47.4448 14.3516 47.3591 14.3516 47.2717C14.3516 47.1844 14.3749 47.0987 14.4193 47.0235C14.4637 46.9483 14.5275 46.8863 14.604 46.8441L24.619 41.0562C24.6929 41.0127 24.7772 40.9897 24.863 40.9897C24.9488 40.9897 25.0331 41.0127 25.1071 41.0562L35.0708 46.8023C35.1431 46.8482 35.2027 46.9118 35.2439 46.9869C35.2852 47.062 35.3068 47.1463 35.3068 47.232C35.3068 47.3177 35.2852 47.402 35.2439 47.4771C35.2027 47.5523 35.1431 47.6157 35.0708 47.6617L25.0392 53.4467C24.9675 53.4912 24.8846 53.5143 24.8003 53.5131Z" fill="#345BE4"/>
<path fill-rule="evenodd" clip-rule="evenodd" d="M24.8006 53.0155L14.8535 47.2695V67.036L24.8006 72.782V53.0155Z" fill="#345BE4"/>
<path fill-rule="evenodd" clip-rule="evenodd" d="M15.3457 66.7501L24.2987 71.9233V53.303L15.3457 48.1298V66.7501ZM24.8005 73.2753C24.7128 73.279 24.6261 73.2556 24.5522 73.2082L14.6042 67.4665C14.5275 67.4232 14.4637 67.3602 14.4193 67.2841C14.3748 67.2079 14.3515 67.1213 14.3516 67.0332V47.2667C14.3522 47.1797 14.3759 47.0945 14.4203 47.0197C14.4647 46.945 14.5282 46.8834 14.6042 46.8413C14.6784 46.7978 14.7627 46.7749 14.8486 46.7749C14.9346 46.7749 15.0189 46.7978 15.0931 46.8413L25.041 52.588C25.116 52.6313 25.1786 52.6932 25.2229 52.7677C25.2671 52.8422 25.2915 52.9268 25.2936 53.0134V72.7792C25.2928 72.8661 25.2689 72.9512 25.2245 73.0259C25.1802 73.1006 25.1168 73.1623 25.041 73.2046C24.9692 73.2512 24.8861 73.2757 24.8005 73.2753Z" fill="#345BE4"/>
<path fill-rule="evenodd" clip-rule="evenodd" d="M34.8201 66.997V47.2349L24.8008 53.0191V72.7849L34.8201 66.997Z" fill="white"/>
<path fill-rule="evenodd" clip-rule="evenodd" d="M25.295 53.303V71.9233L34.3202 66.7074V48.0871L25.295 53.303ZM24.8019 73.2753C24.7142 73.2789 24.6275 73.2556 24.5536 73.2082C24.4771 73.1666 24.4132 73.1051 24.3687 73.0302C24.3243 72.9553 24.3007 72.8699 24.3008 72.7828V53.017C24.3016 52.929 24.3253 52.8428 24.3696 52.7668C24.4139 52.6908 24.4774 52.6277 24.5536 52.5837L34.5721 46.7994C34.6485 46.7558 34.7348 46.7329 34.8226 46.7329C34.9105 46.7329 34.9969 46.7558 35.0732 46.7994C35.1474 46.8442 35.2084 46.9079 35.2499 46.9841C35.2914 47.0602 35.3119 47.146 35.3093 47.2327V66.9949C35.3119 67.0816 35.2914 67.1674 35.2499 67.2435C35.2084 67.3197 35.1474 67.3834 35.0732 67.4282L25.0416 73.2125C24.9694 73.2561 24.8862 73.2778 24.8019 73.2753Z" fill="#345BE4"/>
<path fill-rule="evenodd" clip-rule="evenodd" d="M24.8025 61.9472L14.8554 56.2012L4.82812 61.9855L14.7759 67.7358L24.8025 61.9472Z" fill="#D3E5FB"/>
<path fill-rule="evenodd" clip-rule="evenodd" d="M5.81501 61.9846L14.773 67.1579L23.8111 61.947L14.8532 56.7695L5.81501 61.9846ZM14.773 68.2282C14.6881 68.2293 14.6047 68.206 14.5326 68.161L4.58472 62.4143C4.50771 62.3713 4.44365 62.3084 4.3992 62.2322C4.35475 62.1559 4.33156 62.0692 4.33204 61.981C4.33418 61.8944 4.35856 61.8098 4.40281 61.7353C4.44706 61.6608 4.50969 61.5989 4.58472 61.5556L14.6033 55.767C14.6775 55.7236 14.7618 55.7007 14.8477 55.7007C14.9336 55.7007 15.018 55.7236 15.0921 55.767L25.0393 61.5137C25.1155 61.5577 25.1789 61.6208 25.2232 61.6968C25.2675 61.7728 25.2912 61.8591 25.292 61.947C25.2901 62.0343 25.2658 62.1196 25.2216 62.1949C25.1773 62.2701 25.1147 62.3327 25.0393 62.3767L15.0199 68.161C14.9454 68.2058 14.8599 68.229 14.773 68.2282Z" fill="#345BE4"/>
<path fill-rule="evenodd" clip-rule="evenodd" d="M14.772 67.7359L4.82422 61.9856V72.8247L14.772 78.5707V67.7359Z" fill="#345BE4"/>
<path fill-rule="evenodd" clip-rule="evenodd" d="M5.32691 72.5378L14.2798 77.7112V68.0175L5.32691 62.8441V72.5378ZM14.773 79.0631C14.6886 79.0637 14.6056 79.0418 14.5325 78.9996L4.58472 73.2536C4.50883 73.2093 4.44567 73.1461 4.40139 73.0701C4.35712 72.9942 4.33324 72.9081 4.33203 72.8202V61.9862C4.33418 61.8995 4.35855 61.8149 4.4028 61.7404C4.44706 61.666 4.50968 61.6041 4.58472 61.5608C4.65883 61.5173 4.7432 61.4944 4.82912 61.4944C4.91504 61.4944 4.99941 61.5173 5.07352 61.5608L15.0206 67.3075C15.0975 67.3507 15.1615 67.4137 15.2059 67.4898C15.2503 67.566 15.2736 67.6526 15.2733 67.7408V78.5742C15.2729 78.6395 15.2597 78.7041 15.2343 78.7642C15.2089 78.8244 15.1718 78.8789 15.1252 78.9247C15.0787 78.9705 15.0235 79.0066 14.9629 79.0309C14.9023 79.0553 14.8375 79.0675 14.7723 79.0667L14.773 79.0631Z" fill="#345BE4"/>
<path fill-rule="evenodd" clip-rule="evenodd" d="M24.8008 72.7821V61.9487L14.7734 67.7374V78.5707L24.8008 72.7821Z" fill="white"/>
<path fill-rule="evenodd" clip-rule="evenodd" d="M15.2755 68.0218V77.7111L24.3006 72.4959V62.8022L15.2755 68.0218ZM14.7744 79.0631C14.69 79.0636 14.607 79.0417 14.5339 78.9995C14.4586 78.9555 14.3958 78.8929 14.3516 78.8176C14.3073 78.7424 14.2831 78.6571 14.2812 78.5698V67.7365C14.282 67.6485 14.3058 67.5623 14.3501 67.4863C14.3944 67.4103 14.4578 67.3471 14.5339 67.3032L24.5533 61.5145C24.6273 61.4711 24.7116 61.4482 24.7974 61.4482C24.8832 61.4482 24.9674 61.4711 25.0414 61.5145C25.1176 61.5585 25.181 61.6217 25.2253 61.6977C25.2696 61.7737 25.2933 61.8599 25.2941 61.9479V72.7812C25.2932 72.8681 25.2694 72.9532 25.225 73.028C25.1806 73.1027 25.1173 73.1643 25.0414 73.2066L15.022 78.9995C14.9463 79.0416 14.861 79.0635 14.7744 79.0631Z" fill="#345BE4"/>
</g>
<defs>
<clipPath id="clip0_9_43938">
<rect width="59.9268" height="91" fill="white"/>
</clipPath>
</defs>
</svg>
