<svg width="1440" height="1023" viewBox="0 0 1440 1023" fill="none" xmlns="http://www.w3.org/2000/svg">
<mask id="mask0_977_5059" style="mask-type:luminance" maskUnits="userSpaceOnUse" x="-36" y="53" width="1511" height="970">
<path d="M1466.86 53.2773H-36V388.322L-7.94884 406.843C-26.2279 448.625 -36 492.676 -36 538.189C-36 805.939 302.245 1023 719.5 1023C1136.75 1023 1475 805.939 1475 538.189C1475 491.13 1464.55 445.617 1445.05 402.591L1466.88 388.322V53.2773H1466.86Z" fill="white"/>
</mask>
<g mask="url(#mask0_977_5059)">
<rect x="-36.2324" y="53.0742" width="1511.47" height="970.092" fill="#C8CEDE"/>
</g>
<path fill-rule="evenodd" clip-rule="evenodd" d="M715.238 969.891C1130.15 969.891 1466.48 752.78 1466.48 484.945C1466.48 439.399 1456.75 395.331 1438.58 353.549L1466.86 335.062V0H-36V335.062L-8.06538 353.499C-26.2612 395.297 -36 439.399 -36 484.945C-36 752.78 300.348 969.891 715.238 969.891Z" fill="#092346"/>
<path d="M1020.64 454.519C1019.14 454.519 1017.66 454.873 1016.33 455.58L890.745 528.096C889.751 528.669 889.162 529.376 889.162 529.999C889.196 530.268 889.313 530.538 889.482 530.757C889.65 530.976 889.869 531.161 890.139 531.262L1016.95 604.468C1018.82 605.546 1022.24 605.378 1024.43 604.115L1150.01 531.599C1151 531.026 1151.59 530.319 1151.59 529.696C1151.56 529.427 1151.44 529.157 1151.27 528.938C1151.1 528.719 1150.88 528.551 1150.61 528.433L1023.8 455.226C1022.83 454.721 1021.73 454.485 1020.62 454.519H1020.64ZM1020.13 607.163C1018.68 607.197 1017.24 606.86 1015.96 606.186L889.145 532.98C888.572 532.71 888.101 532.289 887.764 531.767C887.427 531.245 887.225 530.639 887.191 530.016C887.191 528.652 888.135 527.338 889.751 526.395L1015.33 453.879C1018.16 452.262 1022.3 452.094 1024.78 453.525L1151.59 526.732C1152.16 527.001 1152.63 527.422 1152.99 527.944C1153.32 528.467 1153.53 529.073 1153.56 529.696C1153.56 531.06 1152.62 532.373 1151 533.317L1025.42 605.833C1023.8 606.725 1021.98 607.18 1020.15 607.163H1020.13Z" fill="#1B69FF"/>
<path d="M418.498 604.484C420.35 605.562 423.786 605.394 425.975 604.13L551.556 531.614C552.55 531.042 553.139 530.334 553.139 529.711C553.105 529.442 552.988 529.173 552.819 528.954C552.651 528.735 552.432 528.549 552.162 528.448L425.352 455.242C423.499 454.164 420.064 454.333 417.875 455.596L292.294 528.112C291.3 528.684 290.711 529.391 290.711 530.015C290.744 530.284 290.862 530.553 291.031 530.772C291.199 530.991 291.418 531.16 291.687 531.278L418.498 604.484ZM421.697 607.179C420.249 607.212 418.801 606.875 417.521 606.202L290.711 532.995C290.138 532.726 289.666 532.305 289.313 531.783C288.976 531.261 288.774 530.655 288.74 530.031C288.74 528.667 289.683 527.354 291.3 526.411L416.881 453.895C419.693 452.278 423.853 452.109 426.329 453.541L553.139 526.748C553.712 527.017 554.183 527.438 554.537 527.96C554.874 528.482 555.076 529.088 555.109 529.728C555.109 531.092 554.166 532.406 552.55 533.349L426.969 605.865C425.352 606.758 423.533 607.212 421.697 607.195V607.179Z" fill="#1B69FF"/>
<path d="M719.828 615.078C717.167 615.062 714.54 615.718 712.199 616.981L498.137 740.558C496.234 741.67 495.123 743.051 495.123 744.364C495.19 744.954 495.409 745.509 495.746 745.981C496.099 746.453 496.554 746.84 497.093 747.076L713.226 871.865C716.578 873.785 722.691 873.516 726.598 871.259L940.66 747.665C942.563 746.554 943.675 745.173 943.675 743.859C943.607 743.27 943.388 742.714 943.051 742.242C942.698 741.771 942.243 741.384 941.704 741.148L725.571 616.358C723.802 615.432 721.832 614.994 719.828 615.045V615.078ZM718.986 875.284C716.611 875.351 714.271 874.795 712.182 873.684L496.049 748.894C495.19 748.49 494.449 747.85 493.91 747.042C493.371 746.25 493.068 745.324 493.018 744.364C493.018 742.276 494.5 740.238 497.076 738.756L711.138 615.163C715.769 612.485 722.556 612.232 726.615 614.573L942.748 739.363C943.607 739.767 944.348 740.407 944.887 741.198C945.426 741.99 945.729 742.916 945.78 743.876C945.78 745.964 944.298 748.002 941.721 749.501L727.659 873.095C724.998 874.56 722.017 875.301 718.986 875.284Z" fill="#1B69FF"/>
<path d="M993.674 925.417C995.324 926.781 996.284 928.802 996.284 930.941H997.244C997.244 928.515 996.166 926.208 994.28 924.676L993.674 925.417ZM1386.8 746.754C1388.18 745.036 1388.77 742.813 1388.45 740.64L1387.51 740.775C1387.8 742.695 1387.27 744.649 1386.06 746.164L1386.8 746.754ZM996.284 952.092C996.284 957.313 1001.15 961.203 1006.24 959.923L1006 958.997C1001.54 960.108 997.244 956.706 997.244 952.092H996.284ZM1379.44 706.235C1381.51 707.296 1382.95 709.283 1383.28 711.59L1384.23 711.456C1383.86 708.845 1382.22 706.589 1379.88 705.393L1379.44 706.252V706.235ZM1388.45 740.624L1384.23 711.456L1383.28 711.59L1387.51 740.758L1388.45 740.624ZM1373.97 761.439C1378.64 756.757 1383.97 750.273 1386.8 746.754L1386.06 746.164C1383.23 749.684 1377.93 756.134 1373.3 760.782L1373.97 761.456V761.439ZM1379.88 705.376L1099.67 562.449L1099.23 563.308L1379.44 706.235L1379.88 705.376ZM1006.24 959.923C1101.84 936.043 1262.96 872.924 1373.99 761.439L1373.31 760.765C1262.47 872.082 1101.54 935.134 1006.02 958.997L1006.25 959.923H1006.24ZM996.284 930.941V952.092H997.244V930.941H996.284ZM849.82 806.858L993.674 925.417L994.28 924.676L850.427 806.117L849.82 806.858Z" fill="#1B69FF"/>
<path d="M56.6922 708.713C54.3345 709.926 52.7178 712.199 52.3642 714.826L53.3072 714.961C53.6272 712.654 55.0587 710.633 57.1301 709.572L56.6922 708.73V708.713ZM49.0802 738.521C48.7603 740.828 49.4002 743.119 50.9495 744.87L51.6737 744.23C50.3264 742.698 49.7539 740.677 50.0233 738.639L49.0802 738.504V738.521ZM488.959 964.557C488.723 969.154 484.328 972.405 479.899 971.226L479.646 972.152C484.682 973.499 489.633 969.811 489.902 964.608L488.942 964.557H488.959ZM380.438 944.988C419.458 956.035 461.475 967.319 479.646 972.152L479.899 971.226C461.728 966.393 419.71 955.109 380.707 944.062L380.455 944.988H380.438ZM165.837 848.929C190.727 864.675 231.482 885.035 272.438 903.273C313.395 921.529 354.604 937.679 380.438 944.988L380.69 944.062C354.924 936.77 313.765 920.637 272.826 902.398C231.886 884.16 191.182 863.816 166.342 848.104L165.837 848.912V848.929ZM492.31 939.885C492.344 939.734 492.479 939.464 492.765 939.043C493.035 938.622 493.405 938.117 493.893 937.494C494.853 936.264 496.201 934.665 497.902 932.745C501.287 928.905 506.036 923.803 511.677 917.891C522.961 906.052 537.831 890.929 552.634 876.042C567.437 861.138 582.189 846.47 593.237 835.524C598.76 830.05 603.358 825.503 606.575 822.337C608.191 820.754 609.454 819.508 610.313 818.649C610.751 818.228 611.071 817.908 611.29 817.689C611.408 817.571 611.492 817.504 611.543 817.437C611.576 817.403 611.593 817.386 611.61 817.369C611.61 817.369 611.61 817.369 611.273 817.033C610.936 816.696 610.936 816.696 610.936 816.696C610.936 816.696 610.903 816.729 610.869 816.763C610.818 816.814 610.734 816.898 610.616 817.016C610.397 817.235 610.061 817.555 609.64 817.976C608.781 818.818 607.518 820.064 605.901 821.664C602.684 824.847 598.087 829.377 592.563 834.85C581.516 845.796 566.763 860.481 551.96 875.369C537.157 890.273 522.287 905.395 510.987 917.234C505.345 923.162 500.596 928.265 497.194 932.122C495.493 934.042 494.129 935.659 493.152 936.922C492.664 937.545 492.277 938.083 491.99 938.538C491.704 938.976 491.502 939.346 491.418 939.65L492.344 939.902L492.31 939.885ZM489.885 964.624C490.104 960.347 490.424 955.227 490.828 950.647C491.233 946.049 491.721 942.024 492.294 939.885L491.367 939.633C490.778 941.872 490.273 945.982 489.869 950.562C489.464 955.16 489.144 960.279 488.926 964.574L489.885 964.624ZM50.9159 744.887C62.3844 757.905 116.157 817.538 165.82 848.946L166.325 848.137C116.797 816.814 63.1085 757.282 51.6232 744.264L50.899 744.904L50.9159 744.887ZM52.3305 714.843L49.0465 738.538L49.9896 738.673L53.2736 714.978L52.3305 714.843ZM340.205 562.957L56.6585 708.747L57.0964 709.589L340.643 563.799L340.205 562.957Z" fill="#1B69FF"/>
<path opacity="0.5" d="M334.233 518.976V495.8L338.475 493.44C339.666 500.669 348.206 505.446 355.332 506.431L403.873 534.792L425.064 542.43L492.694 507.564L491.131 506.672C496.917 503.977 500.024 497.807 503.15 492.176L507.708 494.889L510.406 495.651V519.217C510.406 522.228 508.415 525.22 504.452 527.506L436.692 566.572C428.766 571.144 415.854 571.144 407.929 566.572L340.168 527.506C336.261 525.257 334.289 522.302 334.215 519.347C334.215 519.217 334.215 519.087 334.215 518.957L334.233 518.976Z" fill="#5284D8"/>
<path d="M334.233 498.363V483.03L338.475 480.67C339.666 487.9 348.206 492.676 355.332 493.661L403.873 522.022L425.064 529.661L492.694 494.795L491.131 493.903C496.917 491.208 500.024 485.038 503.15 479.406L507.708 482.12L510.406 482.882V498.605C510.406 501.616 508.415 504.608 504.452 506.894L436.692 545.96C428.766 550.532 415.854 550.532 407.929 545.96L340.168 506.894C336.261 504.645 334.289 501.708 334.215 498.735C334.215 498.605 334.215 498.475 334.215 498.345L334.233 498.363Z" fill="url(#paint0_linear_977_5059)"/>
<path opacity="0.3" d="M355.332 493.681L403.873 522.042L422.31 528.696V549.437C417.306 549.53 412.357 548.359 407.929 545.998L340.168 506.932C336.261 504.684 334.289 501.747 334.215 498.773C334.215 498.643 334.215 498.513 334.215 498.383V483.05L338.103 480.895H338.513C339.834 488.013 348.262 492.715 355.332 493.681Z" fill="#0F054C"/>
<path d="M422.328 437.907L429.882 435.918L446.664 445.768L503.168 479.426C500.042 485.057 496.935 491.227 491.149 493.922L426.942 456.901C425.528 456.139 423.947 455.767 422.328 455.804V437.925V437.907Z" fill="url(#paint1_linear_977_5059)"/>
<path d="M436.711 530.404L504.471 491.338C512.397 486.766 512.397 479.313 504.471 474.741L436.73 435.675C428.804 431.103 415.892 431.103 407.966 435.675L340.206 474.741C332.28 479.313 332.28 486.766 340.206 491.338L407.966 530.404C415.892 534.976 428.804 534.976 436.73 530.404H436.711Z" fill="url(#paint2_linear_977_5059)"/>
<path d="M340.187 491.337L407.947 530.403C415.872 534.975 428.784 534.975 436.71 530.403L504.47 491.337C508.024 489.293 509.977 486.672 510.35 483.996C510.815 487.304 508.861 490.724 504.47 493.251L436.71 532.317C428.784 536.889 415.872 536.889 407.947 532.317L340.187 493.251C335.796 490.724 333.842 487.304 334.307 483.996C334.679 486.672 336.633 489.293 340.187 491.337Z" fill="white"/>
<path d="M434.795 529.306L502.555 490.24C509.439 486.282 509.439 479.814 502.555 475.855L434.814 436.789C427.93 432.831 416.748 432.831 409.864 436.789L342.104 475.855C335.22 479.814 335.22 486.282 342.104 490.24L409.846 529.306C416.73 533.283 427.911 533.265 434.795 529.306ZM415.799 440.209C419.893 438.127 424.749 438.127 428.842 440.209L496.583 479.275C500.174 481.356 500.174 484.72 496.583 486.802L428.823 525.868C424.73 527.931 419.893 527.931 415.781 525.868L348.021 486.802C344.43 484.72 344.43 481.356 348.021 479.275L415.781 440.209H415.799Z" fill="url(#paint3_linear_977_5059)"/>
<path d="M411.058 379.481C406.923 388.559 398.105 403.002 382.515 407.622C380.219 408.302 378 411.567 378 414.281V457.389C378 472.04 384.631 481.821 395.515 483.21L406.687 484.637C411.177 485.211 416.837 481.943 421.329 476.187L432.509 461.862C443.391 447.913 450.023 430.482 450.023 415.827V372.576C450.023 369.904 447.866 369.162 445.594 371.056C429.776 384.248 421.045 380.257 416.96 376.076C415.514 374.597 412.494 376.329 411.058 379.481Z" fill="#C5CBD4"/>
<path d="M423.885 386.884C419.748 395.962 410.931 410.405 395.34 415.024C393.044 415.704 390.825 418.97 390.825 421.683V464.793C390.825 479.443 397.456 489.225 408.34 490.613L419.516 492.039C424.007 492.612 429.668 489.346 434.158 483.59L445.335 469.264C456.217 455.315 462.85 437.884 462.85 423.229V379.978C462.85 377.307 460.692 376.564 458.419 378.459C442.605 391.651 433.871 387.66 429.785 383.483C428.34 381.999 425.32 383.732 423.885 386.884Z" fill="url(#paint4_linear_977_5059)"/>
<path d="M382.513 407.622C380.217 408.303 377.998 411.568 377.998 414.282V457.391C377.998 468.663 381.925 477.044 388.688 480.947L401.512 488.355C394.751 484.445 390.825 476.065 390.825 464.794V421.682C390.825 418.969 393.046 415.703 395.34 415.023L382.513 407.621V407.622Z" fill="url(#paint5_linear_977_5059)"/>
<path d="M448.967 370.243C448.125 369.758 446.878 369.985 445.593 371.056C429.775 384.248 421.044 380.257 416.959 376.076C415.516 374.597 412.494 376.329 411.057 379.481C406.922 388.559 398.104 403.002 382.514 407.622L395.34 415.025C410.926 410.404 419.749 395.961 423.885 386.883C425.321 383.731 428.34 382 429.786 383.478C433.871 387.658 442.601 391.649 458.419 378.457C459.703 377.386 460.951 377.158 461.793 377.645L448.967 370.243Z" fill="url(#paint6_linear_977_5059)"/>
<path d="M458.419 378.46C459.703 377.389 460.951 377.161 461.793 377.647L460.349 376.812C459.482 376.984 458.677 377.384 458.018 377.972C450.95 383.867 444.649 386.851 439.29 386.851C437.6 386.874 435.924 386.547 434.367 385.889C432.81 385.232 431.406 384.259 430.245 383.032C430.015 382.797 429.739 382.611 429.435 382.486C429.131 382.361 428.805 382.3 428.476 382.305C426.621 382.305 424.449 384.119 423.311 386.618C419.485 395.018 410.74 409.798 395.164 414.413C392.61 415.17 390.195 418.702 390.195 421.681V464.79C390.195 474.017 392.86 481.415 397.524 486.049L401.512 488.351C394.752 484.442 390.825 476.061 390.825 464.79V421.684C390.825 418.971 393.046 415.705 395.34 415.025C410.932 410.406 419.749 395.963 423.885 386.885C425.321 383.733 428.34 382.001 429.786 383.48C433.872 387.661 442.601 391.652 458.419 378.46Z" fill="white"/>
<path d="M404.235 422.512C411.512 419.365 419.179 411.635 425.021 403.103C426.123 401.493 427.649 400.595 428.754 400.929C434.514 402.672 441.694 401.839 449.43 396.164C450.684 395.245 451.791 395.755 451.791 397.206V429.61C451.791 439.854 447.155 452.039 439.547 461.791L428.371 476.116C427.952 476.671 427.431 477.14 426.836 477.5C426.38 477.792 425.842 477.928 425.302 477.888L414.125 476.461C406.518 475.49 401.882 468.656 401.882 458.411V426.272C401.92 425.497 402.156 424.744 402.568 424.086C402.98 423.427 403.554 422.885 404.235 422.512Z" fill="#4670BA"/>
<path d="M450.762 395.711C450.972 396.027 451.075 396.402 451.058 396.781V429.184C451.058 439.428 446.422 451.614 438.814 461.365L427.638 475.691C427.219 476.245 426.698 476.715 426.103 477.075C425.647 477.366 425.109 477.502 424.57 477.462L413.393 476.036C411.846 475.847 410.346 475.376 408.968 474.646C410.534 475.621 412.295 476.24 414.127 476.46L425.304 477.886C425.844 477.927 426.382 477.791 426.838 477.499C427.433 477.139 427.954 476.669 428.373 476.115L439.549 461.789C447.158 452.038 451.793 439.853 451.793 429.608V397.205C451.791 396.317 451.373 395.781 450.762 395.711Z" fill="white"/>
<path opacity="0.5" d="M366.904 484.109V304H477.717V484.109C477.642 485.001 477.103 485.763 476.303 486.134L425.752 515.295C423.594 516.391 421.045 516.391 418.869 515.295L368.318 486.134C367.5 485.781 366.96 485.001 366.904 484.109Z" fill="url(#paint7_linear_977_5059)"/>
<path opacity="0.5" d="M932.019 518.976V495.8L936.261 493.44C937.451 500.669 945.991 505.446 953.117 506.431L1001.66 534.792L1022.85 542.43L1090.48 507.564L1088.92 506.672C1094.7 503.977 1097.81 497.807 1100.94 492.176L1105.49 494.889L1108.19 495.651V519.217C1108.19 522.228 1106.2 525.22 1102.24 527.506L1034.48 566.572C1026.55 571.144 1013.64 571.144 1005.71 566.572L937.954 527.506C934.047 525.257 932.074 522.302 932 519.347C932 519.217 932 519.087 932 518.957L932.019 518.976Z" fill="#5284D8"/>
<path d="M932.019 498.363V483.03L936.261 480.67C937.451 487.9 945.991 492.676 953.117 493.661L1001.66 522.022L1022.85 529.661L1090.48 494.795L1088.92 493.903C1094.7 491.208 1097.81 485.038 1100.94 479.406L1105.49 482.12L1108.19 482.882V498.605C1108.19 501.616 1106.2 504.608 1102.24 506.894L1034.48 545.96C1026.55 550.532 1013.64 550.532 1005.71 545.96L937.954 506.894C934.047 504.645 932.074 501.708 932 498.735C932 498.605 932 498.475 932 498.345L932.019 498.363Z" fill="url(#paint8_linear_977_5059)"/>
<path opacity="0.3" d="M953.117 493.681L1001.66 522.042L1020.1 528.696V549.437C1015.09 549.53 1010.14 548.359 1005.71 545.998L937.954 506.932C934.047 504.684 932.074 501.747 932 498.773C932 498.643 932 498.513 932 498.383V483.05L935.888 480.895H936.298C937.619 488.013 946.047 492.715 953.117 493.681Z" fill="#0F054C"/>
<path d="M1020.11 437.907L1027.67 435.918L1044.45 445.768L1100.95 479.426C1097.83 485.057 1094.72 491.227 1088.93 493.922L1024.73 456.901C1023.31 456.139 1021.73 455.767 1020.11 455.804V437.925V437.907Z" fill="url(#paint9_linear_977_5059)"/>
<path d="M1034.5 530.404L1102.26 491.338C1110.18 486.766 1110.18 479.313 1102.26 474.741L1034.51 435.675C1026.59 431.103 1013.68 431.103 1005.75 435.675L937.991 474.741C930.065 479.313 930.065 486.766 937.991 491.338L1005.75 530.404C1013.68 534.976 1026.59 534.976 1034.51 530.404H1034.5Z" fill="url(#paint10_linear_977_5059)"/>
<path d="M937.972 491.337L1005.73 530.403C1013.66 534.975 1026.57 534.975 1034.5 530.403L1102.26 491.337C1105.81 489.293 1107.76 486.672 1108.13 483.996C1108.6 487.304 1106.65 490.724 1102.26 493.251L1034.5 532.317C1026.57 536.889 1013.66 536.889 1005.73 532.317L937.972 493.251C933.581 490.724 931.627 487.304 932.092 483.996C932.465 486.672 934.418 489.293 937.972 491.337Z" fill="white"/>
<path d="M1032.58 529.306L1100.34 490.24C1107.22 486.282 1107.22 479.814 1100.34 475.855L1032.6 436.789C1025.72 432.831 1014.53 432.831 1007.65 436.789L939.89 475.855C933.006 479.814 933.006 486.282 939.89 490.24L1007.63 529.306C1014.51 533.283 1025.7 533.265 1032.58 529.306ZM1013.58 440.209C1017.68 438.127 1022.53 438.127 1026.63 440.209L1094.37 479.275C1097.96 481.356 1097.96 484.72 1094.37 486.802L1026.61 525.868C1022.52 527.931 1017.68 527.931 1013.57 525.868L945.806 486.802C942.215 484.72 942.215 481.356 945.806 479.275L1013.57 440.209H1013.58Z" fill="url(#paint11_linear_977_5059)"/>
<path d="M1027.79 379.481C1031.93 388.559 1040.74 403.002 1056.33 407.622C1058.63 408.302 1060.85 411.567 1060.85 414.281V457.389C1060.85 472.04 1054.22 481.821 1043.33 483.21L1032.16 484.637C1027.67 485.211 1022.01 481.943 1017.52 476.187L1006.34 461.862C995.459 447.913 988.826 430.482 988.826 415.827V372.576C988.826 369.904 990.984 369.162 993.256 371.056C1009.07 384.248 1017.81 380.257 1021.89 376.076C1023.34 374.597 1026.36 376.329 1027.79 379.481Z" fill="#C5CBD4"/>
<path d="M1014.96 386.884C1019.1 395.962 1027.92 410.405 1043.51 415.024C1045.81 415.704 1048.02 418.97 1048.02 421.683V464.793C1048.02 479.443 1041.39 489.225 1030.51 490.613L1019.33 492.039C1014.84 492.612 1009.18 489.346 1004.69 483.59L993.515 469.264C982.633 455.315 976 437.884 976 423.229V379.978C976 377.307 978.158 376.564 980.431 378.459C996.244 391.651 1004.98 387.66 1009.06 383.483C1010.51 381.999 1013.53 383.732 1014.96 386.884Z" fill="url(#paint12_linear_977_5059)"/>
<path d="M1056.33 407.622C1058.63 408.303 1060.85 411.568 1060.85 414.282V457.391C1060.85 468.663 1056.92 477.044 1050.16 480.947L1037.34 488.355C1044.1 484.445 1048.02 476.065 1048.02 464.794V421.682C1048.02 418.969 1045.8 415.703 1043.51 415.023L1056.33 407.621V407.622Z" fill="url(#paint13_linear_977_5059)"/>
<path d="M989.88 370.243C990.723 369.758 991.97 369.985 993.255 371.056C1009.07 384.248 1017.8 380.257 1021.89 376.076C1023.33 374.597 1026.35 376.329 1027.79 379.481C1031.93 388.559 1040.74 403.002 1056.33 407.622L1043.51 415.025C1027.92 410.404 1019.1 395.961 1014.96 386.883C1013.53 383.731 1010.51 382 1009.06 383.478C1004.98 387.658 996.246 391.649 980.428 378.457C979.145 377.386 977.896 377.158 977.055 377.645L989.88 370.243Z" fill="url(#paint14_linear_977_5059)"/>
<path d="M980.428 378.46C979.145 377.389 977.896 377.161 977.055 377.647L978.498 376.812C979.365 376.984 980.171 377.384 980.83 377.972C987.898 383.867 994.199 386.851 999.558 386.851C1001.25 386.874 1002.92 386.547 1004.48 385.889C1006.04 385.232 1007.44 384.259 1008.6 383.032C1008.83 382.797 1009.11 382.611 1009.41 382.486C1009.72 382.361 1010.04 382.3 1010.37 382.305C1012.23 382.305 1014.4 384.119 1015.54 386.618C1019.36 395.018 1028.11 409.798 1043.68 414.413C1046.24 415.17 1048.65 418.702 1048.65 421.681V464.79C1048.65 474.017 1045.99 481.415 1041.32 486.049L1037.34 488.351C1044.1 484.442 1048.02 476.061 1048.02 464.79V421.684C1048.02 418.971 1045.8 415.705 1043.51 415.025C1027.92 410.406 1019.1 395.963 1014.96 386.885C1013.53 383.733 1010.51 382.001 1009.06 383.48C1004.98 387.661 996.246 391.652 980.428 378.46Z" fill="white"/>
<path d="M1034.61 422.512C1027.34 419.365 1019.67 411.635 1013.83 403.103C1012.73 401.493 1011.2 400.595 1010.1 400.929C1004.34 402.672 997.156 401.839 989.419 396.164C988.166 395.245 987.059 395.755 987.059 397.206V429.61C987.059 439.854 991.695 452.039 999.302 461.791L1010.48 476.116C1010.9 476.671 1011.42 477.14 1012.01 477.5C1012.47 477.792 1013.01 477.928 1013.55 477.888L1024.72 476.461C1032.33 475.49 1036.97 468.656 1036.97 458.411V426.272C1036.93 425.497 1036.69 424.744 1036.28 424.086C1035.87 423.427 1035.3 422.885 1034.61 422.512Z" fill="#4670BA"/>
<path d="M988.085 395.711C987.876 396.027 987.772 396.402 987.79 396.781V429.184C987.79 439.428 992.426 451.614 1000.03 461.365L1011.21 475.691C1011.63 476.245 1012.15 476.715 1012.74 477.075C1013.2 477.366 1013.74 477.502 1014.28 477.462L1025.45 476.036C1027 475.847 1028.5 475.376 1029.88 474.646C1028.31 475.621 1026.55 476.24 1024.72 476.46L1013.54 477.886C1013 477.927 1012.47 477.791 1012.01 477.499C1011.41 477.139 1010.89 476.669 1010.47 476.115L999.298 461.789C991.69 452.038 987.055 439.853 987.055 429.608V397.205C987.057 396.317 987.474 395.781 988.085 395.711Z" fill="white"/>
<path opacity="0.5" d="M964.689 484.109V304H1075.5V484.109C1075.43 485.001 1074.89 485.763 1074.09 486.134L1023.54 515.295C1021.38 516.391 1018.83 516.391 1016.65 515.295L966.103 486.134C965.285 485.781 964.745 485.001 964.689 484.109Z" fill="url(#paint15_linear_977_5059)"/>
<g style="mix-blend-mode:multiply" opacity="0.54">
<path d="M834.891 755.092C840.084 758.216 840.104 763.261 834.936 766.37L727.554 830.956C722.386 834.064 713.993 834.053 708.8 830.93L600.895 766.049C595.701 762.925 595.681 757.88 600.849 754.771L708.23 629.874C713.398 626.766 721.791 626.778 726.984 629.9L834.891 755.092Z" fill="#5CAEFF"/>
</g>
<path d="M844.619 662.425C844.606 662.57 844.596 662.715 844.57 662.861C844.548 662.979 844.512 663.095 844.481 663.213C844.446 663.35 844.412 663.487 844.364 663.623C844.324 663.735 844.27 663.847 844.219 663.959C844.156 664.104 844.094 664.245 844.018 664.386C843.963 664.488 843.897 664.589 843.834 664.691C843.734 664.852 843.629 665.013 843.511 665.171C843.438 665.264 843.366 665.356 843.289 665.448C843.106 665.667 842.912 665.876 842.707 666.074C842.63 666.146 842.562 666.225 842.479 666.298C842.348 666.417 842.201 666.531 842.058 666.646C841.931 666.747 841.809 666.851 841.672 666.951C841.516 667.063 841.345 667.169 841.177 667.281C841.009 667.393 840.841 667.508 840.655 667.616L729.46 732.234C729.039 732.474 728.605 732.692 728.162 732.888C728.033 732.946 727.902 733 727.77 733.055C727.418 733.201 727.058 733.337 726.689 733.465C726.557 733.51 726.428 733.558 726.294 733.6C726.063 733.673 725.824 733.738 725.587 733.802C725.407 733.851 725.229 733.904 725.046 733.948C724.797 734.008 724.542 734.058 724.288 734.11C724.114 734.145 723.943 734.182 723.767 734.216C723.253 734.307 722.731 734.378 722.205 734.434C722.044 734.451 721.88 734.461 721.717 734.475C721.409 734.501 721.099 734.523 720.788 734.536C720.59 734.545 720.392 734.549 720.194 734.553C719.942 734.558 719.691 734.56 719.439 734.557C719.23 734.557 719.021 734.547 718.812 734.539C718.579 734.53 718.346 734.518 718.114 734.502C717.902 734.487 717.69 734.469 717.48 734.448C717.25 734.427 717.021 734.401 716.793 734.372C716.588 734.346 716.383 734.317 716.178 734.286C715.936 734.247 715.694 734.205 715.452 734.159C715.26 734.122 715.069 734.087 714.879 734.043C714.592 733.98 714.309 733.909 714.028 733.834C713.87 733.792 713.711 733.753 713.555 733.707C713.046 733.562 712.557 733.395 712.079 733.209C712.013 733.183 711.951 733.154 711.886 733.127C711.244 732.873 710.621 732.574 710.021 732.233L598.087 667.609C595.377 666.044 594.023 663.991 594.028 661.941L594 767.26C593.994 769.311 595.348 771.364 598.058 772.928L709.992 837.552C710.592 837.893 711.215 838.192 711.856 838.446C711.898 838.464 711.934 838.488 711.977 838.504C712.001 838.514 712.028 838.52 712.049 838.53C712.526 838.716 713.02 838.88 713.524 839.028C713.565 839.039 713.602 839.057 713.644 839.068C713.759 839.101 713.88 839.123 713.997 839.155C714.278 839.227 714.561 839.3 714.848 839.363C714.925 839.381 715 839.403 715.077 839.419C715.19 839.443 715.307 839.458 715.421 839.48C715.662 839.525 715.902 839.567 716.148 839.605C716.246 839.62 716.342 839.642 716.438 839.657C716.534 839.671 716.656 839.679 716.76 839.692C716.988 839.721 717.217 839.747 717.446 839.769C717.556 839.78 717.664 839.796 717.774 839.806C717.884 839.815 717.979 839.815 718.081 839.822C718.313 839.838 718.546 839.85 718.779 839.86C718.895 839.864 719.011 839.875 719.127 839.878C719.22 839.878 719.313 839.878 719.406 839.878C719.657 839.882 719.909 839.878 720.16 839.875C720.285 839.875 720.409 839.875 720.534 839.875C720.607 839.875 720.68 839.863 720.752 839.86C721.063 839.846 721.372 839.824 721.682 839.798C721.805 839.788 721.931 839.785 722.054 839.773C722.093 839.769 722.127 839.761 722.169 839.757C722.695 839.702 723.216 839.629 723.732 839.539C723.756 839.535 723.782 839.533 723.804 839.529C723.955 839.502 724.099 839.464 724.248 839.434C724.502 839.383 724.757 839.332 725.008 839.272C725.19 839.227 725.366 839.176 725.547 839.126C725.785 839.062 726.023 838.998 726.256 838.924C726.305 838.908 726.358 838.897 726.406 838.882C726.491 838.854 726.567 838.818 726.65 838.789C727.019 838.663 727.379 838.527 727.73 838.379C727.862 838.324 727.995 838.27 728.124 838.212C728.567 838.016 729 837.797 729.42 837.558L840.629 772.934L840.797 772.834C840.924 772.758 841.031 772.676 841.152 772.597C841.32 772.488 841.49 772.379 841.646 772.268C841.782 772.169 841.905 772.065 842.032 771.963C842.177 771.848 842.322 771.734 842.452 771.616C842.479 771.592 842.513 771.569 842.539 771.543C842.593 771.493 842.63 771.439 842.684 771.389C842.889 771.191 843.083 770.982 843.266 770.763C843.305 770.716 843.356 770.673 843.393 770.626C843.43 770.579 843.453 770.532 843.488 770.486C843.606 770.328 843.711 770.167 843.81 770.006C843.853 769.939 843.908 769.873 843.946 769.805C843.966 769.77 843.977 769.732 843.995 769.701C844.068 769.556 844.133 769.417 844.196 769.274C844.232 769.19 844.281 769.108 844.313 769.023C844.323 768.995 844.327 768.966 844.337 768.938C844.385 768.802 844.419 768.665 844.455 768.527C844.479 768.435 844.516 768.343 844.534 768.25C844.539 768.225 844.539 768.201 844.543 768.177C844.569 768.032 844.579 767.887 844.592 767.741C844.601 767.648 844.622 767.554 844.624 767.459C844.624 767.419 844.624 767.379 844.624 767.339L844.653 662.02C844.653 662.156 844.632 662.29 844.619 662.425Z" fill="url(#paint16_linear_977_5059)"/>
<path d="M840.595 656.352C845.982 659.462 846.011 664.501 840.658 667.615L729.46 732.233C724.108 735.343 715.409 735.343 710.022 732.233L598.088 667.608C592.702 664.498 592.672 659.459 598.025 656.349L709.223 591.727C714.575 588.617 723.274 588.617 728.661 591.727L840.595 656.352Z" fill="url(#paint17_linear_977_5059)"/>
<path d="M839.738 648.987C839.726 649.126 839.716 649.264 839.691 649.402C839.67 649.516 839.636 649.628 839.606 649.741C839.572 649.873 839.54 650.004 839.493 650.135C839.455 650.242 839.404 650.353 839.357 650.457C839.297 650.595 839.238 650.732 839.164 650.869C839.111 650.967 839.048 651.063 838.988 651.159C838.892 651.314 838.791 651.468 838.677 651.62C838.61 651.709 838.537 651.798 838.464 651.887C838.288 652.097 838.102 652.298 837.904 652.488C837.832 652.56 837.759 652.633 837.686 652.706C837.561 652.819 837.42 652.929 837.282 653.039C837.16 653.137 837.042 653.237 836.911 653.33C836.761 653.439 836.597 653.542 836.436 653.647C836.274 653.753 836.112 653.865 835.934 653.97L729.065 716.077C728.669 716.306 728.248 716.513 727.818 716.707C727.694 716.763 727.567 716.815 727.442 716.868C727.102 717.01 726.756 717.141 726.402 717.262C726.275 717.305 726.151 717.351 726.023 717.392C725.8 717.465 725.571 717.523 725.343 717.586C725.17 717.632 724.999 717.683 724.823 717.725C724.584 717.784 724.339 717.832 724.096 717.882C723.93 717.915 723.765 717.954 723.595 717.983C723.101 718.071 722.6 718.139 722.094 718.192C721.939 718.209 721.782 718.218 721.626 718.231C721.329 718.256 721.031 718.278 720.733 718.291C720.542 718.299 720.352 718.303 720.161 718.307C719.919 718.311 719.677 718.313 719.435 718.31C719.234 718.31 719.032 718.301 718.832 718.294C718.608 718.284 718.384 718.273 718.161 718.257C717.958 718.244 717.754 718.226 717.551 718.206C717.333 718.185 717.111 718.161 716.892 718.134C716.694 718.109 716.497 718.081 716.301 718.051C716.067 718.015 715.834 717.973 715.603 717.93C715.419 717.894 715.235 717.857 715.052 717.818C714.776 717.757 714.505 717.689 714.235 717.618C714.083 717.577 713.931 717.539 713.781 717.495C713.295 717.353 712.821 717.195 712.362 717.016C712.299 716.992 712.239 716.963 712.176 716.938C711.56 716.693 710.961 716.406 710.384 716.078L602.811 653.969C600.206 652.465 598.905 650.492 598.91 648.52L598.883 658.329C598.877 660.299 600.178 662.273 602.783 663.779L710.357 725.886C710.933 726.214 711.532 726.501 712.148 726.745C712.188 726.761 712.221 726.784 712.264 726.801C712.287 726.81 712.312 726.816 712.336 726.825C712.795 727.004 713.269 727.162 713.753 727.303C713.793 727.315 713.826 727.332 713.868 727.342C713.979 727.374 714.095 727.396 714.208 727.426C714.478 727.499 714.749 727.566 715.026 727.626C715.098 727.643 715.171 727.665 715.244 727.68C715.352 727.703 715.462 727.717 715.573 727.738C715.805 727.782 716.036 727.822 716.27 727.859C716.365 727.874 716.457 727.895 716.552 727.908C716.647 727.921 716.759 727.93 716.862 727.943C717.08 727.97 717.298 727.995 717.522 728.015C717.627 728.025 717.731 728.041 717.836 728.051C717.942 728.06 718.033 728.06 718.131 728.066C718.354 728.082 718.577 728.094 718.802 728.102C718.914 728.107 719.025 728.117 719.137 728.12C719.226 728.12 719.316 728.12 719.404 728.12C719.646 728.124 719.888 728.12 720.131 728.12C720.25 728.12 720.37 728.12 720.49 728.12C720.563 728.12 720.631 728.109 720.702 728.105C721.001 728.092 721.298 728.071 721.595 728.046C721.714 728.036 721.835 728.034 721.954 728.022C721.991 728.022 722.027 728.011 722.064 728.007C722.572 727.954 723.071 727.885 723.565 727.798C723.589 727.793 723.614 727.792 723.638 727.787C723.783 727.762 723.921 727.725 724.063 727.696C724.308 727.647 724.553 727.598 724.794 727.54C724.969 727.498 725.139 727.448 725.312 727.401C725.541 727.339 725.77 727.277 725.993 727.207C726.041 727.191 726.091 727.18 726.139 727.165C726.219 727.139 726.293 727.103 726.373 727.076C726.727 726.956 727.073 726.825 727.411 726.683C727.538 726.63 727.665 726.578 727.79 726.521C728.215 726.333 728.631 726.122 729.035 725.891L835.902 663.788C835.956 663.756 836.01 663.724 836.063 663.692C836.184 663.62 836.288 663.54 836.404 663.465C836.565 663.36 836.73 663.256 836.879 663.147C837.01 663.052 837.127 662.953 837.25 662.857C837.388 662.746 837.528 662.639 837.654 662.523C837.68 662.5 837.712 662.478 837.737 662.455C837.789 662.407 837.825 662.355 837.874 662.31C838.072 662.12 838.259 661.919 838.434 661.709C838.471 661.664 838.52 661.622 838.556 661.576C838.592 661.531 838.613 661.487 838.647 661.443C838.76 661.29 838.861 661.136 838.957 660.981C838.998 660.916 839.051 660.853 839.088 660.787C839.106 660.755 839.117 660.72 839.134 660.688C839.207 660.552 839.267 660.415 839.327 660.277C839.362 660.197 839.409 660.118 839.44 660.037C839.45 660.01 839.453 659.982 839.463 659.955C839.509 659.824 839.542 659.692 839.576 659.561C839.599 659.471 839.635 659.383 839.653 659.293C839.658 659.27 839.657 659.246 839.661 659.221C839.687 659.083 839.696 658.944 839.708 658.805C839.716 658.715 839.737 658.625 839.74 658.535C839.74 658.496 839.74 658.457 839.74 658.418L839.767 648.609C839.771 648.73 839.75 648.858 839.738 648.987Z" fill="url(#paint18_linear_977_5059)"/>
<path d="M835.87 643.154C841.047 646.143 841.074 650.985 835.931 653.975L729.064 716.078C723.92 719.067 715.561 719.067 710.383 716.078L602.811 653.971C597.634 650.982 597.606 646.139 602.75 643.151L709.616 581.046C714.759 578.058 723.12 578.058 728.297 581.046L835.87 643.154Z" fill="url(#paint19_linear_977_5059)"/>
<path d="M844.619 594.329C844.606 594.474 844.596 594.619 844.57 594.765C844.548 594.883 844.512 594.999 844.481 595.117C844.446 595.254 844.412 595.391 844.364 595.527C844.324 595.64 844.27 595.751 844.219 595.863C844.156 596.008 844.094 596.149 844.018 596.291C843.963 596.392 843.897 596.493 843.834 596.595C843.734 596.756 843.629 596.917 843.511 597.075C843.438 597.168 843.366 597.26 843.289 597.352C843.107 597.571 842.913 597.78 842.707 597.978C842.63 598.051 842.562 598.129 842.479 598.202C842.348 598.321 842.201 598.435 842.058 598.55C841.931 598.652 841.809 598.755 841.672 598.855C841.516 598.968 841.345 599.073 841.177 599.185C841.009 599.297 840.841 599.412 840.655 599.52L729.46 664.141C729.038 664.38 728.605 664.599 728.162 664.795C728.033 664.852 727.902 664.906 727.77 664.962C727.418 665.107 727.058 665.244 726.689 665.372C726.557 665.417 726.428 665.465 726.294 665.507C726.063 665.579 725.824 665.644 725.587 665.709C725.407 665.757 725.229 665.81 725.046 665.854C724.797 665.915 724.542 665.965 724.288 666.016C724.114 666.052 723.943 666.089 723.767 666.122C723.253 666.213 722.731 666.284 722.205 666.34C722.044 666.358 721.88 666.368 721.717 666.382C721.408 666.407 721.099 666.43 720.788 666.443C720.59 666.451 720.392 666.456 720.194 666.459C719.942 666.465 719.691 666.466 719.439 666.463C719.23 666.46 719.021 666.454 718.811 666.446C718.579 666.436 718.346 666.424 718.114 666.408C717.902 666.394 717.69 666.376 717.48 666.355C717.25 666.333 717.021 666.307 716.793 666.278C716.588 666.252 716.383 666.223 716.178 666.192C715.935 666.154 715.693 666.111 715.452 666.065C715.26 666.028 715.069 665.993 714.879 665.949C714.592 665.887 714.309 665.816 714.028 665.741C713.87 665.699 713.711 665.659 713.555 665.614C713.046 665.468 712.557 665.301 712.079 665.115C712.013 665.09 711.951 665.06 711.886 665.034C711.244 664.779 710.621 664.48 710.021 664.139L598.087 599.515C595.377 597.95 594.023 595.897 594.028 593.848L594 638.856C593.994 640.906 595.348 642.959 598.058 644.524L709.992 709.148C710.592 709.489 711.215 709.788 711.856 710.042C711.898 710.059 711.934 710.083 711.977 710.1C712.001 710.11 712.028 710.116 712.049 710.126C712.526 710.312 713.02 710.477 713.524 710.623C713.565 710.636 713.602 710.652 713.644 710.664C713.759 710.697 713.88 710.719 713.997 710.75C714.278 710.823 714.561 710.896 714.848 710.959C714.925 710.976 715 711 715.077 711.015C715.19 711.039 715.307 711.053 715.421 711.075C715.662 711.121 715.902 711.163 716.148 711.201C716.246 711.216 716.342 711.239 716.438 711.253C716.534 711.266 716.656 711.275 716.76 711.288C716.988 711.317 717.217 711.343 717.446 711.365C717.556 711.375 717.664 711.393 717.774 711.402C717.884 711.41 717.979 711.411 718.081 711.418C718.313 711.434 718.546 711.447 718.779 711.455C718.895 711.46 719.011 711.471 719.127 711.474C719.22 711.474 719.313 711.474 719.406 711.474C719.657 711.478 719.909 711.474 720.16 711.471C720.285 711.471 720.409 711.471 720.534 711.471C720.607 711.471 720.68 711.459 720.752 711.455C721.063 711.442 721.372 711.42 721.682 711.394C721.805 711.383 721.931 711.381 722.054 711.369C722.093 711.365 722.127 711.357 722.169 711.353C722.695 711.298 723.217 711.226 723.732 711.135C723.756 711.13 723.782 711.128 723.804 711.124C723.955 711.097 724.099 711.059 724.248 711.029C724.502 710.978 724.757 710.927 725.008 710.867C725.19 710.822 725.366 710.771 725.547 710.721C725.785 710.657 726.023 710.593 726.256 710.519C726.305 710.503 726.358 710.492 726.406 710.477C726.491 710.449 726.567 710.413 726.65 710.384C727.019 710.258 727.379 710.122 727.73 709.974C727.862 709.919 727.995 709.865 728.124 709.807C728.567 709.611 729 709.393 729.42 709.153L840.619 644.532L840.787 644.433C840.913 644.356 841.021 644.274 841.142 644.196C841.309 644.086 841.48 643.978 841.636 643.866C841.772 643.767 841.894 643.663 842.021 643.561C842.167 643.446 842.312 643.332 842.442 643.214C842.469 643.19 842.502 643.167 842.529 643.141C842.582 643.091 842.62 643.037 842.674 642.987C842.879 642.789 843.073 642.58 843.255 642.361C843.295 642.314 843.346 642.271 843.383 642.224C843.42 642.177 843.443 642.13 843.478 642.084C843.595 641.926 843.701 641.765 843.8 641.604C843.842 641.537 843.898 641.471 843.936 641.403C843.956 641.369 843.967 641.33 843.985 641.299C844.057 641.154 844.123 641.015 844.185 640.872C844.222 640.788 844.27 640.706 844.302 640.622C844.313 640.593 844.317 640.564 844.327 640.536C844.375 640.4 844.408 640.263 844.445 640.125C844.469 640.033 844.506 639.941 844.524 639.848C844.529 639.824 844.528 639.798 844.533 639.775C844.559 639.63 844.569 639.485 844.582 639.339C844.591 639.245 844.612 639.152 844.614 639.057C844.614 639.017 844.614 638.977 844.614 638.937L844.643 593.928C844.653 594.063 844.632 594.197 844.619 594.329Z" fill="url(#paint20_linear_977_5059)"/>
<path d="M840.595 588.985C845.982 592.095 846.011 597.134 840.658 600.248L729.46 664.866C724.108 667.976 715.409 667.976 710.022 664.866L598.088 600.241C592.702 597.131 592.672 592.091 598.025 588.981L709.223 524.36C714.575 521.25 723.274 521.25 728.661 524.36L840.595 588.985Z" fill="#EFF3FA"/>
<path d="M803.087 589.999C806.807 592.147 806.827 595.627 803.131 597.774L726.33 642.407C722.633 644.555 716.626 644.555 712.905 642.407L635.597 597.772C631.876 595.625 631.856 592.145 635.552 589.998L712.352 545.365C716.049 543.217 722.057 543.217 725.778 545.365L803.087 589.999Z" fill="#6C96FF"/>
<mask id="mask1_977_5059" style="mask-type:luminance" maskUnits="userSpaceOnUse" x="632" y="543" width="174" height="101">
<path d="M802.866 589.772C806.586 591.92 806.606 595.401 802.909 597.547L726.109 642.18C722.412 644.329 716.405 644.329 712.684 642.18L635.376 597.546C631.655 595.398 631.635 591.918 635.332 589.771L712.132 545.138C715.828 542.99 721.837 542.99 725.557 545.138L802.866 589.772Z" fill="white"/>
</mask>
<g mask="url(#mask1_977_5059)">
<path d="M801.413 626.104C805.133 628.252 805.153 631.733 801.456 633.879L724.656 678.512C720.959 680.661 714.952 680.661 711.231 678.512L633.923 633.878C630.202 631.73 630.182 628.25 633.879 626.103L710.679 581.47C714.375 579.322 720.384 579.322 724.104 581.47L801.413 626.104Z" fill="#6C96FF"/>
</g>
<path d="M787.104 377.363C786.127 376.795 784.774 376.875 783.282 377.734L644.368 457.898C642.805 458.912 641.505 460.28 640.572 461.892C639.64 463.503 639.102 465.312 639.002 467.171L639.288 577.349C639.292 579.039 639.89 580.228 640.854 580.789L647.893 584.878C646.929 584.318 646.335 583.128 646.327 581.438L646.042 471.264C646.141 469.405 646.679 467.596 647.612 465.984C648.545 464.373 649.845 463.004 651.408 461.991L790.323 381.822C791.814 380.961 793.167 380.882 794.144 381.451L787.104 377.363Z" fill="url(#paint21_linear_977_5059)"/>
<path d="M790.323 381.825C793.287 380.115 795.703 381.491 795.712 384.895L796 495.069C795.902 496.927 795.366 498.736 794.435 500.347C793.505 501.959 792.207 503.328 790.646 504.342L651.73 584.502C648.754 586.219 646.338 584.844 646.329 581.439L646.043 471.264C646.143 469.405 646.681 467.596 647.613 465.984C648.546 464.373 649.847 463.005 651.409 461.991L790.323 381.825Z" fill="url(#paint22_linear_977_5059)"/>
<path d="M789.042 401.934L789.281 497.402L653.052 576.015L652.816 480.547L789.042 401.934Z" fill="white"/>
<path d="M768.597 401.839C770.12 400.96 771.359 401.666 771.364 403.414C771.314 404.366 771.038 405.292 770.561 406.118C770.084 406.943 769.418 407.643 768.618 408.162C767.104 409.036 765.865 408.339 765.859 406.591C765.909 405.639 766.183 404.713 766.659 403.887C767.135 403.061 767.799 402.36 768.597 401.839Z" fill="white"/>
<path d="M786.275 391.643C787.797 390.765 789.037 391.471 789.042 393.219C788.991 394.171 788.716 395.097 788.239 395.922C787.762 396.747 787.096 397.448 786.296 397.967C784.782 398.841 783.542 398.144 783.537 396.396C783.587 395.444 783.861 394.518 784.337 393.692C784.813 392.866 785.477 392.164 786.275 391.643Z" fill="white"/>
<path d="M777.436 396.741C778.958 395.863 780.197 396.569 780.204 398.319C780.153 399.271 779.878 400.198 779.401 401.023C778.924 401.848 778.258 402.548 777.458 403.067C775.936 403.945 774.704 403.244 774.699 401.496C774.748 400.544 775.021 399.617 775.496 398.79C775.972 397.964 776.637 397.261 777.436 396.741Z" fill="white"/>
<path d="M772.747 429.527C772.74 427.074 770.991 426.046 768.827 427.294L666.123 486.56C664.992 487.302 664.051 488.298 663.375 489.469C662.698 490.64 662.306 491.952 662.229 493.302L662.257 507.545C662.263 509.998 664.038 511.011 666.176 509.778L768.88 450.513C770.013 449.775 770.957 448.779 771.633 447.608C772.31 446.437 772.701 445.122 772.774 443.772L772.747 429.527ZM666.17 507.973C664.877 508.719 663.834 508.121 663.829 506.638L663.801 492.395C663.842 491.588 664.075 490.802 664.479 490.102C664.883 489.402 665.448 488.808 666.126 488.369L751.91 438.866L751.953 458.471L666.17 507.973Z" fill="#333C5E"/>
<path d="M765.856 442.454L769.803 444.695L767.963 447.88L764.021 445.631C763.345 446.486 762.521 447.212 761.587 447.773C760.325 448.5 759.07 448.676 758.109 448.129C756.187 447.034 756.18 443.446 758.086 440.139C758.912 438.643 760.108 437.384 761.56 436.481C762.822 435.754 764.083 435.578 765.042 436.125C766.651 437.035 766.916 439.68 765.856 442.454ZM764.005 443.511C765.335 441.211 765.328 438.717 763.99 437.955C763.6 437.78 763.171 437.711 762.746 437.754C762.321 437.798 761.915 437.952 761.568 438.202C760.558 438.829 759.727 439.705 759.152 440.746C757.823 443.046 757.83 445.54 759.168 446.302C759.558 446.477 759.987 446.546 760.412 446.502C760.837 446.459 761.243 446.305 761.59 446.055C762.599 445.428 763.431 444.552 764.005 443.511Z" fill="white"/>
<path d="M676.367 489.534C676.84 489.758 677.077 490.36 677.077 491.341V495.223L675.623 496.068V492.39C675.623 491.796 675.495 491.425 675.24 491.277C674.984 491.129 674.619 491.19 674.146 491.462C673.612 491.769 673.169 492.214 672.864 492.75C672.56 493.286 672.404 493.894 672.414 494.511V497.93L670.961 498.775V489.364L672.414 488.52V491.945C672.658 491.521 672.958 491.132 673.305 490.787C673.657 490.435 674.054 490.13 674.485 489.88C674.747 489.675 675.056 489.536 675.383 489.476C675.711 489.416 676.049 489.436 676.367 489.534Z" fill="#333C5E"/>
<path d="M682.659 491.613C682.481 491.872 682.273 492.108 682.037 492.317C681.799 492.53 681.54 492.719 681.264 492.88C681.045 493.055 680.788 493.177 680.513 493.235C680.239 493.293 679.955 493.287 679.683 493.215C679.311 493.043 679.125 492.584 679.125 491.84V488.58L678.102 489.173V487.904L679.125 487.31V485.762L680.578 484.918V486.466L682.241 485.502V486.77L680.578 487.735V490.956C680.578 491.286 680.652 491.495 680.801 491.582C680.949 491.671 681.161 491.633 681.441 491.471C681.765 491.284 682.044 491.027 682.257 490.719L682.659 491.613Z" fill="#333C5E"/>
<path d="M687.437 488.839C687.26 489.098 687.051 489.335 686.815 489.543C686.577 489.756 686.318 489.945 686.042 490.106C685.823 490.281 685.566 490.403 685.291 490.461C685.017 490.519 684.733 490.512 684.461 490.441C684.089 490.269 683.903 489.81 683.902 489.066V485.805L682.879 486.399V485.13L683.902 484.537V482.989L685.356 482.145V483.693L687.018 482.728V483.997L685.356 484.961V488.186C685.356 488.516 685.43 488.725 685.578 488.812C685.727 488.9 685.94 488.863 686.218 488.701C686.543 488.514 686.821 488.257 687.034 487.949L687.437 488.839Z" fill="#333C5E"/>
<path d="M693.699 479.149C693.917 479.146 694.134 479.196 694.329 479.294C694.524 479.393 694.693 479.537 694.821 479.715C695.121 480.184 695.263 480.737 695.228 481.292C695.224 481.998 695.086 482.696 694.821 483.349C694.552 484.032 694.173 484.665 693.699 485.225C693.241 485.773 692.692 486.238 692.076 486.599C691.239 487.085 690.576 487.165 690.088 486.84V490.126L688.635 490.97V481.734L690.018 480.93V481.821C690.486 480.92 691.2 480.171 692.077 479.66C692.561 479.345 693.122 479.168 693.699 479.149ZM693.233 483.986C693.569 483.432 693.749 482.798 693.753 482.151C693.753 481.516 693.58 481.105 693.233 480.916C693.017 480.828 692.781 480.798 692.549 480.83C692.317 480.862 692.098 480.955 691.914 481.099C691.554 481.31 691.235 481.583 690.971 481.906C690.691 482.243 690.467 482.624 690.308 483.033C690.148 483.434 690.066 483.862 690.064 484.294C690.043 484.636 690.128 484.977 690.308 485.269C690.382 485.377 690.481 485.466 690.596 485.528C690.712 485.59 690.84 485.623 690.971 485.625C691.306 485.621 691.633 485.522 691.914 485.339C692.465 485.012 692.92 484.545 693.233 483.986Z" fill="#333C5E"/>
<path d="M697.053 483.491C696.683 483.616 696.29 483.658 695.902 483.614L696.46 482.084C696.799 482.12 697.141 482.088 697.467 481.988C697.873 481.878 698.262 481.714 698.624 481.5C699.492 480.996 699.926 480.494 699.926 479.996C699.926 479.759 699.816 479.658 699.595 479.694C699.23 479.775 698.873 479.893 698.531 480.046C698.126 480.222 697.708 480.367 697.281 480.48C697.001 480.562 696.7 480.529 696.443 480.389C696.207 480.252 696.089 479.937 696.089 479.446C696.117 478.727 696.377 478.035 696.831 477.476C697.368 476.766 698.047 476.175 698.825 475.741C699.23 475.502 699.659 475.307 700.104 475.156C700.438 475.029 700.793 474.967 701.15 474.973L700.592 476.503C699.96 476.499 699.34 476.682 698.811 477.029C698.445 477.228 698.116 477.489 697.839 477.802C697.647 478.004 697.53 478.265 697.508 478.543C697.508 478.798 697.626 478.908 697.863 478.876C698.241 478.803 698.609 478.689 698.962 478.537C699.357 478.367 699.766 478.227 700.183 478.119C700.456 478.039 700.75 478.069 701.003 478.201C701.231 478.33 701.345 478.636 701.346 479.118C701.314 479.837 701.049 480.526 700.59 481.08C700.03 481.801 699.329 482.402 698.531 482.846C698.067 483.122 697.571 483.339 697.053 483.491Z" fill="#333C5E"/>
<path d="M702.391 475.476C702.291 475.415 702.211 475.327 702.162 475.221C702.112 475.116 702.095 474.998 702.112 474.883C702.116 474.556 702.21 474.238 702.385 473.962C702.55 473.679 702.784 473.443 703.065 473.276C703.161 473.203 703.273 473.155 703.392 473.137C703.511 473.119 703.632 473.131 703.745 473.172C703.927 473.261 704.018 473.462 704.018 473.774C704.012 474.1 703.916 474.417 703.74 474.691C703.577 474.974 703.345 475.212 703.065 475.381C702.97 475.453 702.858 475.499 702.74 475.516C702.622 475.532 702.502 475.519 702.391 475.476ZM702.391 480.309C702.291 480.248 702.211 480.16 702.162 480.054C702.112 479.949 702.095 479.831 702.112 479.716C702.116 479.39 702.21 479.071 702.385 478.796C702.55 478.513 702.784 478.276 703.065 478.109C703.161 478.036 703.273 477.988 703.392 477.97C703.511 477.952 703.632 477.964 703.745 478.005C703.927 478.095 704.018 478.295 704.018 478.608C704.013 478.934 703.916 479.251 703.74 479.525C703.577 479.808 703.345 480.046 703.065 480.215C702.97 480.286 702.858 480.332 702.74 480.349C702.622 480.365 702.502 480.352 702.391 480.309Z" fill="#333C5E"/>
<path d="M708.555 466.257L709.857 465.5L706.019 479.679L704.717 480.436L708.555 466.257Z" fill="#333C5E"/>
<path d="M712.054 464.225L713.356 463.469L709.519 477.647L708.217 478.404L712.054 464.225Z" fill="#333C5E"/>
<path opacity="0.4" d="M655 293.546V608.194C655.101 608.584 655.352 608.889 655.704 609.041L717.581 643.605C718.905 644.181 720.43 644.13 721.704 643.435L782.994 609.21C783.447 609.007 783.799 608.618 783.966 608.126H784V292.801L719.508 258L655 293.546Z" fill="url(#paint23_linear_977_5059)"/>
<defs>
<linearGradient id="paint0_linear_977_5059" x1="494.047" y1="447.472" x2="463.368" y2="558.33" gradientUnits="userSpaceOnUse">
<stop stop-color="#CAD1E0"/>
<stop offset="0.44" stop-color="white"/>
<stop offset="1" stop-color="#C8CEDE"/>
</linearGradient>
<linearGradient id="paint1_linear_977_5059" x1="504.355" y1="469.585" x2="423.154" y2="469.585" gradientUnits="userSpaceOnUse">
<stop stop-color="#CAD1E0"/>
<stop offset="0.44" stop-color="white"/>
<stop offset="1" stop-color="#C8CEDE"/>
</linearGradient>
<linearGradient id="paint2_linear_977_5059" x1="508.94" y1="480.193" x2="335.582" y2="480.193" gradientUnits="userSpaceOnUse">
<stop stop-color="white"/>
<stop offset="0.51" stop-color="#CAD1E0"/>
<stop offset="1" stop-color="#C8CEDE"/>
</linearGradient>
<linearGradient id="paint3_linear_977_5059" x1="508.398" y1="483.705" x2="336.852" y2="483.705" gradientUnits="userSpaceOnUse">
<stop stop-color="white"/>
<stop offset="0.51" stop-color="#CAD1E0"/>
<stop offset="1" stop-color="#C8CEDE"/>
</linearGradient>
<linearGradient id="paint4_linear_977_5059" x1="403.213" y1="490.039" x2="483.218" y2="406.283" gradientUnits="userSpaceOnUse">
<stop stop-color="#CDEAFF"/>
<stop offset="0.329" stop-color="#D0EBFF"/>
<stop offset="0.629" stop-color="#DBF0FF"/>
<stop offset="0.916" stop-color="#EEF8FF"/>
<stop offset="1" stop-color="#F5FBFF"/>
</linearGradient>
<linearGradient id="paint5_linear_977_5059" x1="376.282" y1="473.822" x2="413.401" y2="468.362" gradientUnits="userSpaceOnUse">
<stop stop-color="#A4CCED"/>
<stop offset="0.102" stop-color="#AAD3F0"/>
<stop offset="0.307" stop-color="#B1DAF4"/>
<stop offset="0.876" stop-color="#B3DCF5"/>
<stop offset="0.926" stop-color="#BADCFB"/>
<stop offset="1" stop-color="#BEDDFF"/>
</linearGradient>
<linearGradient id="paint6_linear_977_5059" x1="405.029" y1="421.148" x2="416.915" y2="359.813" gradientUnits="userSpaceOnUse">
<stop stop-color="#BEDDFF"/>
<stop offset="0.253" stop-color="#BADAFB"/>
<stop offset="0.483" stop-color="#AFD3F1"/>
<stop offset="0.571" stop-color="#A9D0EB"/>
<stop offset="0.602" stop-color="#ACD2EC"/>
<stop offset="0.627" stop-color="#B6D8F1"/>
<stop offset="0.651" stop-color="#C7E3F8"/>
<stop offset="0.664" stop-color="#D5ECFF"/>
<stop offset="0.78" stop-color="#D2EAFE"/>
<stop offset="0.86" stop-color="#C9E4FB"/>
<stop offset="0.928" stop-color="#B9DBF6"/>
<stop offset="0.989" stop-color="#A4CEEF"/>
<stop offset="1" stop-color="#A0CCEE"/>
</linearGradient>
<linearGradient id="paint7_linear_977_5059" x1="423.075" y1="359.002" x2="423.075" y2="506.847" gradientUnits="userSpaceOnUse">
<stop stop-color="#AADFF7" stop-opacity="0"/>
<stop offset="1" stop-color="#69A1E3"/>
</linearGradient>
<linearGradient id="paint8_linear_977_5059" x1="1091.83" y1="447.472" x2="1061.15" y2="558.33" gradientUnits="userSpaceOnUse">
<stop stop-color="#CAD1E0"/>
<stop offset="0.44" stop-color="white"/>
<stop offset="1" stop-color="#C8CEDE"/>
</linearGradient>
<linearGradient id="paint9_linear_977_5059" x1="1102.14" y1="469.585" x2="1020.94" y2="469.585" gradientUnits="userSpaceOnUse">
<stop stop-color="#CAD1E0"/>
<stop offset="0.44" stop-color="white"/>
<stop offset="1" stop-color="#C8CEDE"/>
</linearGradient>
<linearGradient id="paint10_linear_977_5059" x1="1106.73" y1="480.193" x2="933.367" y2="480.193" gradientUnits="userSpaceOnUse">
<stop stop-color="white"/>
<stop offset="0.51" stop-color="#CAD1E0"/>
<stop offset="1" stop-color="#C8CEDE"/>
</linearGradient>
<linearGradient id="paint11_linear_977_5059" x1="1106.18" y1="483.705" x2="934.637" y2="483.705" gradientUnits="userSpaceOnUse">
<stop stop-color="white"/>
<stop offset="0.51" stop-color="#CAD1E0"/>
<stop offset="1" stop-color="#C8CEDE"/>
</linearGradient>
<linearGradient id="paint12_linear_977_5059" x1="1035.64" y1="490.039" x2="955.631" y2="406.283" gradientUnits="userSpaceOnUse">
<stop stop-color="#CDEAFF"/>
<stop offset="0.329" stop-color="#D0EBFF"/>
<stop offset="0.629" stop-color="#DBF0FF"/>
<stop offset="0.916" stop-color="#EEF8FF"/>
<stop offset="1" stop-color="#F5FBFF"/>
</linearGradient>
<linearGradient id="paint13_linear_977_5059" x1="1062.57" y1="473.822" x2="1025.45" y2="468.362" gradientUnits="userSpaceOnUse">
<stop stop-color="#A4CCED"/>
<stop offset="0.102" stop-color="#AAD3F0"/>
<stop offset="0.307" stop-color="#B1DAF4"/>
<stop offset="0.876" stop-color="#B3DCF5"/>
<stop offset="0.926" stop-color="#BADCFB"/>
<stop offset="1" stop-color="#BEDDFF"/>
</linearGradient>
<linearGradient id="paint14_linear_977_5059" x1="1033.82" y1="421.148" x2="1021.93" y2="359.813" gradientUnits="userSpaceOnUse">
<stop stop-color="#BEDDFF"/>
<stop offset="0.253" stop-color="#BADAFB"/>
<stop offset="0.483" stop-color="#AFD3F1"/>
<stop offset="0.571" stop-color="#A9D0EB"/>
<stop offset="0.602" stop-color="#ACD2EC"/>
<stop offset="0.627" stop-color="#B6D8F1"/>
<stop offset="0.651" stop-color="#C7E3F8"/>
<stop offset="0.664" stop-color="#D5ECFF"/>
<stop offset="0.78" stop-color="#D2EAFE"/>
<stop offset="0.86" stop-color="#C9E4FB"/>
<stop offset="0.928" stop-color="#B9DBF6"/>
<stop offset="0.989" stop-color="#A4CEEF"/>
<stop offset="1" stop-color="#A0CCEE"/>
</linearGradient>
<linearGradient id="paint15_linear_977_5059" x1="1020.86" y1="359.002" x2="1020.86" y2="506.847" gradientUnits="userSpaceOnUse">
<stop stop-color="#AADFF7" stop-opacity="0"/>
<stop offset="1" stop-color="#69A1E3"/>
</linearGradient>
<linearGradient id="paint16_linear_977_5059" x1="864.956" y1="469.946" x2="731.701" y2="915.373" gradientUnits="userSpaceOnUse">
<stop stop-color="white"/>
<stop offset="1" stop-color="#C5CCDC"/>
</linearGradient>
<linearGradient id="paint17_linear_977_5059" x1="718.339" y1="746.034" x2="718.844" y2="606.231" gradientUnits="userSpaceOnUse">
<stop stop-color="white"/>
<stop offset="0.545" stop-color="#E7F5FF"/>
<stop offset="1" stop-color="#8BBFFF"/>
</linearGradient>
<linearGradient id="paint18_linear_977_5059" x1="807.489" y1="505.714" x2="790.731" y2="763.966" gradientUnits="userSpaceOnUse">
<stop stop-color="#30508C"/>
<stop offset="1" stop-color="#5080D3"/>
</linearGradient>
<linearGradient id="paint19_linear_977_5059" x1="926.48" y1="685.673" x2="541.117" y2="479.74" gradientUnits="userSpaceOnUse">
<stop stop-color="#30508C"/>
<stop offset="1" stop-color="#5080D3"/>
</linearGradient>
<linearGradient id="paint20_linear_977_5059" x1="830.86" y1="429.404" x2="787.108" y2="763.805" gradientUnits="userSpaceOnUse">
<stop stop-color="white"/>
<stop offset="1" stop-color="#C5CCDC"/>
</linearGradient>
<linearGradient id="paint21_linear_977_5059" x1="611.697" y1="547.044" x2="701.987" y2="459.445" gradientUnits="userSpaceOnUse">
<stop stop-color="#A0CCE0"/>
<stop offset="1" stop-color="#69A1E3"/>
</linearGradient>
<linearGradient id="paint22_linear_977_5059" x1="721.022" y1="381.09" x2="721.022" y2="585.241" gradientUnits="userSpaceOnUse">
<stop stop-color="#A0CCE0"/>
<stop offset="1" stop-color="#69A1E3"/>
</linearGradient>
<linearGradient id="paint23_linear_977_5059" x1="719.457" y1="597.073" x2="719.457" y2="372.652" gradientUnits="userSpaceOnUse">
<stop stop-color="#7F9DFF"/>
<stop offset="1" stop-color="white" stop-opacity="0"/>
</linearGradient>
</defs>
</svg>
