<svg width="1440" height="636" viewBox="0 0 1440 636" fill="none" xmlns="http://www.w3.org/2000/svg">
<g clip-path="url(#clip0_9_44062)">
<g opacity="0.71">
<path d="M62.6952 134.659L-75 71.9874L62.6952 -0.000732422L200.39 71.9874L62.6952 134.659Z" fill="#F2F6FE"/>
<path d="M200.39 71.9883V427.472L62.6953 489.904V134.658L200.39 71.9883Z" fill="url(#paint0_linear_9_44062)"/>
<path d="M-75 71.9883L62.6952 134.659V489.901L-75 409.631" fill="url(#paint1_linear_9_44062)"/>
<path d="M117.609 218.088L255.305 280.759V636.001L117.609 555.731" fill="url(#paint2_linear_9_44062)"/>
<path d="M255.305 280.758L117.609 218.087L255.305 146.099L392.997 218.087L255.305 280.758Z" fill="#F2F6FE"/>
<path d="M393 218.087V573.571L255.305 636.003V280.758L393 218.087Z" fill="url(#paint3_linear_9_44062)"/>
<path d="M117.609 218.087L255.305 280.758V636L117.609 555.73" fill="url(#paint4_linear_9_44062)"/>
</g>
</g>
<g clip-path="url(#clip1_9_44062)">
<g opacity="0.71">
<path d="M1377.3 134.659L1515 71.9874L1377.3 -0.000732422L1239.61 71.9874L1377.3 134.659Z" fill="#F2F6FE"/>
<path d="M1239.61 71.9883V427.472L1377.3 489.904V134.658L1239.61 71.9883Z" fill="url(#paint5_linear_9_44062)"/>
<path d="M1515 71.9883L1377.3 134.659V489.901L1515 409.631" fill="url(#paint6_linear_9_44062)"/>
<path d="M1322.39 218.088L1184.7 280.759V636.001L1322.39 555.731" fill="url(#paint7_linear_9_44062)"/>
<path d="M1184.7 280.758L1322.39 218.087L1184.7 146.099L1047 218.087L1184.7 280.758Z" fill="#F2F6FE"/>
<path d="M1047 218.087V573.571L1184.7 636.003V280.758L1047 218.087Z" fill="url(#paint8_linear_9_44062)"/>
<path d="M1322.39 218.087L1184.7 280.758V636L1322.39 555.73" fill="url(#paint9_linear_9_44062)"/>
</g>
</g>
<defs>
<linearGradient id="paint0_linear_9_44062" x1="124.796" y1="547.158" x2="236.104" y2="70.7977" gradientUnits="userSpaceOnUse">
<stop stop-color="white" stop-opacity="0"/>
<stop offset="1" stop-color="#E0E7FD"/>
</linearGradient>
<linearGradient id="paint1_linear_9_44062" x1="12.4365" y1="287.631" x2="-169.528" y2="271.179" gradientUnits="userSpaceOnUse">
<stop stop-color="white"/>
<stop offset="1" stop-color="#E0E7FD"/>
</linearGradient>
<linearGradient id="paint2_linear_9_44062" x1="205.046" y1="433.731" x2="23.0819" y2="417.279" gradientUnits="userSpaceOnUse">
<stop stop-color="white"/>
<stop offset="1" stop-color="#E0E7FD"/>
</linearGradient>
<linearGradient id="paint3_linear_9_44062" x1="317.405" y1="693.257" x2="428.713" y2="216.897" gradientUnits="userSpaceOnUse">
<stop stop-color="white" stop-opacity="0"/>
<stop offset="1" stop-color="#E0E7FD"/>
</linearGradient>
<linearGradient id="paint4_linear_9_44062" x1="205.046" y1="433.73" x2="23.0819" y2="417.278" gradientUnits="userSpaceOnUse">
<stop stop-color="white" stop-opacity="0"/>
<stop offset="1" stop-color="#E0E7FD"/>
</linearGradient>
<linearGradient id="paint5_linear_9_44062" x1="1315.2" y1="547.158" x2="1203.9" y2="70.7977" gradientUnits="userSpaceOnUse">
<stop stop-color="white" stop-opacity="0"/>
<stop offset="1" stop-color="#E0E7FD"/>
</linearGradient>
<linearGradient id="paint6_linear_9_44062" x1="1427.56" y1="287.631" x2="1609.53" y2="271.179" gradientUnits="userSpaceOnUse">
<stop stop-color="white"/>
<stop offset="1" stop-color="#E0E7FD"/>
</linearGradient>
<linearGradient id="paint7_linear_9_44062" x1="1234.95" y1="433.731" x2="1416.92" y2="417.279" gradientUnits="userSpaceOnUse">
<stop stop-color="white"/>
<stop offset="1" stop-color="#E0E7FD"/>
</linearGradient>
<linearGradient id="paint8_linear_9_44062" x1="1122.59" y1="693.257" x2="1011.29" y2="216.897" gradientUnits="userSpaceOnUse">
<stop stop-color="white" stop-opacity="0"/>
<stop offset="1" stop-color="#E0E7FD"/>
</linearGradient>
<linearGradient id="paint9_linear_9_44062" x1="1234.95" y1="433.73" x2="1416.92" y2="417.278" gradientUnits="userSpaceOnUse">
<stop stop-color="white" stop-opacity="0"/>
<stop offset="1" stop-color="#E0E7FD"/>
</linearGradient>
<clipPath id="clip0_9_44062">
<rect width="468" height="636" fill="white" transform="translate(-75)"/>
</clipPath>
<clipPath id="clip1_9_44062">
<rect width="468" height="636" fill="white" transform="matrix(-1 0 0 1 1515 0)"/>
</clipPath>
</defs>
</svg>
