      <svg width="1121" height="358" viewBox="0 0 1121 358" fill="none" xmlns="http://www.w3.org/2000/svg">
        <rect x="1" y="65" width="1120" height="293" fill="#333C5E"/>
        <path d="M775.474 346.226L1011.7 209.574C1016.09 207.042 1019.73 203.401 1022.26 199.016C1024.79 194.63 1026.12 189.656 1026.12 184.593L1025.56 44.8667L750.028 187.623V323.793C750.014 325.982 750.509 328.146 751.474 330.111C752.439 332.077 753.848 333.792 755.589 335.12C759.922 338.449 775.474 346.226 775.474 346.226Z" fill="url(#paint0_linear_0_1)"/>
        <path d="M1030.12 54.2416L1026.99 9.93665C1026.99 9.93665 1011.79 3.51965 1006.99 1.31765C1004.92 0.354376 1002.65 -0.0923046 1000.36 0.0158467C998.082 0.123998 995.859 0.78376 993.887 1.93865L764.422 134.421C760.037 136.952 756.396 140.594 753.864 144.979C751.333 149.364 750 154.338 750 159.402L750.029 187.623L768.729 197.146L1030.12 54.2416Z" fill="url(#paint1_linear_0_1)"/>
        <path d="M768.734 196.945V334.091C768.732 336.603 769.391 339.072 770.646 341.249C771.902 343.425 773.708 345.233 775.884 346.489C778.06 347.745 780.528 348.406 783.041 348.405C785.553 348.404 788.021 347.741 790.196 346.483L1019.67 213.998C1024.05 211.467 1027.69 207.825 1030.22 203.441C1032.75 199.056 1034.09 194.083 1034.08 189.02V43.5039L768.734 196.945Z" fill="url(#paint2_linear_0_1)"/>
        <path d="M768.734 167.363V197.144L1034.08 44.0627V22.2937C1034.09 19.7819 1033.42 17.3143 1032.17 15.1389C1030.91 12.9634 1029.11 11.1569 1026.93 9.9009C1024.76 8.64491 1022.29 7.98375 1019.78 7.98389C1017.27 7.98402 1014.8 8.64546 1012.62 9.90168L783.159 142.387C778.774 144.918 775.133 148.558 772.601 152.942C770.069 157.326 768.735 162.3 768.734 167.363Z" fill="url(#paint3_linear_0_1)"/>
        <path d="M1018.95 23.7605C1018.86 25.313 1018.41 26.8238 1017.63 28.1701C1016.86 29.5165 1015.77 30.6606 1014.47 31.5095C1012 32.9355 1010 31.7795 1010 28.9265C1010.08 27.374 1010.53 25.8631 1011.31 24.5165C1012.08 23.1699 1013.17 22.0257 1014.47 21.1765C1016.94 19.7515 1018.95 20.9075 1018.95 23.7605Z" fill="url(#paint4_linear_0_1)"/>
        <path d="M1003.44 32.6484C1003.36 34.2007 1002.91 35.7114 1002.13 37.0578C1001.35 38.4042 1000.27 39.5483 998.968 40.3974C996.497 41.8244 994.494 40.6674 994.494 37.8144C994.578 36.262 995.027 34.7513 995.805 33.4049C996.582 32.0585 997.666 30.9144 998.968 30.0654C1001.44 28.6394 1003.44 29.7954 1003.44 32.6484Z" fill="url(#paint5_linear_0_1)"/>
        <path d="M987.936 41.5367C987.852 43.0891 987.403 44.5998 986.626 45.9462C985.849 47.2926 984.765 48.4367 983.462 49.2857C980.991 50.7117 978.988 49.5557 978.988 46.7027C979.072 45.1502 979.521 43.6393 980.299 42.2927C981.076 40.9461 982.16 39.8018 983.462 38.9527C985.932 37.5267 987.936 38.6817 987.936 41.5367Z" fill="url(#paint6_linear_0_1)"/>
        <path d="M947.616 82.8865L789.292 174.294C786.559 175.871 784.344 174.935 784.344 172.203C784.344 169.471 786.559 165.977 789.292 164.403L947.616 72.9955C950.348 71.4185 952.564 72.3545 952.564 75.0865C952.564 77.8185 950.349 81.3085 947.616 82.8865Z" fill="url(#paint7_linear_0_1)"/>
        <path d="M1028.71 190.279L1024.59 192.656V75.8565L1028.71 73.4785V190.279Z" fill="#F8F9FD"/>
        <path d="M1028.51 130.999L1025.47 132.757C1025.31 132.848 1025.13 132.896 1024.95 132.897C1024.76 132.897 1024.58 132.849 1024.43 132.758C1024.27 132.667 1024.14 132.535 1024.04 132.377C1023.95 132.219 1023.9 132.04 1023.9 131.857V87.8867C1023.9 87.5314 1024 87.1823 1024.17 86.8746C1024.35 86.5669 1024.61 86.3114 1024.91 86.1337L1027.96 84.3767C1028.12 84.2852 1028.3 84.237 1028.48 84.2368C1028.66 84.2366 1028.84 84.2845 1029 84.3756C1029.16 84.4668 1029.29 84.598 1029.38 84.7561C1029.47 84.9143 1029.52 85.0938 1029.52 85.2767V129.242C1029.53 129.598 1029.43 129.948 1029.25 130.256C1029.08 130.565 1028.82 130.821 1028.51 130.999Z" fill="url(#paint8_linear_0_1)"/>
        <path d="M998 140.804L875.594 211.44V190.156L997.994 119.521L998 140.804Z" fill="white"/>
        <path d="M998 169.81L875.594 240.446V219.162L997.994 148.527L998 169.81Z" fill="white"/>
        <path d="M998 199.41L875.594 270.045V248.762L997.994 178.127L998 199.41Z" fill="white"/>
        <path d="M933.272 127.287V148.57L875.598 181.84V160.558L933.272 127.287Z" fill="white"/>
        <path d="M936.941 125.082L997.994 89.9209V111.2L936.941 146.365V125.082Z" fill="white"/>
        <path d="M998 199.41L875.594 270.045V268.08L997.994 197.445L998 199.41Z" fill="#AFB6E5"/>
        <path d="M936.941 144.399L997.994 109.239V111.204L936.941 146.364V144.399Z" fill="#AFB6E5"/>
        <path d="M998 169.81L875.594 240.446V238.481L997.994 167.845L998 169.81Z" fill="#AFB6E5"/>
        <path d="M933.272 148.57L875.598 181.84V179.875L933.271 146.605L933.272 148.57Z" fill="#AFB6E5"/>
        <path d="M998 140.804L875.594 211.44V209.475L997.994 138.839L998 140.804Z" fill="#AFB6E5"/>
        <path d="M990.494 272.566L990.508 277.902C990.473 278.312 990.545 278.725 990.715 279.1C990.886 279.475 991.15 279.799 991.483 280.043C982.236 274.157 983.039 277.743 983.048 268.243L990.494 272.566Z" fill="#3D9AFF"/>
        <path d="M1030.44 191.513C1030.78 191.271 1031.18 191.123 1031.6 191.082C1032.02 191.041 1032.44 191.109 1032.82 191.28L1040.26 195.606C1039.88 195.435 1039.46 195.367 1039.04 195.408C1038.63 195.449 1038.23 195.597 1037.89 195.839L1033.25 198.519L1025.8 194.193L1030.44 191.513Z" fill="#3D9AFF"/>
        <path d="M983.307 254.851C982.591 254.645 975.445 250.351 974.613 249.907C978.991 252.458 984.445 251.374 988.748 249.188C995.972 245.5 1001.55 239.164 1005.64 232.259C1009.65 225.305 1012.44 217.34 1012.15 209.23C1011.97 204.316 1010.24 198.898 1005.77 196.303C1008.14 198.003 1014.65 200.774 1016.25 203.274C1019.89 207.974 1020.05 214.386 1019.2 220.04C1017.11 231.796 1010.9 242.421 1001.67 250.001C996.622 253.934 989.705 257.38 983.307 254.851Z" fill="#3D9AFF"/>
        <path d="M955.682 272.611C955.547 270.17 958.908 265.765 959.928 263.667L967.372 267.993C966.243 270.598 960.945 276.514 964.11 279.093L956.666 274.767C956.572 274.713 956.485 274.649 956.405 274.578C956.153 274.319 955.958 274.01 955.833 273.671C955.709 273.332 955.657 272.971 955.682 272.611Z" fill="#3D9AFF"/>
        <path d="M1013.43 170.999C1014.29 169.579 1015.67 168.02 1017.46 168.062C1017.64 167.808 1025.3 172.489 1025.59 172.6C1021.73 171.2 1019.31 178.692 1017.6 181L1010.15 176.674L1013.43 170.999Z" fill="#3D9AFF"/>
        <path d="M954.985 253.805C954.832 253.215 954.696 252.619 954.576 252.017L962.021 256.343C962.769 260.623 964.613 264.636 967.373 267.992C966.9 267.643 959.173 263.509 959.299 262.898C957.25 260.197 955.782 257.101 954.985 253.805Z" fill="#3D9AFF"/>
        <path d="M997.33 177.968C1001.08 176.592 1005.09 176.092 1009.06 176.506C1009.72 176.079 1016.95 180.719 1017.6 180.999C1013.28 180.329 1008.87 180.777 1004.78 182.299L997.33 177.968Z" fill="#3D9AFF"/>
        <path d="M946.562 243.632C946.918 238.726 950.98 237.506 954.529 235.34L961.974 239.666C959.06 241.474 955.215 242.739 954.259 246.48C953.769 247.41 954.112 255.946 954.03 257.115C953.995 257.525 954.066 257.938 954.237 258.313C954.408 258.688 954.672 259.012 955.004 259.256C943.817 252.597 947.074 256.675 946.562 243.632Z" fill="#3D9AFF"/>
        <path d="M982.802 180.861C982.88 179.824 983.175 178.815 983.668 177.901C984.162 176.986 984.842 176.185 985.666 175.551C986.577 175.014 993.921 170.591 994.884 170.34C995.371 170.199 995.893 170.253 996.341 170.491L1003.79 174.817C1003.4 174.646 1002.98 174.578 1002.57 174.619C1002.15 174.659 1001.75 174.808 1001.41 175.049C1000.38 175.749 992.877 179.696 992.266 180.636C989.522 183.336 990.36 187.27 990.261 190.675L982.816 186.349C982.821 186.181 982.795 181.018 982.802 180.861Z" fill="#3D9AFF"/>
        <path d="M966.045 224.817C964.168 229.609 962.802 234.586 961.973 239.666L954.527 235.34C955.54 229.218 957.31 223.245 959.796 217.56L967.242 221.886C966.824 222.855 966.425 223.832 966.045 224.817Z" fill="#3D9AFF"/>
        <path d="M970.027 199.841C973.718 194.833 978.014 190.301 982.817 186.348L990.261 190.674C985.458 194.627 981.162 199.159 977.471 204.167L970.027 199.841Z" fill="#3D9AFF"/>
        <path d="M957.33 242.347C952.553 244.861 954.303 252.862 954.03 257.116C954.224 262.316 959.963 257.255 962.02 256.344C962.758 260.627 964.603 264.643 967.372 267.994C966.187 270.425 960.933 277.094 964.111 279.094L969.671 282.263C973.542 283.653 975.919 276.222 977.671 273.863C981.986 274.542 986.404 274.094 990.495 272.563L990.51 277.899C990.516 280.018 992.016 280.872 993.859 279.808L1001.7 275.282C1005.68 273.004 1005.04 268.012 1005.01 264.182C1009.81 260.23 1014.11 255.698 1017.8 250.691L1021.1 252.568C1022.93 253.392 1024.8 251.557 1025.82 249.843C1026.86 247 1035.02 237.396 1031.33 234.85L1028.03 232.971C1030.52 227.285 1032.28 221.312 1033.3 215.19C1036.6 213.311 1041.32 211.284 1041.27 206.747L1041.24 197.741C1041.24 195.622 1039.74 194.768 1037.89 195.832L1033.25 198.512C1032.51 194.23 1030.66 190.215 1027.9 186.863C1029.08 184.431 1034.34 177.763 1031.16 175.763L1025.6 172.594C1021.73 171.202 1019.35 178.637 1017.6 180.994C1013.29 180.314 1008.87 180.762 1004.78 182.294L1004.76 176.958C1004.76 174.839 1003.26 173.985 1001.42 175.049L993.578 179.575C989.598 181.853 990.236 186.845 990.266 190.675C985.462 194.627 981.166 199.159 977.476 204.168L974.176 202.289C972.344 201.464 970.476 203.301 969.455 205.014C968.415 207.857 960.255 217.459 963.946 220.007L967.246 221.887C964.758 227.572 962.988 233.545 961.977 239.668L957.33 242.347ZM997.703 252.702C985.558 259.714 975.68 254.082 975.641 240.127C975.602 226.172 985.415 209.173 997.56 202.161C1009.71 195.149 1019.59 200.778 1019.62 214.733C1019.66 228.688 1009.85 245.689 997.703 252.702Z" fill="url(#paint9_linear_0_1)"/>
        <path d="M955.513 213.535C955.549 212.377 955.883 211.248 956.482 210.256C957.73 208.45 962.065 199.6 963.906 198.501C964.278 198.155 964.74 197.922 965.239 197.826C965.738 197.731 966.253 197.778 966.727 197.962C968.908 199.162 975.227 202.88 977.468 204.162C974.241 202.422 972.947 200.548 969.987 204.197C969.555 204.716 964.114 214.263 963.704 214.99C962.982 216.48 962.336 218.877 963.942 220.001L956.497 215.675C956.403 215.621 956.316 215.557 956.236 215.485C955.986 215.228 955.793 214.922 955.668 214.586C955.543 214.251 955.491 213.892 955.513 213.535Z" fill="#3D9AFF"/>
        <path d="M1046.41 162.651C1046.55 163.525 1046.01 166.212 1046.95 166.751C1042.01 163.58 1042.29 165.53 1042.33 160.285L1046.41 162.651Z" fill="#3D9AFF"/>
        <path d="M1068.29 118.25C1068.48 118.117 1068.7 118.036 1068.93 118.014C1069.15 117.991 1069.38 118.028 1069.59 118.122L1073.67 120.492C1073.46 120.398 1073.23 120.361 1073 120.383C1072.78 120.406 1072.56 120.487 1072.37 120.619L1069.83 122.087L1065.75 119.717L1068.29 118.25Z" fill="#3D9AFF"/>
        <path d="M1042.47 152.946C1042.08 152.833 1038.17 150.483 1037.71 150.238C1044.31 153.532 1051.67 145.838 1054.7 140.571C1057.83 135.313 1060.95 125.016 1054.78 120.871C1059.36 123.504 1062.05 124.384 1062.35 130.35C1062.46 137.764 1058.59 144.99 1053.1 149.825C1050.24 152.214 1046.23 154.414 1042.47 152.946Z" fill="#3D9AFF"/>
        <path d="M1027.34 162.674C1027.27 161.337 1029.11 158.924 1029.67 157.774L1033.75 160.144C1033.12 161.63 1030.23 164.72 1031.96 166.223C1031.83 166.135 1027.88 163.876 1027.77 163.775C1027.62 163.635 1027.51 163.463 1027.43 163.273C1027.36 163.082 1027.33 162.878 1027.34 162.674Z" fill="#3D9AFF"/>
        <path d="M1058.97 107.014C1059.46 106.22 1060.26 105.307 1061.27 105.419C1061.37 105.436 1061.47 105.47 1061.56 105.519L1065.63 107.889C1063.47 107.158 1062.23 111.201 1061.26 112.489L1057.18 110.119L1058.97 107.014Z" fill="#3D9AFF"/>
        <path d="M1026.96 152.374C1026.88 152.05 1026.8 151.724 1026.73 151.394L1030.81 153.764C1031.22 156.108 1032.23 158.307 1033.74 160.146L1029.67 157.776C1028.36 156.208 1027.43 154.359 1026.96 152.374Z" fill="#3D9AFF"/>
        <path d="M1050.16 110.831C1052.25 110.058 1054.5 109.79 1056.73 110.048C1056.79 109.782 1061.1 112.423 1061.26 112.491C1058.9 112.123 1056.48 112.368 1054.23 113.201L1050.16 110.831Z" fill="#3D9AFF"/>
        <path d="M1022.35 146.801C1022.47 144.222 1024.83 143.373 1026.71 142.259L1030.79 144.629C1029.2 145.571 1026.86 146.496 1026.51 148.571C1026.34 148.838 1026.46 153.765 1026.44 154.187C1026.42 154.411 1026.46 154.637 1026.55 154.843C1026.64 155.048 1026.79 155.226 1026.97 155.359C1020.84 151.76 1022.62 153.801 1022.35 146.801Z" fill="#3D9AFF"/>
        <path d="M1042.2 112.417C1042.24 111.798 1042.43 111.197 1042.75 110.664C1043.06 110.13 1043.5 109.677 1044.02 109.342C1044.22 109.248 1048.76 106.542 1048.82 106.653C1049.42 106.253 1053.15 108.923 1053.7 109.105C1053.49 109.011 1053.26 108.974 1053.03 108.996C1052.8 109.018 1052.58 109.1 1052.4 109.232C1052.02 109.479 1047.72 111.844 1047.55 112.132C1045.93 113.467 1046.3 115.964 1046.29 117.796L1042.21 115.426C1042.21 115.331 1042.19 112.502 1042.2 112.417Z" fill="#3D9AFF"/>
        <path d="M1033.02 136.49C1031.99 139.115 1031.24 141.841 1030.79 144.624L1026.71 142.254C1027.27 138.9 1028.23 135.628 1029.6 132.514L1033.68 134.884C1033.45 135.421 1033.23 135.956 1033.02 136.49Z" fill="#3D9AFF"/>
        <path d="M1035.2 122.817C1037.22 120.074 1039.57 117.591 1042.21 115.426L1046.28 117.796C1043.65 119.961 1041.3 122.444 1039.28 125.187L1035.2 122.817Z" fill="#3D9AFF"/>
        <path d="M1028.25 146.096C1025.63 147.473 1026.59 151.856 1026.44 154.186C1026.54 157.035 1029.69 154.262 1030.81 153.763C1031.22 156.11 1032.23 158.31 1033.75 160.145C1033.1 161.477 1030.22 165.129 1031.96 166.224L1035.01 167.96C1037.16 168.711 1038.41 164.66 1039.39 163.36C1041.75 163.733 1044.17 163.488 1046.41 162.649L1046.42 165.572C1046.42 166.733 1047.24 167.201 1048.25 166.618L1052.55 164.139C1054.73 162.891 1054.38 160.157 1054.36 158.059C1056.99 155.895 1059.35 153.413 1061.37 150.669C1063.37 151.83 1064.13 152.641 1065.76 150.205C1066.33 148.648 1070.8 143.387 1068.78 141.992L1066.97 140.963C1068.33 137.849 1069.3 134.577 1069.86 131.223C1071.67 130.194 1074.25 129.083 1074.22 126.598L1074.21 121.665C1074.21 120.504 1073.38 120.036 1072.37 120.619L1069.83 122.087C1069.42 119.742 1068.41 117.543 1066.9 115.706C1067.55 114.374 1070.43 110.721 1068.68 109.626L1065.64 107.89C1063.49 107.137 1062.24 111.19 1061.26 112.49C1058.9 112.117 1056.48 112.362 1054.23 113.2L1054.23 110.277C1054.23 109.116 1053.4 108.648 1052.39 109.231L1048.1 111.71C1045.92 112.958 1046.27 115.692 1046.28 117.79C1043.65 119.955 1041.3 122.438 1039.28 125.181C1037.28 124.019 1036.52 123.208 1034.89 125.645C1034.32 127.202 1029.85 132.462 1031.87 133.858L1033.67 134.888C1032.31 138.003 1031.34 141.275 1030.79 144.628L1028.25 146.096ZM1050.36 151.768C1043.71 155.609 1038.3 152.524 1038.28 144.88C1038.25 137.236 1043.63 127.924 1050.28 124.08C1056.94 120.236 1062.35 123.322 1062.37 130.967C1062.39 138.612 1057.01 147.924 1050.36 151.767V151.768Z" fill="url(#paint10_linear_0_1)"/>
        <path d="M1027.25 130.313C1027.12 128.913 1030.25 124.513 1030.81 123.275C1031.14 122.671 1031.63 122.174 1032.23 121.842C1032.39 121.754 1032.56 121.697 1032.73 121.677C1032.91 121.656 1033.09 121.671 1033.26 121.721C1033.46 121.773 1035.02 122.737 1035.2 122.812L1039.28 125.182C1037.55 124.222 1036.73 123.225 1035.17 125.216C1035.12 125.186 1031.97 130.723 1031.86 130.887C1031.39 131.74 1030.92 133.173 1031.87 133.859L1027.79 131.489C1027.61 131.356 1027.46 131.178 1027.37 130.972C1027.27 130.766 1027.23 130.539 1027.25 130.313Z" fill="#3D9AFF"/>
        <path d="M876.58 116.387L918.644 174.203L898.144 186.039L856.08 128.224L876.58 116.387Z" fill="white"/>
        <path d="M918.642 174.204C918.663 180.731 914.08 188.637 908.425 191.904C902.77 195.171 898.162 192.573 898.141 186.043L918.642 174.204Z" fill="#EAF7FE"/>
        <path d="M938.538 81.6089L980.144 138.695L959.644 150.531L917.58 92.7149L938.538 81.6089Z" fill="#FFE06A"/>
        <path d="M980.147 138.693C980.165 144.859 976.078 152.247 970.865 155.801C970.557 156.011 970.245 156.207 969.93 156.393C964.275 159.656 959.664 157.058 959.646 150.532L980.147 138.693Z" fill="#F8D44D"/>
        <path d="M917.584 92.7148L959.646 150.534L939.146 162.37L897.084 104.551L917.584 92.7148Z" fill="white"/>
        <path d="M959.649 150.531C959.666 157.058 955.083 164.964 949.432 168.231C943.781 171.498 939.166 168.9 939.148 162.37L959.649 150.531Z" fill="#EAF7FE"/>
        <path d="M897.081 104.551L939.145 162.366L918.645 174.202L876.58 116.39L897.081 104.551Z" fill="#FFE06A"/>
        <path d="M939.145 162.366C939.163 168.896 934.579 176.799 928.928 180.066C923.277 183.333 918.662 180.735 918.641 174.208L939.145 162.366Z" fill="#F8D44D"/>
        <path d="M856.08 128.224L898.144 186.039L877.644 197.875L835.58 140.06L856.08 128.224Z" fill="#FFE06A"/>
        <path d="M898.141 186.039C898.162 192.569 893.579 200.472 887.924 203.739C882.269 207.006 877.661 204.408 877.641 197.881L898.141 186.039Z" fill="#F8D44D"/>
        <path d="M835.578 140.058L877.642 197.873L857.142 209.709L815.078 151.894L835.578 140.058Z" fill="white"/>
        <path d="M877.642 197.877C877.663 204.404 873.08 212.31 867.425 215.577C861.77 218.844 857.159 216.246 857.141 209.716L877.642 197.877Z" fill="#EAF7FE"/>
        <path d="M815.076 151.896L857.14 209.713L836.64 221.549L795.033 164.464L815.076 151.896Z" fill="#FFE06A"/>
        <path d="M857.142 209.716C857.16 216.246 852.608 224.131 846.925 227.416C846.61 227.598 846.298 227.759 845.99 227.906C840.773 230.375 836.659 227.72 836.641 221.555L857.142 209.716Z" fill="#F8D44D"/>
        <g clip-path="url(#clip0_0_1)">
        <path d="M106.424 171.575H93.7238V183.985H84.3048V171.575H71.6758V162.675H84.3048V150.265H93.7218V162.675H106.422L106.424 171.575Z" fill="#B0D7F1"/>
        <path d="M83.3 116.1H52.85V145.85H30.275V116.1H0V94.75H30.275V65H52.85V94.75H83.3V116.1Z" fill="#69A1E3"/>
        </g>
        <defs>
        <linearGradient id="paint0_linear_0_1" x1="1026.12" y1="195.546" x2="750.027" y2="195.546" gradientUnits="userSpaceOnUse">
        <stop stop-color="white"/>
        <stop offset="0.506" stop-color="#CAD1E0"/>
        <stop offset="1" stop-color="#C8CEDE"/>
        </linearGradient>
        <linearGradient id="paint1_linear_0_1" x1="2097.09" y1="209.369" x2="1930.29" y2="11.9542" gradientUnits="userSpaceOnUse">
        <stop stop-color="#AADFF7"/>
        <stop offset="1" stop-color="#69A1E3"/>
        </linearGradient>
        <linearGradient id="paint2_linear_0_1" x1="731.585" y1="110.582" x2="1342.45" y2="335.989" gradientUnits="userSpaceOnUse">
        <stop stop-color="white"/>
        <stop offset="0.506" stop-color="#CAD1E0"/>
        <stop offset="1" stop-color="#C8CEDE"/>
        </linearGradient>
        <linearGradient id="paint3_linear_0_1" x1="1034.08" y1="102.564" x2="768.734" y2="102.564" gradientUnits="userSpaceOnUse">
        <stop stop-color="#AADFF7"/>
        <stop offset="1" stop-color="#69A1E3"/>
        </linearGradient>
        <linearGradient id="paint4_linear_0_1" x1="1140.69" y1="26.0545" x2="955.676" y2="26.311" gradientUnits="userSpaceOnUse">
        <stop stop-color="#AADFF7"/>
        <stop offset="1" stop-color="#69A1E3"/>
        </linearGradient>
        <linearGradient id="paint5_linear_0_1" x1="1140.7" y1="34.9081" x2="955.704" y2="35.1645" gradientUnits="userSpaceOnUse">
        <stop stop-color="#AADFF7"/>
        <stop offset="1" stop-color="#69A1E3"/>
        </linearGradient>
        <linearGradient id="paint6_linear_0_1" x1="1140.71" y1="43.7609" x2="955.723" y2="44.0173" gradientUnits="userSpaceOnUse">
        <stop stop-color="#AADFF7"/>
        <stop offset="1" stop-color="#69A1E3"/>
        </linearGradient>
        <linearGradient id="paint7_linear_0_1" x1="1170.24" y1="125.187" x2="1006.24" y2="122.986" gradientUnits="userSpaceOnUse">
        <stop stop-color="#AADFF7"/>
        <stop offset="1" stop-color="#69A1E3"/>
        </linearGradient>
        <linearGradient id="paint8_linear_0_1" x1="1029.52" y1="108.567" x2="1023.9" y2="108.567" gradientUnits="userSpaceOnUse">
        <stop stop-color="#FFE06A"/>
        <stop offset="1" stop-color="#FFCC00"/>
        </linearGradient>
        <linearGradient id="paint9_linear_0_1" x1="1039.35" y1="117.085" x2="947.698" y2="269.937" gradientUnits="userSpaceOnUse">
        <stop stop-color="#A6DEFF"/>
        <stop offset="0.996" stop-color="#3D9AFF"/>
        </linearGradient>
        <linearGradient id="paint10_linear_0_1" x1="1078.76" y1="72.4284" x2="1018.79" y2="159.486" gradientUnits="userSpaceOnUse">
        <stop stop-color="#A6DEFF"/>
        <stop offset="0.996" stop-color="#3D9AFF"/>
        </linearGradient>
        <clipPath id="clip0_0_1">
        <rect width="106.424" height="118.988" fill="white" transform="translate(0 65)"/>
        </clipPath>
        </defs>
        </svg>
        