<svg width="78" height="74" viewBox="0 0 78 74" fill="none" xmlns="http://www.w3.org/2000/svg">
<g clip-path="url(#clip0_9_44841)">
<mask id="mask0_9_44841" style="mask-type:luminance" maskUnits="userSpaceOnUse" x="0" y="0" width="78" height="74">
<path d="M78 0H0V74H78V0Z" fill="white"/>
</mask>
<g mask="url(#mask0_9_44841)">
<path fill-rule="evenodd" clip-rule="evenodd" d="M46.9081 33.8863C46.8555 34.411 46.641 34.7895 46.2031 35.0862L58.2749 41.9374C58.7084 41.6407 58.9273 41.2536 58.9798 40.7375V33.7272L46.9081 26.876V33.8863ZM58.866 54.4572L46.7942 47.6059C46.8774 47.7608 46.8906 47.8038 46.9125 47.9844V55.0206L58.9842 61.8718V54.8356C58.9623 54.6507 58.9623 54.612 58.866 54.4572Z" fill="#035BE8"/>
<path fill-rule="evenodd" clip-rule="evenodd" d="M47.1609 34.9572L58.2037 41.2192C58.3044 41.0687 58.37 40.9053 58.3919 40.6859V34.0669L47.4937 27.8953V33.9379C47.4586 34.3207 47.3404 34.6605 47.1609 34.9572ZM58.2737 42.5224C58.173 42.5224 58.0723 42.4966 57.9716 42.4449L45.8999 35.5937C45.7335 35.4948 45.6152 35.3099 45.5977 35.112C45.5977 34.9142 45.6984 34.7207 45.8648 34.6088C46.1494 34.4153 46.272 34.196 46.2983 33.8605V26.876C46.2983 26.6738 46.4165 26.4717 46.6004 26.3685C46.7887 26.2652 47.0076 26.2652 47.1872 26.3685L59.2764 33.2197C59.4647 33.3229 59.5654 33.5164 59.5654 33.7272V40.7375C59.5129 41.473 59.1932 42.0278 58.6065 42.4191C58.5058 42.4837 58.3876 42.5224 58.2737 42.5224ZM47.4937 54.6808L58.3919 60.8525V54.8657L47.4937 48.6854V54.6808ZM58.9787 62.4524C58.878 62.4524 58.7773 62.4266 58.6765 62.375L46.6048 55.5238C46.4165 55.4205 46.3027 55.2313 46.3027 55.0206V47.9844C46.1494 47.7565 46.1713 47.4253 46.3727 47.2318C46.5566 47.0382 46.8456 46.9651 47.0777 47.0984L59.1494 53.9497C59.237 53.9927 59.3027 54.0572 59.3509 54.1389C59.5348 54.3926 59.5523 54.5432 59.5698 54.7625V61.8718C59.5698 62.0825 59.4691 62.2717 59.2808 62.375C59.1801 62.4309 59.0838 62.4524 58.9831 62.4524H58.9787Z" fill="#035BE8"/>
<path fill-rule="evenodd" clip-rule="evenodd" d="M77.4094 37.3485L65.3333 30.5015L46.9082 26.876L58.98 33.7272L77.4094 37.3485Z" fill="#035BE8"/>
<path fill-rule="evenodd" clip-rule="evenodd" d="M59.1976 33.1677L73.9753 36.075L65.1174 31.0517L50.3397 28.1486L59.1976 33.1677ZM77.4081 37.933C77.3731 37.933 77.3205 37.9287 77.2899 37.9244L58.8604 34.2988C58.7904 34.2902 58.7378 34.2644 58.6722 34.2343L46.6004 27.3831C46.3465 27.2368 46.2326 26.9401 46.3333 26.6734C46.4516 26.4025 46.7186 26.2519 47.0208 26.3035L65.4502 29.9291C65.5027 29.9377 65.5684 29.9635 65.6166 29.9937L77.7058 36.8449C77.9598 36.9911 78.0605 37.2879 77.9598 37.5545C77.881 37.7824 77.6402 37.933 77.4081 37.933Z" fill="#035BE8"/>
<path fill-rule="evenodd" clip-rule="evenodd" d="M58.2754 41.9372L46.2037 35.0859L13.3994 53.687C12.4711 54.259 11.972 54.8525 11.3984 55.7514L23.4701 62.6026C24.0437 61.6951 24.5429 61.1102 25.4711 60.5382L58.2754 41.9328V41.9372Z" fill="#035BE8"/>
<path fill-rule="evenodd" clip-rule="evenodd" d="M12.233 55.554L23.2802 61.8203C23.7531 61.1364 24.2872 60.5773 25.1454 60.044L57.074 41.9332L46.1976 35.7616L13.6867 54.1949C13.0255 54.6035 12.6271 55.0164 12.2374 55.554H12.233ZM23.4641 63.1922C23.3634 63.1922 23.267 63.1621 23.1795 63.1148L11.0902 56.2636C10.9545 56.1819 10.8538 56.0529 10.8187 55.9023C10.7749 55.7475 10.8056 55.5884 10.8888 55.4507C11.4624 54.5476 12.0141 53.8594 13.0737 53.2014L45.8955 34.5874C46.0794 34.4799 46.294 34.4842 46.4823 34.5831L58.5715 41.4343C58.7598 41.5376 58.8736 41.7311 58.8736 41.9418C58.8736 42.1526 58.7554 42.3461 58.5715 42.4493L25.7716 61.0504C24.9134 61.5794 24.4755 62.1127 23.9895 62.917C23.8713 63.0976 23.6699 63.1965 23.4684 63.1965L23.4641 63.1922Z" fill="#035BE8"/>
<path fill-rule="evenodd" clip-rule="evenodd" d="M23.4652 62.6071L11.3935 55.7559C10.8724 56.6978 10.6229 57.4203 10.5703 58.4869V64.5855C10.601 65.2865 10.6885 65.7553 11.2096 66.2542L23.2989 73.1054C22.7603 72.6065 22.6771 72.1334 22.6421 71.4367V65.3381C22.699 64.2672 22.9661 63.5447 23.4696 62.6114L23.4652 62.6071Z" fill="#035BE8"/>
<path fill-rule="evenodd" clip-rule="evenodd" d="M11.6462 56.5728C11.3616 57.1577 11.1908 57.7168 11.1602 58.5167V64.5895C11.1908 65.2045 11.2609 65.497 11.6331 65.841L22.0716 71.7461C22.0497 71.6515 22.0497 71.5611 22.0497 71.4708V65.3421C22.0847 64.3142 22.3212 63.5788 22.6933 62.8391L11.6462 56.5771V56.5728ZM23.2976 73.6943C23.1794 73.6943 23.0787 73.6685 22.9955 73.6169L10.9237 66.7657C10.1049 66.0131 9.99982 65.3206 9.96484 64.6196V58.4909C10.0349 57.2394 10.3501 56.4136 10.8712 55.4846C10.9369 55.347 11.0726 55.2395 11.2259 55.1965C11.3922 55.1578 11.5674 55.175 11.6987 55.2567L23.7705 62.1036C24.0244 62.2541 24.1383 62.5595 24.0244 62.8305C23.5384 63.7207 23.2845 64.3573 23.2494 65.3679V71.4407C23.2713 72.06 23.3501 72.3482 23.7004 72.6922C23.9237 72.8944 23.9544 73.2255 23.7705 73.4621C23.6523 73.6169 23.4684 73.6943 23.2976 73.6943Z" fill="#035BE8"/>
<path fill-rule="evenodd" clip-rule="evenodd" d="M52.5394 0.958999L19.7351 19.5644C19.4811 19.6676 19.3454 19.7149 19.1484 19.5428L31.2201 26.3941C31.439 26.5618 31.5704 26.5188 31.8068 26.4156L64.6068 7.81022C65.4475 7.37584 65.9335 7.26831 66.7742 7.74141L54.5273 0.769763C53.7873 0.425697 53.2312 0.606332 52.5394 0.958999Z" fill="#EFF3FA"/>
<path fill-rule="evenodd" clip-rule="evenodd" d="M20.6442 19.7235L31.5206 25.8866L64.3118 7.30274C64.4081 7.25973 64.4957 7.20812 64.5964 7.16941L54.2236 1.27728C53.8382 1.09235 53.4967 1.13106 52.8312 1.47512L20.6442 19.7235ZM31.49 27.0908C31.2886 27.0908 31.0696 27.0306 30.8507 26.8413L19.0636 20.1751C18.976 20.1407 18.8622 20.0762 18.7615 19.9944C18.5294 19.8009 18.4768 19.4568 18.6651 19.2074C18.8315 18.9536 19.1818 18.8805 19.4358 19.031H19.4489L52.2401 0.451524C52.2401 0.451524 52.2532 0.447224 52.2532 0.438622C52.9406 0.0945562 53.7463 -0.236608 54.7709 0.240784L67.0834 7.23393C67.3681 7.39736 67.4688 7.75433 67.3024 8.03388C67.136 8.31773 66.7638 8.40375 66.4967 8.24892H66.4748C65.8881 7.90916 65.6166 7.95647 64.8766 8.33064L32.0898 26.9231C31.9366 26.9919 31.7352 27.0908 31.4856 27.0908H31.49Z" fill="#035BE8"/>
<path fill-rule="evenodd" clip-rule="evenodd" d="M31.1008 19.0007L19.0247 12.1538L0.599609 36.6728L12.6713 43.524L31.1008 19.0007Z" fill="#EFF3FA"/>
<path fill-rule="evenodd" clip-rule="evenodd" d="M1.47576 36.5009L12.5054 42.7586L30.2299 19.1858L19.1827 12.9238L1.47576 36.5009ZM12.6718 44.1134C12.5711 44.1134 12.4704 44.0876 12.374 44.0316L0.3023 37.1804C0.14905 37.0987 0.0483422 36.9568 0.0133136 36.7977C-0.0173364 36.6342 0.0133136 36.4622 0.114021 36.3289L18.5391 11.8056C18.7274 11.5647 19.0601 11.4959 19.3141 11.6464L31.4033 18.4976C31.5391 18.5837 31.6573 18.7213 31.6923 18.8847C31.723 19.0439 31.6704 19.2202 31.5697 19.3535L13.1403 43.8725C13.0221 44.0273 12.8557 44.1091 12.6674 44.1091L12.6718 44.1134Z" fill="#035BE8"/>
<path fill-rule="evenodd" clip-rule="evenodd" d="M31.8111 38.9137L64.6111 20.304C65.3861 19.8653 66.091 19.1041 66.6121 18.2396C67.1156 17.3665 67.4309 16.3945 67.4309 15.5086V9.41C67.4309 7.64667 66.1523 6.93273 64.6067 7.8101L31.8068 26.4155C31.4214 26.6348 31.0974 26.4542 31.0974 26.0155V19.0008L12.668 43.5242L31.0974 47.1411V40.105C31.0974 39.6663 31.4214 39.1287 31.8068 38.9094L31.8111 38.9137Z" fill="white"/>
<path fill-rule="evenodd" clip-rule="evenodd" d="M13.7137 43.1284L30.4968 46.4228V40.1049C30.4968 39.4598 30.9346 38.7243 31.5038 38.4018L64.3125 19.7964C64.9649 19.4222 65.6217 18.7513 66.0902 17.9384C66.5631 17.1299 66.8302 16.2439 66.8302 15.4999V9.40132C66.8302 8.77339 66.6463 8.30891 66.3092 8.11537C65.9764 7.92613 65.4685 7.99494 64.9168 8.30891L32.0949 26.9143C31.7228 27.1293 31.3418 27.1422 31.0003 26.9573C30.6807 26.7766 30.4968 26.4283 30.4968 26.0068V20.7727L13.7137 43.1198V43.1284ZM31.0966 47.7303C31.066 47.7303 31.0134 47.726 30.9784 47.7174L12.549 44.1047C12.3476 44.066 12.1812 43.924 12.1155 43.7391C12.0498 43.5499 12.063 43.3391 12.1812 43.18L30.6106 18.6567C30.777 18.4545 31.0485 18.3685 31.2849 18.4459C31.517 18.5277 31.6921 18.7513 31.6921 18.9964V25.7918L64.3125 7.29821C65.2495 6.76061 66.1778 6.6961 66.9003 7.10898C67.6184 7.51755 68.0256 8.33471 68.0256 9.40562V15.5042C68.0256 16.459 67.7015 17.5299 67.1148 18.5277C66.5281 19.5298 65.7575 20.3383 64.9168 20.8114L32.0949 39.4125C31.8935 39.5329 31.6965 39.8727 31.6965 40.1049V47.141C31.6965 47.3174 31.6264 47.4808 31.4732 47.5926C31.3725 47.6787 31.2411 47.726 31.101 47.726L31.0966 47.7303Z" fill="#035BE8"/>
<path fill-rule="evenodd" clip-rule="evenodd" d="M25.4692 73.0409L58.2735 54.4355C58.6588 54.2119 58.9784 54.3924 58.9784 54.8354V61.8717L77.4079 37.3526L58.9784 33.7271V40.7374C58.9784 41.1804 58.6588 41.718 58.2735 41.9374L25.4692 60.5427C24.6985 60.9857 23.9892 61.7427 23.4682 62.6071C22.9646 63.4759 22.6406 64.4521 22.6406 65.338V71.4366C22.6406 72.3227 22.9646 72.942 23.4682 73.2302C23.9892 73.5183 24.6985 73.4796 25.4692 73.0409Z" fill="#EFF3FA"/>
<path fill-rule="evenodd" clip-rule="evenodd" d="M59.5665 34.4455V40.7376C59.5665 41.387 59.1461 42.1225 58.5725 42.445L25.7726 61.0461C25.1158 61.4203 24.459 62.0912 23.9905 62.8998C23.5176 63.7126 23.2505 64.5986 23.2505 65.3383V71.4369C23.2505 72.0648 23.4388 72.5336 23.7716 72.7229C24.1043 72.9164 24.6123 72.8476 25.164 72.5336L57.9683 53.9326C58.3536 53.7175 58.7389 53.7046 59.0585 53.8809C59.4001 54.0616 59.5665 54.4099 59.5665 54.8357V60.087L76.3627 37.7399L59.5665 34.4455ZM24.2051 74.0002C23.8373 74.0002 23.4826 73.9099 23.1805 73.7379C22.4405 73.325 22.0508 72.5078 22.0508 71.4369V65.3383C22.0508 64.3836 22.3748 63.3127 22.9615 62.3149C23.5351 61.3171 24.3233 60.5085 25.1596 60.0311L57.9639 41.4257C58.1828 41.3096 58.3842 40.9699 58.3842 40.7333V33.723C58.3842 33.5509 58.4499 33.3789 58.6032 33.2714C58.7345 33.1639 58.9228 33.1209 59.0892 33.151L77.5186 36.7723C77.72 36.811 77.8864 36.9443 77.9565 37.1335C78.0265 37.3185 78.009 37.5335 77.8777 37.6926L59.4657 62.2116C59.2994 62.4138 59.0279 62.5041 58.7914 62.4224C58.5419 62.345 58.393 62.117 58.393 61.8719V55.0551L25.7726 73.5486C25.2296 73.854 24.6998 74.0002 24.2051 74.0002Z" fill="#035BE8"/>
</g>
</g>
<defs>
<clipPath id="clip0_9_44841">
<rect width="78" height="74" fill="white"/>
</clipPath>
</defs>
</svg>
