<svg width="65" height="75" viewBox="0 0 65 75" fill="none" xmlns="http://www.w3.org/2000/svg">
<g clip-path="url(#clip0_9_44585)">
<mask id="mask0_9_44585" style="mask-type:luminance" maskUnits="userSpaceOnUse" x="0" y="0" width="65" height="75">
<path d="M65 0H0V75H65V0Z" fill="white"/>
</mask>
<g mask="url(#mask0_9_44585)">
<path fill-rule="evenodd" clip-rule="evenodd" d="M64.4315 20.7212L53.2177 14.2979L46.8691 15.611L58.085 22.0343L64.4315 20.7212Z" fill="#035BE8"/>
<path fill-rule="evenodd" clip-rule="evenodd" d="M48.4388 15.8583L58.1818 21.4406L62.8664 20.4676L53.1234 14.8895L48.4388 15.8583ZM58.0863 22.5971C57.9907 22.5971 57.8931 22.5682 57.8079 22.5208L46.592 16.0974C46.3905 15.9779 46.2804 15.7491 46.3178 15.5203C46.3572 15.2914 46.5297 15.11 46.7603 15.0626L53.1026 13.7454C53.2335 13.7207 53.381 13.7413 53.5014 13.8114L64.7174 20.2347C64.9189 20.3501 65.0248 20.5789 64.9916 20.8078C64.9521 21.0366 64.7755 21.2221 64.5491 21.2716L58.2005 22.5847C58.1673 22.595 58.1237 22.5991 58.0842 22.5991L58.0863 22.5971Z" fill="#035BE8"/>
<path fill-rule="evenodd" clip-rule="evenodd" d="M53.6987 6.98192L42.4848 0.558594L36.5684 7.44574L47.7781 13.8732L53.6987 6.98192Z" fill="#035BE8"/>
<path fill-rule="evenodd" clip-rule="evenodd" d="M37.4395 7.29734L47.6583 13.1517L52.829 7.13036L42.6102 1.2801L37.4395 7.29734ZM47.7788 14.4319C47.6874 14.4319 47.5856 14.4071 47.5004 14.3556L36.2845 7.93225C36.1411 7.85185 36.0393 7.70756 36.0103 7.54058C35.9812 7.37773 36.029 7.21076 36.1349 7.08295L42.0576 0.195806C42.23 -0.0103347 42.5333 -0.0618697 42.7639 0.0762442L53.9798 6.49545C54.1294 6.58203 54.2291 6.72427 54.2582 6.88712C54.2831 7.05409 54.2395 7.22107 54.1273 7.35093L48.2109 14.236C48.1008 14.3638 47.9408 14.4319 47.7788 14.4319Z" fill="#035BE8"/>
<path fill-rule="evenodd" clip-rule="evenodd" d="M47.7782 13.8728L36.5685 7.44531L33.2031 7.77926L44.417 14.2026L47.7782 13.8728Z" fill="#035BE8"/>
<path fill-rule="evenodd" clip-rule="evenodd" d="M35.0096 8.16099L44.5408 13.6258L45.9742 13.4835L36.443 8.02494L35.0096 8.16305V8.16099ZM44.4161 14.7657C44.3143 14.7657 44.2188 14.7369 44.1315 14.6895L32.9156 8.262C32.7037 8.14244 32.5936 7.89919 32.6455 7.66007C32.6975 7.42095 32.9011 7.24573 33.142 7.22099L36.5074 6.88705C36.6279 6.87674 36.7484 6.90148 36.844 6.95919L48.0599 13.3866C48.2759 13.5062 48.3819 13.7536 48.33 13.9886C48.278 14.2277 48.0807 14.4091 47.8355 14.4277L44.4681 14.7616C44.4535 14.7616 44.4348 14.7657 44.4161 14.7657Z" fill="#035BE8"/>
<path fill-rule="evenodd" clip-rule="evenodd" d="M42.3946 8.09519L31.1787 1.67188L22.6094 6.57594L33.8232 12.9993L42.3946 8.09519Z" fill="#EFF3FA"/>
<path fill-rule="evenodd" clip-rule="evenodd" d="M23.7423 6.57581L33.8219 12.356L41.2611 8.09506L31.1773 2.31489L23.7423 6.57581ZM33.8219 13.5619C33.7201 13.5619 33.6245 13.533 33.5373 13.4856L22.3276 7.0623C22.1489 6.96129 22.043 6.77576 22.043 6.57581C22.043 6.37585 22.1489 6.19033 22.3276 6.08932L30.8969 1.18318C31.0651 1.08217 31.2812 1.08217 31.4536 1.18318L42.6695 7.60651C42.8482 7.70752 42.9542 7.89304 42.9542 8.093C42.9542 8.29295 42.8482 8.47436 42.6695 8.57537L34.1002 13.4856C34.013 13.533 33.9174 13.5619 33.8219 13.5619Z" fill="#035BE8"/>
<path fill-rule="evenodd" clip-rule="evenodd" d="M33.8213 12.9995L22.6075 6.57617L20.582 15.0052L31.7979 21.4327L33.8213 12.9995Z" fill="#035BE8"/>
<path fill-rule="evenodd" clip-rule="evenodd" d="M21.2336 14.7324L31.4232 20.5683L33.1745 13.2771L22.9827 7.43507L21.2336 14.7324ZM31.7992 21.9906C31.7037 21.9906 31.6019 21.9659 31.5146 21.9185L20.2987 15.491C20.0827 15.3715 19.9726 15.12 20.0349 14.8747L22.0604 6.44766C22.104 6.27656 22.2245 6.13226 22.3865 6.06218C22.5444 5.99621 22.7376 6.00446 22.8913 6.09104L34.101 12.5185C34.3171 12.6422 34.4272 12.8916 34.3711 13.1287L32.3477 21.5619C32.3041 21.733 32.1836 21.8773 32.0257 21.9494C31.953 21.9783 31.8761 21.9927 31.7992 21.9927V21.9906Z" fill="#035BE8"/>
<path fill-rule="evenodd" clip-rule="evenodd" d="M31.8001 21.4323L20.5842 15.0049L17.2188 18.5319L28.4326 24.9553L31.8001 21.4323Z" fill="#EFF3FA"/>
<path fill-rule="evenodd" clip-rule="evenodd" d="M18.1208 18.4017L28.325 24.2479L30.8927 21.5619L20.6822 15.7157L18.1187 18.4017H18.1208ZM28.431 25.5177C28.3354 25.5177 28.2378 25.4929 28.1464 25.4414L16.9367 19.0181C16.7871 18.9315 16.6811 18.7851 16.6583 18.612C16.6334 18.445 16.6874 18.2739 16.8079 18.1502L20.1733 14.6232C20.3519 14.4315 20.6407 14.3944 20.8671 14.5222L32.083 20.9455C32.2326 21.0321 32.3323 21.1846 32.3573 21.3516C32.3822 21.5186 32.3282 21.6958 32.2077 21.8154L28.8464 25.3425C28.7363 25.4579 28.5868 25.5197 28.433 25.5197L28.431 25.5177Z" fill="#035BE8"/>
<path fill-rule="evenodd" clip-rule="evenodd" d="M28.4311 24.9552L17.2172 18.5319L11.3008 18.4268L22.5167 24.8501L28.4311 24.9552Z" fill="#035BE8"/>
<path fill-rule="evenodd" clip-rule="evenodd" d="M22.6708 24.2917L26.2543 24.3536L17.0638 19.0908L13.4865 19.0289L22.6708 24.2917ZM28.4335 25.5182H28.4231L22.5025 25.4131C22.4111 25.409 22.3155 25.3843 22.2324 25.3327L11.0227 18.9094C10.7963 18.7857 10.6904 18.5218 10.7589 18.2745C10.8254 18.0312 11.0518 17.8643 11.3032 17.8643H11.3177L17.2321 17.9735C17.3277 17.9735 17.4191 18.0024 17.5022 18.0498L28.7181 24.4731C28.9383 24.5968 29.0505 24.8586 28.9819 25.108C28.9092 25.3513 28.689 25.5182 28.4335 25.5182Z" fill="#035BE8"/>
<path fill-rule="evenodd" clip-rule="evenodd" d="M22.5173 24.8501L11.3014 18.4268L5.25195 28.8203L16.472 35.2437L22.5173 24.8501Z" fill="#EFF3FA"/>
<path fill-rule="evenodd" clip-rule="evenodd" d="M6.02626 28.6147L16.2596 34.4794L21.7419 25.0547L11.5085 19.19L6.02626 28.6147ZM16.4715 35.8069C16.3697 35.8069 16.2741 35.7822 16.1889 35.7307L4.97302 29.3073C4.70295 29.1507 4.61155 28.8105 4.76735 28.5384L10.8168 18.1448C10.8895 18.017 11.0141 17.9201 11.1575 17.8872C11.3008 17.8439 11.4545 17.8624 11.5854 17.9387L22.8013 24.362C23.0652 24.5146 23.1628 24.8588 23.0028 25.1309L16.9576 35.5245C16.8807 35.6544 16.7602 35.7492 16.6169 35.7863C16.5649 35.7966 16.5151 35.8049 16.4735 35.8049L16.4715 35.8069Z" fill="#035BE8"/>
<path fill-rule="evenodd" clip-rule="evenodd" d="M16.472 35.2436L5.25195 28.8203L8.3099 33.8501L6.9118 38.5027L18.1256 44.9261L19.5217 40.2735L16.472 35.2436Z" fill="#035BE8"/>
<path fill-rule="evenodd" clip-rule="evenodd" d="M7.57867 38.2391L17.7891 44.0853L18.9089 40.3541L16.0566 35.6583L6.86612 30.3955L8.7898 33.5597C8.87082 33.6937 8.89575 33.8607 8.84797 34.0071L7.57867 38.2391ZM18.1257 45.4891C18.0239 45.4891 17.9283 45.4602 17.8411 45.4128L6.63138 38.9895C6.40494 38.8617 6.29484 38.5937 6.3717 38.3443L7.69501 33.9246L4.77002 29.1092C4.63499 28.8907 4.66823 28.6083 4.85104 28.4269C5.02969 28.2413 5.31222 28.2022 5.5345 28.332L16.7504 34.7554C16.8314 34.8028 16.9042 34.8687 16.9519 34.9553L20.0057 39.981C20.0826 40.1191 20.1075 40.282 20.0639 40.4345L18.6699 45.0871C18.618 45.25 18.4975 45.3819 18.3334 45.4437C18.2711 45.4726 18.1984 45.487 18.1257 45.487V45.4891Z" fill="#035BE8"/>
<path fill-rule="evenodd" clip-rule="evenodd" d="M18.1266 44.9263L6.91277 38.5029L0.568359 44.4583L11.7843 50.8858L18.1266 44.9263Z" fill="#EFF3FA"/>
<path fill-rule="evenodd" clip-rule="evenodd" d="M1.50706 44.3488L11.6968 50.1887L17.1894 45.0352L6.99972 39.1994L1.50706 44.3488ZM11.784 51.4441C11.6885 51.4441 11.5867 51.4194 11.4994 51.3678L0.285538 44.9445C0.13181 44.8579 0.0258616 44.7013 0.0071649 44.524C-0.0115317 44.3467 0.0507905 44.1756 0.17959 44.0519L6.52815 38.0965C6.71096 37.9254 6.97895 37.8966 7.19708 38.0203L18.413 44.4395C18.5667 44.5302 18.6727 44.6868 18.6872 44.8641C18.7122 45.0352 18.6498 45.2166 18.519 45.3362L12.1704 51.2916C12.0645 51.3926 11.9253 51.4441 11.7861 51.4441H11.784Z" fill="#035BE8"/>
<path fill-rule="evenodd" clip-rule="evenodd" d="M11.7843 50.8855L0.568359 44.458V54.2785L7.50898 58.2529L5.25292 64.5464L16.473 70.9697L19.5226 62.4417L18.1287 59.3826L11.7864 55.7462V50.8834L11.7843 50.8855Z" fill="#035BE8"/>
<path fill-rule="evenodd" clip-rule="evenodd" d="M5.94359 64.2954L16.1624 70.1518L18.9087 62.4731L17.6872 59.7871L11.4986 56.2374C11.3261 56.1425 11.216 55.957 11.216 55.7509V51.2075L1.13023 45.4336V53.9575L7.7904 57.7711C8.02515 57.905 8.1311 58.1916 8.03969 58.4431L5.94359 64.2995V64.2954ZM16.4698 71.535C16.368 71.535 16.2725 71.5062 16.1873 71.4588L4.97136 65.0354C4.73661 64.8973 4.63066 64.6149 4.72207 64.3572L6.81402 58.507L0.282652 54.7614C0.110227 54.6604 -0.00195312 54.479 -0.00195312 54.279V44.4585C-0.00195312 44.2627 0.108149 44.073 0.282652 43.9761C0.461309 43.8751 0.671127 43.8751 0.845629 43.9761L12.0657 50.3995C12.2381 50.5005 12.3441 50.686 12.3441 50.886V55.4293L18.408 58.9028C18.5098 58.9605 18.5908 59.0512 18.6386 59.1563L20.0326 62.2154C20.0907 62.3432 20.099 62.4958 20.0513 62.6298L16.9975 71.1619C16.9455 71.3145 16.8188 71.4381 16.6609 71.4959C16.5986 71.5206 16.5321 71.535 16.4677 71.535H16.4698Z" fill="#035BE8"/>
<path fill-rule="evenodd" clip-rule="evenodd" d="M31.7979 67.2204L20.582 60.793L22.6075 66.9071L33.8213 73.3304L31.7979 67.2204Z" fill="#035BE8"/>
<path fill-rule="evenodd" clip-rule="evenodd" d="M23.0786 66.5298L32.8217 72.108L31.3259 67.5977L21.5829 62.0133L23.0786 66.5278V66.5298ZM33.823 73.8932C33.7212 73.8932 33.6256 73.8643 33.5384 73.8169L22.3287 67.3894C22.204 67.3235 22.1168 67.2122 22.069 67.0844L20.0435 60.9702C19.9708 60.7517 20.0435 60.5085 20.2264 60.3601C20.4092 60.2178 20.6585 60.1931 20.8662 60.3127L32.0821 66.736C32.2026 66.8019 32.294 66.9174 32.3376 67.0452L34.3569 73.1531C34.4337 73.3778 34.361 73.6169 34.1782 73.7633C34.0723 73.8499 33.9476 73.8932 33.823 73.8932Z" fill="#035BE8"/>
<path fill-rule="evenodd" clip-rule="evenodd" d="M34.2804 47.2882L23.0645 40.8649C23.7376 41.2132 24.3442 41.2998 25.1045 41.1658C27.5724 40.7412 29.7745 38.2366 30.915 36.1401C31.9724 34.188 32.8574 31.2051 31.9101 29.0778C31.6359 28.4635 31.2848 28.0615 30.7218 27.709L41.9377 34.1323C44.0151 35.3836 43.6599 38.5602 43.0201 40.5124C42.1309 43.219 39.8562 46.4162 37.0766 47.3933C36.2435 47.684 35.3025 47.7706 34.484 47.3933L34.2825 47.2882H34.2804Z" fill="#035BE8"/>
<path fill-rule="evenodd" clip-rule="evenodd" d="M34.5549 46.8L34.7419 46.8949C35.4689 47.2288 36.3103 47.0618 36.8878 46.8619C39.4472 45.9652 41.6388 42.8957 42.4802 40.3334C43.1429 38.3235 43.3174 35.619 41.643 34.6068L32.6499 29.4575C33.3043 31.6817 32.4775 34.444 31.4097 36.4003C30.29 38.4678 28.1149 41.0157 25.5576 41.6403L34.5549 46.798V46.8ZM35.6808 48.208C35.2197 48.208 34.7232 48.1214 34.2433 47.9029L34.0231 47.7895C34.0231 47.7895 34.0085 47.7792 33.9981 47.7751L22.7822 41.3517C22.5184 41.1992 22.4208 40.8653 22.5703 40.5973C22.7199 40.3252 23.0564 40.2262 23.3307 40.3685C23.8791 40.655 24.3694 40.721 25.0092 40.6158C27.1697 40.2448 29.2804 37.9628 30.4188 35.8725C31.4055 34.0503 32.2552 31.2385 31.3952 29.3008C31.1687 28.7957 30.8945 28.4803 30.4188 28.1794C30.1591 28.0165 30.0781 27.6743 30.2401 27.4167C30.398 27.1549 30.7408 27.0724 31.0046 27.2208L42.2143 33.6442C44.4703 34.9985 44.3831 38.1689 43.5563 40.6839C42.6526 43.4235 40.301 46.8536 37.2617 47.9235C36.8296 48.0719 36.275 48.21 35.6788 48.21L35.6808 48.208Z" fill="#035BE8"/>
<path fill-rule="evenodd" clip-rule="evenodd" d="M41.9365 42.9065C39.8196 46.5387 36.3919 48.4991 34.2813 47.287C32.1706 46.0749 32.1706 42.1479 34.2813 38.5157C36.3919 34.8835 39.8217 32.919 41.9365 34.1311C44.0472 35.3432 44.0472 39.2702 41.9365 42.9065ZM56.6965 41.146L58.0863 36.4935L64.4348 30.5381V20.7217L58.0863 22.0348L56.6965 18.9757L59.7461 10.4476C57.7311 9.29325 55.716 8.13681 53.7009 6.98242L47.7803 13.8737L44.419 14.2035L42.3956 8.09558C39.5392 9.73233 36.6765 11.365 33.8263 13.0017L31.8009 21.4349L28.4355 24.9578L22.519 24.8527C20.4998 28.3179 18.4847 31.7811 16.4737 35.2463L19.5234 40.2761L18.1294 44.9287L11.7871 50.8882V60.7005L18.1294 59.3874L19.5234 62.4465L16.4737 70.9745C18.4847 72.1289 20.5039 73.2833 22.519 74.4398L28.4355 67.5526L31.8009 67.2228L33.8263 73.3307C36.6786 71.694 39.5392 70.0572 42.3956 68.4205L44.419 59.9934L47.7803 56.4664L53.7009 56.5756C55.716 53.1063 57.7311 49.6473 59.7461 46.1779L56.6965 41.1481V41.146Z" fill="#EFF3FA"/>
<path fill-rule="evenodd" clip-rule="evenodd" d="M40.5228 34.3302C39.883 34.3302 39.158 34.5549 38.3914 34.994C37.0266 35.7732 35.7427 37.1276 34.7705 38.7973C33.7941 40.467 33.2602 42.2522 33.2602 43.8086C33.2602 45.2598 33.7214 46.3235 34.5627 46.8058C35.3999 47.282 36.5591 47.1501 37.8222 46.4245C39.1829 45.6473 40.473 44.2971 41.4431 42.6253C43.3626 39.3229 43.4582 35.6536 41.6488 34.6168C41.3164 34.425 40.9362 34.3302 40.5187 34.3302H40.5228ZM35.6887 48.2076C35.0779 48.2076 34.5067 48.0654 33.9956 47.7726C32.7928 47.0862 32.1239 45.6782 32.1239 43.8065C32.1239 42.0543 32.7159 40.0754 33.7879 38.2325C34.8598 36.3896 36.2932 34.8971 37.8222 34.019C39.453 33.0872 41.011 32.9553 42.2138 33.6417C44.6382 35.0311 44.7296 39.2199 42.4195 43.1819C41.3517 45.0248 39.9183 46.5172 38.3893 47.3954C37.4462 47.9334 36.528 48.2055 35.6866 48.2055L35.6887 48.2076ZM17.1582 70.7181L20.0521 62.6292C20.0998 62.4952 20.0915 62.3426 20.0334 62.2148L18.6394 59.1557C18.5335 58.9166 18.2738 58.7785 18.01 58.8403L12.3449 60.0091V51.1245L18.5148 45.3361C18.5875 45.2701 18.6394 45.1835 18.6685 45.0887L20.0624 40.4361C20.1061 40.2836 20.0811 40.1207 20.0043 39.9826L17.1229 35.2393L22.8358 25.4188L28.4199 25.5198H28.4302C28.584 25.5198 28.7335 25.458 28.8436 25.3425L32.2049 21.8155C32.2714 21.7495 32.3191 21.6588 32.3441 21.5619L34.3114 13.3678L42.0684 8.9255L43.8758 14.3759C43.9568 14.6294 44.204 14.7902 44.4678 14.7613L47.8353 14.4274C47.9786 14.4171 48.1137 14.347 48.2092 14.2357L53.8224 7.70309L59.0554 10.7004L56.1595 18.7893C56.1117 18.9274 56.1158 19.0759 56.174 19.2098L57.568 22.269C57.6781 22.5081 57.9294 22.64 58.1974 22.5844L63.8625 21.4155V30.2961L57.6968 36.0886C57.624 36.1546 57.5659 36.2411 57.543 36.336L56.1491 40.9886C56.1013 41.1411 56.1242 41.304 56.2073 41.4379L59.0865 46.1854L53.3737 56.0059L47.7896 55.9007C47.5777 55.9049 47.478 55.9626 47.3658 56.078L43.9983 59.6051C43.936 59.6772 43.882 59.7618 43.8591 59.8586L41.8918 68.0568L34.1348 72.4992L32.3316 67.0447C32.2444 66.7973 31.9951 66.62 31.7354 66.6633L28.3742 66.9931C28.2246 67.0076 28.0895 67.0735 27.9981 67.189L22.3871 73.7174L17.1541 70.7202L17.1582 70.7181ZM22.5159 74.9996C22.4203 74.9996 22.3227 74.9708 22.2313 74.9234L16.186 71.4581C15.9513 71.32 15.8391 71.0376 15.9367 70.7861L18.9095 62.4725L17.7981 60.0297L11.8982 61.2521C11.7404 61.2851 11.5575 61.2418 11.4267 61.1367C11.2916 61.0316 11.2148 60.8687 11.2148 60.6976V50.8853C11.2148 50.7287 11.2812 50.5844 11.3934 50.4751L17.6256 44.6249L18.9095 40.3536L15.9803 35.5341C15.8744 35.3568 15.8744 35.1424 15.9803 34.961L22.0256 24.5674C22.1274 24.3963 22.3144 24.285 22.5159 24.285H22.5262L28.1913 24.3901L31.2825 21.1537L33.2685 12.869C33.3059 12.7205 33.4036 12.5927 33.5386 12.5165L42.1079 7.60621C42.2512 7.51963 42.434 7.5052 42.594 7.56704C42.7477 7.62888 42.8786 7.75875 42.9264 7.91542L44.8106 13.5987L47.4988 13.3307L53.2656 6.61673C53.4443 6.41059 53.7455 6.35906 53.9761 6.49305L60.0255 9.96239C60.2603 10.0964 60.3662 10.3767 60.2748 10.6344L57.2979 18.948L58.4135 21.3908L64.3154 20.1684C64.4795 20.1292 64.6562 20.1725 64.7869 20.2818C64.9221 20.3869 64.9988 20.5498 64.9988 20.7167V30.5331C64.9988 30.6857 64.9324 30.8341 64.816 30.9392L58.5838 36.7957L57.3041 41.0669L60.227 45.8864C60.333 46.0637 60.333 46.2781 60.2312 46.4554L54.1818 56.8531C54.08 57.0304 53.9553 57.1396 53.6853 57.1355L48.016 57.0304L44.929 60.2668L42.9389 68.5474C42.8994 68.7 42.8038 68.8299 42.6688 68.9041L34.0995 73.8143C33.9561 73.8947 33.7733 73.9092 33.6175 73.8535C33.4596 73.7917 33.3329 73.6618 33.281 73.5051L31.4009 67.8218L28.7128 68.0836L22.9417 74.8038C22.8316 74.9275 22.6717 74.9996 22.5138 74.9996H22.5159Z" fill="#035BE8"/>
<path fill-rule="evenodd" clip-rule="evenodd" d="M41.9369 42.906C39.82 46.5382 36.3923 48.4986 34.2817 47.2865C32.171 46.0744 32.171 42.1474 34.2817 38.5152C36.3923 34.883 39.8221 32.9185 41.9369 34.1306C44.0476 35.3427 44.0476 39.2697 41.9369 42.906ZM48.809 46.8433C54.7254 36.6826 54.7254 25.6974 48.809 22.3147C42.8988 18.9257 33.3136 24.4194 27.4034 34.58C21.4931 44.7407 21.4931 55.7197 27.4034 59.1086C33.3136 62.4976 42.8988 57.0039 48.809 46.8433Z" fill="white"/>
<path fill-rule="evenodd" clip-rule="evenodd" d="M40.5215 34.3305C39.8816 34.3305 39.1566 34.5552 38.3901 34.9943C37.0252 35.7735 35.7414 37.1278 34.7691 38.7976C33.7928 40.4673 33.2589 42.2525 33.2589 43.8088C33.2589 45.2601 33.72 46.3237 34.5614 46.8061C35.3986 47.2823 36.5578 47.1504 37.8208 46.4248C39.1815 45.6476 40.4716 44.2974 41.4418 42.6256C43.3613 39.3232 43.4569 35.6539 41.6474 34.617C41.315 34.4253 40.9349 34.3305 40.5173 34.3305H40.5215ZM35.6873 48.2079C35.0766 48.2079 34.5053 48.0656 33.9943 47.7729C32.7914 47.0865 32.1225 45.6785 32.1225 43.8068C32.1225 42.0546 32.7146 40.0756 33.7865 38.2327C34.8585 36.3898 36.2919 34.8974 37.8208 34.0192C39.4516 33.0875 41.0097 32.9556 42.2125 33.642C44.6368 35.0314 44.7282 39.2202 42.4181 43.1822C41.3504 45.0251 39.9169 46.5175 38.388 47.3957C37.4448 47.9337 36.5266 48.2058 35.6853 48.2058L35.6873 48.2079ZM44.8487 21.8652C46.1803 21.8652 47.4226 22.1662 48.5278 22.8011C51.2014 24.3327 52.6785 27.6165 52.6785 32.0403C52.6785 36.4641 51.1308 41.733 48.3221 46.5629C42.576 56.437 33.317 61.8482 27.6852 58.6221C22.0533 55.396 22.1447 44.7344 27.8929 34.8623C32.5089 26.9218 39.4018 21.8673 44.8487 21.8673V21.8652ZM31.2916 60.6526C29.7854 60.6526 28.377 60.3083 27.118 59.593C20.9481 56.0515 20.8567 44.7097 26.9103 34.2955C32.9701 23.8833 42.925 18.2887 49.0908 21.826C52.1363 23.5679 53.8086 27.1939 53.8086 32.0382C53.8086 36.8825 52.2069 42.1267 49.2985 47.1236C44.4748 55.4125 37.1789 60.6526 31.2936 60.6526H31.2916Z" fill="#035BE8"/>
<path fill-rule="evenodd" clip-rule="evenodd" d="M41.9373 42.9061C44.0479 39.2697 44.0479 35.3428 41.9373 34.1307C39.8204 32.9186 36.3927 34.8851 34.2821 38.5153C32.1714 42.1475 32.1714 46.0744 34.2821 47.2865C36.3927 48.4986 39.8225 46.5382 41.9373 42.9061ZM29.9818 36.0539C34.469 28.3422 41.7503 24.172 46.2375 26.7385C50.7247 29.3111 50.7247 37.6515 46.2375 45.3694C41.7503 53.0811 34.469 57.2514 29.9818 54.6808C25.4905 52.1082 25.4905 43.7657 29.9818 36.056V36.0539Z" fill="#EFF3FA"/>
<path fill-rule="evenodd" clip-rule="evenodd" d="M40.5224 34.3307C39.8825 34.3307 39.1575 34.5554 38.391 34.9945C37.0261 35.7737 35.7423 37.128 34.77 38.7977C33.7936 40.4675 33.2598 42.2527 33.2598 43.809C33.2598 45.2602 33.7209 46.3239 34.5623 46.8063C35.3995 47.2825 36.5587 47.1505 37.8217 46.4249C39.1824 45.6478 40.4725 44.2976 41.4427 42.6258C43.3622 39.3234 43.4577 35.6541 41.6483 34.6172C41.3159 34.4255 40.9358 34.3307 40.5182 34.3307H40.5224ZM35.6882 48.208C35.0775 48.208 34.5062 48.0658 33.9952 47.7731C32.7923 47.0866 32.1234 45.6787 32.1234 43.8069C32.1234 42.0548 32.7155 40.0758 33.7874 38.2329C34.8594 36.39 36.2928 34.8976 37.8217 34.0194C39.4525 33.0877 41.0106 32.9557 42.2134 33.6422C44.6377 35.0316 44.7291 39.2203 42.419 43.1823C41.3513 45.0252 39.9178 46.5177 38.3889 47.3958C37.4457 47.9339 36.5275 48.206 35.6862 48.206L35.6882 48.208ZM43.2188 26.5345C44.2056 26.5345 45.1321 26.7591 45.9506 27.2271C50.1636 29.641 50.0681 37.6537 45.7429 45.0891C41.4157 52.5246 34.4709 56.6083 30.2579 54.1944C28.2719 53.0544 27.175 50.6055 27.175 47.2948C27.175 43.9842 28.3446 39.983 30.4656 36.3385C33.9515 30.3542 39.1326 26.5365 43.2188 26.5365V26.5345ZM32.9232 55.9878C31.7599 55.9878 30.6672 55.7198 29.6949 55.1673C27.3391 53.8171 26.0449 51.026 26.0449 47.2928C26.0449 43.5596 27.2664 39.5914 29.4893 35.7737C34.126 27.8043 41.773 23.5372 46.5178 26.2582C51.2646 28.9772 51.3602 37.6784 46.7255 45.6478C43.036 51.9907 37.4478 55.9898 32.9232 55.9898V55.9878Z" fill="#035BE8"/>
<path fill-rule="evenodd" clip-rule="evenodd" d="M11.782 61.2606C11.6864 61.2606 11.5909 61.2358 11.4974 61.1884L0.283563 54.7651C0.0135007 54.6084 -0.0779053 54.2642 0.0779003 53.9962C0.231628 53.7241 0.582711 53.6375 0.846541 53.7921L12.0666 60.2154C12.3367 60.368 12.4281 60.7122 12.2681 60.9781C12.1663 61.1595 11.9752 61.2606 11.782 61.2606Z" fill="#035BE8"/>
<path fill-rule="evenodd" clip-rule="evenodd" d="M19.5208 40.836C19.4253 40.836 19.3276 40.8113 19.2362 40.7598L8.02657 34.3364C7.75235 34.1798 7.66094 33.8396 7.8209 33.5675C7.97463 33.2995 8.32156 33.2088 8.58954 33.3634L19.8054 39.7868C20.0755 39.9434 20.1648 40.2877 20.0069 40.5557C19.9052 40.7371 19.7182 40.8381 19.5208 40.8381V40.836Z" fill="#035BE8"/>
</g>
</g>
<defs>
<clipPath id="clip0_9_44585">
<rect width="65" height="75" fill="white"/>
</clipPath>
</defs>
</svg>
