<svg width="65" height="88" viewBox="0 0 65 88" fill="none" xmlns="http://www.w3.org/2000/svg">
<g clip-path="url(#clip0_9_44898)">
<mask id="mask0_9_44898" style="mask-type:luminance" maskUnits="userSpaceOnUse" x="0" y="0" width="65" height="88">
<path d="M65 0H0V88H65V0Z" fill="white"/>
</mask>
<g mask="url(#mask0_9_44898)">
<path fill-rule="evenodd" clip-rule="evenodd" d="M8.83251 87.2137L1.26067 82.8641C0.764467 82.5244 0.6762 82.0872 0.652344 81.5171V20.1827C0.702441 19.5556 1.00064 19.1707 1.53024 18.869C2.39144 18.3749 3.25979 17.8737 4.12576 17.3724C4.33092 17.2845 4.41203 17.2465 4.62912 17.3225L12.1938 21.6769C11.9791 21.5938 11.8956 21.6342 11.6905 21.7221C10.7672 22.2566 9.84639 22.7887 8.92317 23.3161C8.49138 23.6178 8.25997 24.0097 8.21703 24.5371V74.7563L56.0766 47.2426C56.2818 47.15 56.3629 47.1096 56.58 47.1927L64.1471 51.5424C63.9371 51.4664 63.8489 51.4972 63.6437 51.5923L12.399 81.0515L8.21942 78.6474V85.862C8.24089 86.4393 8.33631 86.8692 8.83251 87.2089V87.2137Z" fill="#035BE8"/>
<path fill-rule="evenodd" clip-rule="evenodd" d="M4.42331 17.9544L1.84926 19.4273C1.47472 19.6482 1.32443 19.8549 1.29581 20.235V81.5147C1.31728 82.0255 1.40077 82.1751 1.6274 82.3343L7.56512 85.7432V78.6498C7.56512 78.4194 7.69156 78.2056 7.89195 78.0892C8.08995 77.9728 8.34043 77.9728 8.54321 78.0892L12.3983 80.3103L62.6387 51.4212L56.3813 47.8246L8.54559 75.3169C8.34043 75.4333 8.09233 75.4333 7.89433 75.3169C7.69633 75.2005 7.56751 74.9867 7.56751 74.7563V24.5371C7.62715 23.7674 7.95874 23.1949 8.55514 22.7816L10.6879 21.5558L4.42569 17.9544H4.42331ZM8.82948 87.8622C8.71974 87.8622 8.60285 87.8337 8.50265 87.7743L0.935581 83.4247C0.150724 82.8902 0.0290595 82.2037 -0.00195312 81.5433V20.1827C0.0696144 19.318 0.444151 18.7407 1.19561 18.306L3.7959 16.8165C4.13704 16.6574 4.41376 16.5576 4.85033 16.7168L12.5152 21.1163C12.8015 21.2802 12.9184 21.6437 12.7752 21.9525C12.6321 22.2542 12.279 22.3967 11.9641 22.2827L9.24219 23.8767C9.01556 24.0406 8.88912 24.2568 8.86049 24.5846L8.86526 73.6398L55.7515 46.682C56.0378 46.5442 56.3312 46.4136 56.8012 46.5894L64.4661 50.9889C64.7595 51.1528 64.8692 51.5163 64.7261 51.8203C64.583 52.1291 64.2227 52.2717 63.915 52.1505L12.7204 81.6169C12.5224 81.7333 12.2719 81.7333 12.0739 81.6169L8.86526 79.7758V85.8691C8.88673 86.3846 8.96546 86.5295 9.19686 86.6887C9.48313 86.8859 9.56185 87.2731 9.37339 87.5629C9.25173 87.7601 9.0418 87.8646 8.82709 87.8646L8.82948 87.8622Z" fill="#035BE8"/>
<path fill-rule="evenodd" clip-rule="evenodd" d="M10.3109 87.0711C9.73121 87.4013 9.21115 87.4345 8.83185 87.2136C8.45731 86.9998 8.21875 86.527 8.21875 85.8666V24.537C8.21875 24.0904 8.53365 23.5416 8.92011 23.316C9.84811 22.7886 10.769 22.2541 11.6922 21.722C12.0834 21.5034 12.3983 21.6839 12.3983 22.1353V81.0561L63.643 51.5969C64.0343 51.3712 64.3492 51.5589 64.3492 52.0031V55.1864C64.3492 55.6306 64.0343 56.1817 63.643 56.4074L10.3109 87.0711Z" fill="#EFF3FA"/>
<path fill-rule="evenodd" clip-rule="evenodd" d="M11.7512 22.4418L9.2439 23.8766C9.05544 23.9859 8.86698 24.3161 8.86698 24.537V85.8667C8.86698 86.2562 8.97195 86.5484 9.15325 86.6577C9.32978 86.7622 9.64468 86.7028 9.98105 86.5104L63.3179 55.8468C63.5064 55.7375 63.6996 55.4073 63.6996 55.1864V52.3096L12.7197 81.6168C12.5217 81.7332 12.2712 81.7332 12.0732 81.6168C11.868 81.5004 11.7464 81.2866 11.7464 81.0562V22.4418H11.7512ZM9.37034 87.9999C9.06021 87.9999 8.76917 87.9286 8.50437 87.7742C7.90798 87.4345 7.56445 86.7337 7.56445 85.8667V24.537C7.56445 23.86 8.00579 23.095 8.59741 22.7553L11.3647 21.1661C11.7631 20.9404 12.1829 20.919 12.5193 21.1162C12.8557 21.3086 13.0489 21.684 13.0489 22.1329V79.9373L63.3203 51.0315C63.7116 50.8059 64.1314 50.7892 64.4702 50.9864C64.8065 51.1788 64.9998 51.547 64.9998 51.9984V55.1816C64.9998 55.8587 64.5584 56.6236 63.9668 56.9633L10.6299 87.6269C10.1981 87.8787 9.7735 87.9999 9.37034 87.9999Z" fill="#035BE8"/>
<path fill-rule="evenodd" clip-rule="evenodd" d="M54.2535 53.0957L12.3984 77.16V32.4664L54.2535 8.40674V53.0957Z" fill="white"/>
<path fill-rule="evenodd" clip-rule="evenodd" d="M13.0497 32.8421V76.0392L53.607 52.7231V9.52372L13.0497 32.8421ZM12.3985 77.8113C12.2887 77.8113 12.1766 77.7781 12.0788 77.7234C11.8736 77.607 11.752 77.3932 11.752 77.1628V32.4692C11.752 32.2387 11.8736 32.0297 12.0788 31.9085L53.9339 7.84658C54.1319 7.73018 54.3823 7.73018 54.5803 7.84658C54.7855 7.96298 54.9072 8.17203 54.9072 8.40721V53.0961C54.9072 53.3265 54.7855 53.5403 54.5803 53.6567L12.7253 77.7211C12.6251 77.7757 12.5154 77.809 12.3985 77.809V77.8113Z" fill="#035BE8"/>
<path fill-rule="evenodd" clip-rule="evenodd" d="M40.8124 25.366C40.6407 25.2401 40.5977 25.1783 40.4761 25.0096L39.6745 23.5914C39.3429 22.8764 39.486 22.178 39.7413 21.4629C40.1946 20.3844 40.7743 19.8618 41.5472 18.9781C42.697 17.6739 43.8397 16.3721 44.9824 15.0727C47.43 12.279 49.8872 9.49018 52.3324 6.70128C53.6421 5.21181 54.9446 3.72709 56.2543 2.23524L53.487 0.645996C51.6859 2.69135 49.892 4.7367 48.0956 6.78443C45.9701 9.19799 43.8493 11.6186 41.7237 14.0369C40.581 15.3411 39.4383 16.6382 38.2933 17.9424C37.6038 18.7287 37.2388 19.1183 36.8905 20.1089C36.6973 20.7693 36.609 21.3631 36.912 21.9998L37.7064 23.4133C37.8281 23.589 37.871 23.6437 38.0428 23.7767L40.8101 25.366H40.8124ZM51.798 26.6583L49.0308 25.069C48.5226 24.7056 48.4845 24.4632 48.4129 23.8694L48.2912 20.0471L51.0585 21.6411L51.1802 25.4515C51.2565 26.0525 51.2971 26.2924 51.798 26.6559V26.6583ZM17.8178 67.0285L15.0505 65.4392C14.0844 64.8286 14.4756 63.4104 14.8525 62.5695L25.256 41.0992C25.7976 40.0255 26.4822 39.1465 27.5247 38.5194L38.5533 32.141L43.4461 19.3724L46.2134 20.9617L41.3206 33.7303L30.292 40.1158C29.2543 40.7382 28.5648 41.6171 28.0233 42.6885L17.6174 64.1516C17.2357 64.9974 16.8445 66.4109 17.8154 67.0285H17.8178Z" fill="#035BE8"/>
<path fill-rule="evenodd" clip-rule="evenodd" d="M48.9739 21.1922L49.0574 23.8433C49.1242 24.3279 49.1242 24.3374 49.4105 24.5417L50.5198 25.1808L50.4148 22.0237L48.9739 21.1922ZM51.7961 27.3021C51.6792 27.3021 51.5766 27.2736 51.4693 27.219L48.702 25.625C47.941 25.0857 47.8527 24.6415 47.7621 23.9526L47.6356 20.071C47.6309 19.8405 47.7525 19.6148 47.9553 19.4937C48.1533 19.3773 48.4086 19.3773 48.6066 19.4937L51.3738 21.0829C51.5718 21.1922 51.6935 21.3965 51.7054 21.6222L51.8223 25.4397C51.8891 25.9077 51.8891 25.9291 52.1706 26.131C52.4521 26.3353 52.5237 26.7201 52.3352 27.0052C52.2136 27.1976 52.0036 27.3021 51.7937 27.3021H51.7961ZM53.6234 1.47273L55.2409 2.4087L44.489 14.6452L40.684 18.9734C40.0829 19.6386 39.5628 20.2159 39.1262 21.2445C38.8901 21.9215 38.6897 22.7126 38.9783 23.5773L38.444 23.2684C38.374 23.213 38.3191 23.156 38.2794 23.0974L37.4993 21.7291C37.2894 21.2944 37.3514 20.8715 37.4993 20.3275C37.7975 19.4866 38.0838 19.1611 38.7803 18.3748L53.6234 1.47273ZM43.7829 20.3133L39.1596 32.3739C39.1048 32.5165 39.0046 32.6258 38.8782 32.7041L27.8496 39.0825C27.0218 39.5766 26.3801 40.3154 25.8338 41.3915L15.435 62.8499C15.3181 63.1041 14.7456 64.4843 15.3968 64.8905L16.561 65.5604C16.5992 65.0592 16.7495 64.4985 17.019 63.8952L27.4345 42.4083C28.1025 41.0946 28.904 40.1871 29.9585 39.5552L40.7938 33.2909L45.4099 21.2469L43.7805 20.3109L43.7829 20.3133ZM17.8158 67.6747C17.7061 67.6747 17.594 67.6462 17.4914 67.5915L14.7241 65.9975C13.6792 65.3443 13.5146 63.9688 14.2542 62.3083L24.6696 40.8214C25.3328 39.5077 26.132 38.605 27.1936 37.9684L38.0289 31.704L40.288 25.815L37.7188 24.3422C37.4158 24.1118 37.3204 24.0001 37.1677 23.7816L36.3447 22.3254C35.9248 21.4345 36.0584 20.6601 36.2683 19.9379C36.6596 18.8262 37.0627 18.3653 37.7378 17.6004L53.0008 0.218438C53.206 -0.011991 53.5423 -0.0666287 53.8119 0.0877823L56.5792 1.68178C56.7438 1.77443 56.8607 1.94072 56.8941 2.13314C56.9275 2.32556 56.8726 2.51798 56.739 2.66051L41.6526 19.8286C41.0824 20.4605 40.6745 20.9166 40.3429 21.7101C40.1282 22.3206 40.0328 22.8218 40.2666 23.316L40.851 24.3446L42.8454 19.1421C42.9122 18.9663 43.0505 18.8285 43.2318 18.762C43.4131 18.7026 43.6135 18.7169 43.7734 18.8119L46.5406 20.4012C46.8174 20.5651 46.939 20.8953 46.8221 21.1922L41.9293 33.9608C41.8744 34.0986 41.7814 34.2197 41.6478 34.291L30.6193 40.6694C29.7962 41.1635 29.1497 41.9023 28.6034 42.9784L18.2047 64.4368C18.0401 64.8002 17.5296 66.0759 18.1665 66.4821C18.4647 66.6698 18.5577 67.0594 18.3764 67.3635C18.25 67.5606 18.0401 67.6723 17.8182 67.6723L17.8158 67.6747Z" fill="#035BE8"/>
<path fill-rule="evenodd" clip-rule="evenodd" d="M17.6183 64.1542L28.0242 42.6911C28.301 42.1257 28.6469 41.6078 29.0286 41.1683C29.4198 40.7241 29.8516 40.3654 30.2929 40.1183L41.3215 33.7329L46.2143 20.9643L43.0773 24.5395C42.1159 25.6346 40.9517 25.8436 40.477 25.0122L39.6754 23.594C39.2126 22.7626 39.6086 21.1899 40.57 20.0948C45.7992 14.144 51.0308 8.18855 56.2552 2.23779C56.4651 8.81095 56.6679 15.3817 56.8731 21.9477C56.9113 23.1569 56.0715 24.682 55.0004 25.34L53.1897 26.4565C52.1186 27.1169 51.2121 26.6656 51.1787 25.4612L51.057 21.6437L45.3292 36.498C45.0811 37.0705 44.7496 37.6311 44.3512 38.1205C43.9265 38.6384 43.4399 39.066 42.9484 39.3463L31.6766 45.8624L22.1271 65.5724C21.4758 66.9193 20.2496 67.8054 19.398 67.5417L17.9618 67.0904C17.1173 66.8267 16.9623 65.5059 17.6135 64.1542H17.6183Z" fill="#EFF3FA"/>
<path fill-rule="evenodd" clip-rule="evenodd" d="M18.2016 64.4413C17.7936 65.2775 17.8103 65.9379 17.9463 66.2515C18.0227 66.4321 18.1229 66.4653 18.1563 66.4772L19.5971 66.9285C20.0266 67.0616 20.9665 66.4772 21.5414 65.2942L31.0909 45.5889C31.1505 45.4678 31.2388 45.368 31.3509 45.3086L42.6228 38.7854C43.0474 38.5431 43.4745 38.1701 43.849 37.7069C44.2021 37.2721 44.505 36.7661 44.7317 36.2388L50.4475 21.4129C50.5644 21.1207 50.8507 20.9568 51.1656 21.0067C51.4685 21.0566 51.6952 21.3155 51.7071 21.622L51.824 25.4395C51.8359 25.7578 51.929 25.9954 52.0721 26.0761C52.2367 26.164 52.5349 26.0975 52.845 25.9051L54.6557 24.7886C55.524 24.2541 56.2516 22.9404 56.223 21.9664L55.6552 3.89563L41.0531 20.515C40.2301 21.4557 39.9438 22.748 40.242 23.2754L41.0435 24.6888C41.1032 24.8052 41.1867 24.8527 41.2964 24.8646C41.5779 24.8931 42.0908 24.6722 42.5894 24.1044L45.7264 20.5364C45.9316 20.3012 46.2847 20.2442 46.5495 20.4057C46.819 20.5696 46.9359 20.8998 46.819 21.192L41.9262 33.9606C41.8713 34.0984 41.7783 34.2195 41.6447 34.2908L30.6162 40.6692C30.2416 40.883 29.8599 41.2037 29.5164 41.5885C29.1633 41.9947 28.8437 42.4746 28.6003 42.9687L18.2016 64.439V64.4413ZM19.726 68.2351C19.5494 68.2351 19.3729 68.2137 19.2059 68.1591L17.7698 67.7077C17.3165 67.5652 16.9587 67.2302 16.7535 66.767C16.4219 66.0021 16.5269 64.9188 17.0303 63.8807L27.4338 42.4105C27.732 41.7999 28.1018 41.2393 28.5383 40.7428C28.9844 40.2368 29.4663 39.8354 29.9697 39.5503L40.7954 33.2931L44.319 24.1092L43.5675 24.962C42.8327 25.7982 41.9596 26.2329 41.1652 26.1545C40.6308 26.0999 40.1824 25.803 39.9104 25.3231L39.116 23.9096C38.5029 22.8383 38.9275 20.9735 40.0822 19.6645L55.7674 1.80752C55.9391 1.61035 56.2206 1.53908 56.4687 1.62698C56.7216 1.71962 56.8934 1.95243 56.9053 2.21611L57.5232 21.9308C57.5685 23.3656 56.6119 25.1045 55.3427 25.8909L53.5321 27.0074C52.8021 27.454 52.0459 27.53 51.4614 27.2164C50.8936 26.9076 50.5549 26.2828 50.5286 25.4846L50.5119 24.8694L45.9388 36.7305C45.6573 37.3838 45.2875 37.9943 44.8557 38.524C44.381 39.1084 43.8347 39.5859 43.2765 39.909L32.1763 46.3277L22.7151 65.85C22.0137 67.3015 20.8043 68.2375 19.7284 68.2375L19.726 68.2351Z" fill="#035BE8"/>
</g>
</g>
<defs>
<clipPath id="clip0_9_44898">
<rect width="65" height="88" fill="white"/>
</clipPath>
</defs>
</svg>
