<svg width="74" height="75" viewBox="0 0 74 75" fill="none" xmlns="http://www.w3.org/2000/svg">
<g clip-path="url(#clip0_9_44671)">
<mask id="mask0_9_44671" style="mask-type:luminance" maskUnits="userSpaceOnUse" x="0" y="0" width="74" height="75">
<path d="M74 0H0V75H74V0Z" fill="white"/>
</mask>
<g mask="url(#mask0_9_44671)">
<path fill-rule="evenodd" clip-rule="evenodd" d="M33.2416 5.01318C40.2588 1.08716 48.776 -1.45911 56.2807 2.75958L63.8819 7.1288C50.5493 -0.183887 34.3004 12.351 26.01 21.9967C15.7195 33.9587 7.02158 52.6439 8.34518 68.5738C8.52166 70.6977 9.18136 72.5918 11.0554 73.7876C9.60156 72.9555 3.48776 69.619 2.60116 68.7786C0.0463915 66.3494 0.533814 60.3998 0.790131 57.2598C2.4667 37.4541 15.9885 15.1606 33.2416 5.01318Z" fill="#035BE8"/>
<path fill-rule="evenodd" clip-rule="evenodd" d="M33.5277 5.50677C16.5897 15.4786 3.05113 37.262 1.37457 57.3018C1.13085 60.1575 0.630826 66.0988 2.9839 68.3649C3.51754 68.8625 6.34123 70.4889 8.51783 71.7098C8.11444 70.8443 7.87073 69.8241 7.77409 68.6158C6.40426 52.0462 15.7325 33.0809 25.5734 21.629C33.9016 11.9373 46.7763 2.68873 58.3946 4.62875L55.9869 3.24899C49.8899 -0.179483 42.3223 0.581471 33.5277 5.50677ZM11.0516 74.3564C10.9549 74.3564 10.8583 74.3313 10.7617 74.2853C10.4759 74.1181 10.0011 73.8505 9.42544 73.5244C6.15215 71.6931 2.90827 69.8576 2.19814 69.1886C-0.562519 66.542 -0.0456833 60.4711 0.227442 57.2057C1.95443 36.8188 15.6989 14.6633 32.9478 4.52422V4.51586C42.1248 -0.618495 50.0832 -1.37945 56.55 2.26226L64.168 6.63566C64.4454 6.79036 64.542 7.1332 64.3781 7.40916C64.2353 7.68092 63.8823 7.77291 63.605 7.62657C51.3228 0.89087 35.9143 11.3603 26.4474 22.369C16.7494 33.637 7.5724 52.2762 8.92121 68.5238C9.1145 70.8778 9.85824 72.3537 11.3583 73.307C11.6146 73.4784 11.6987 73.8212 11.539 74.0846C11.4214 74.2603 11.2491 74.3564 11.0516 74.3564Z" fill="#035BE8"/>
<path fill-rule="evenodd" clip-rule="evenodd" d="M40.8383 9.38272C49.843 4.2191 57.9947 3.7341 63.8816 7.12913C69.7853 10.52 73.4325 17.7909 73.4325 28.1348C73.4325 29.1466 73.3821 30.2337 73.3149 31.279C73.1048 34.2224 71.9787 37.3624 70.2811 40.1261C68.6087 42.8898 66.3481 45.2646 63.8942 46.6737L53.6793 52.5355C52.3095 55.2825 50.5951 57.9082 48.658 60.2245C46.3176 63.0425 43.6367 65.409 40.8172 67.0271C37.9935 68.6494 35.3127 69.3518 32.9765 69.2305C31.0352 69.1344 29.3292 68.4654 27.972 67.2905L17.7571 73.1524C15.2906 74.5614 13.0426 74.7746 11.3534 73.9551C9.66001 73.1315 8.5465 71.2792 8.3364 68.5741C8.27338 67.6083 8.21875 66.5672 8.21875 65.5554C8.23976 55.2114 11.887 43.7553 17.7907 33.5911C23.6818 23.4228 31.8419 14.5505 40.8298 9.38691L40.8383 9.38272Z" fill="#EFF3FA"/>
<path fill-rule="evenodd" clip-rule="evenodd" d="M55.3771 5.51457C51.024 5.51457 46.1792 6.98213 41.1326 9.87543C32.5145 14.8216 24.4006 23.3426 18.2826 33.8706C12.1814 44.3901 8.81148 55.6456 8.81148 65.5505C8.81148 66.4954 8.8451 67.5198 8.92493 68.5274C9.10562 70.9357 10.0553 72.6834 11.6058 73.4402C13.1857 74.2012 15.2698 73.9252 17.4758 72.6542L27.6907 66.7923C27.905 66.6711 28.1781 66.6961 28.3588 66.855C29.632 67.9588 31.2119 68.5693 33.0187 68.6612C35.3088 68.7741 37.9056 68.0424 40.5402 66.5331C43.221 64.9986 45.8808 62.6949 48.2381 59.8601C50.1416 57.573 51.8013 55.0226 53.1753 52.2798C53.2258 52.1795 53.3014 52.0958 53.398 52.0373L63.6129 46.1755C65.903 44.8542 68.1174 42.6048 69.8107 39.8244C71.5209 37.0398 72.5672 33.9918 72.7479 31.2407C72.8319 30.1745 72.8613 29.1 72.8613 28.13C72.8613 18.3379 69.588 11.0545 63.6171 7.61347C61.18 6.21699 58.4067 5.51457 55.3898 5.51457H55.3771ZM13.5386 74.9997C12.6688 74.9997 11.8411 74.8241 11.1015 74.4646C9.16444 73.5238 7.98791 71.4458 7.77361 68.6152C7.69377 67.5783 7.66016 66.5247 7.66016 65.5589C7.66016 55.4574 11.0847 44.0055 17.2952 33.3061C23.5056 22.611 31.7708 13.9436 40.5612 8.89706C49.4356 3.79615 57.8269 2.99339 64.1634 6.64346C70.5041 10.2894 73.9917 17.9282 73.9917 28.1425C73.9917 29.146 73.958 30.2414 73.874 31.3285C73.6639 34.2678 72.5714 37.4997 70.7814 40.4307C68.9704 43.37 66.6341 45.7657 64.1634 47.1789L54.1166 52.953C52.7257 55.7167 51.0324 58.288 49.0953 60.6043C46.6582 63.5353 43.8807 65.9394 41.1032 67.5365C38.2837 69.1546 35.4432 69.9323 32.9431 69.8152C31.0564 69.719 29.3084 69.0877 27.9092 67.9923L18.0347 73.6618C16.4674 74.5607 14.9379 75.0165 13.5302 75.0165L13.5386 74.9997Z" fill="#035BE8"/>
<path fill-rule="evenodd" clip-rule="evenodd" d="M59.8152 14.1446C54.9578 11.3517 48.2431 11.7489 40.8351 16.0052C33.4272 20.2657 26.7167 27.5617 21.8635 35.928C17.0061 44.2943 14.0059 53.7268 14.0059 62.2436C14.0059 63.1258 14.0185 63.9119 14.0899 64.7564C14.1698 65.8101 14.6068 66.5334 15.2454 66.8512C15.9136 67.1647 16.796 67.0853 17.7666 66.5209L29.4353 59.8228V59.8353C30.3682 59.3001 31.2884 59.3001 31.8388 59.9524C32.8221 61.1189 34.1625 61.7753 35.7298 61.8548C37.2257 61.9342 38.9695 61.4659 40.8267 60.3998C42.7008 59.3294 44.4194 57.7991 45.9237 56.0055C47.4406 54.1909 48.7305 52.0962 49.7012 49.9053C50.1844 48.605 51.134 47.3632 52.2139 46.7444L63.8953 40.0463C64.8617 39.4861 65.7483 38.5621 66.3954 37.4917C67.0551 36.4172 67.4963 35.1963 67.5719 34.0507C67.6392 33.135 67.656 32.3197 67.656 31.4375C67.6686 22.9207 64.6684 16.9334 59.8152 14.1404V14.1446Z" fill="white"/>
<path fill-rule="evenodd" clip-rule="evenodd" d="M52.8126 12.9278C49.2494 12.9278 45.2575 14.1278 41.1313 16.4985C34.051 20.5625 27.3826 27.5657 22.3655 36.2164C17.3442 44.8628 14.5709 54.1072 14.5709 62.2477C14.5709 63.1132 14.6045 63.8867 14.655 64.7145C14.718 65.5298 15.0247 66.1068 15.5122 66.341C16.0122 66.5835 16.7055 66.4748 17.4787 66.0316L29.1474 59.3335C29.1978 59.3126 29.2272 59.3 29.2608 59.2917C30.4374 58.6562 31.5845 58.769 32.2946 59.5969C33.1518 60.638 34.362 61.2233 35.7612 61.2944C37.2151 61.3655 38.8454 60.8888 40.5388 59.9105C42.2784 58.9154 43.9928 57.4436 45.4971 55.6458C46.9677 53.8856 48.2409 51.8243 49.1905 49.6836C49.7242 48.2453 50.7915 46.9199 51.9512 46.2551L63.6157 39.557C64.4729 39.0637 65.2923 38.2275 65.9268 37.1989C66.5529 36.162 66.9437 35.0373 67.0067 34.0129C67.0697 33.114 67.1033 32.3029 67.1033 31.4374C67.1033 23.4098 64.4225 17.4476 59.5357 14.6337C57.5524 13.4881 55.2749 12.9195 52.8252 12.9195L52.8126 12.9278ZM16.0836 67.6036C15.6928 67.6036 15.3399 67.5242 15.0037 67.3653C14.1339 66.943 13.6003 66.0316 13.5204 64.8023C13.4532 63.9452 13.4238 63.1424 13.4238 62.2477C13.4238 53.9106 16.2433 44.4614 21.3612 35.6436C26.4918 26.8257 33.3031 19.6719 40.564 15.5117C47.9048 11.2972 54.8421 10.6324 60.1029 13.6595C65.3511 16.6782 68.2336 22.9958 68.2336 31.4458C68.2336 32.3405 68.2042 33.1726 68.137 34.0966C68.0614 35.2965 67.6076 36.6094 66.8974 37.7926C66.1537 38.9801 65.2041 39.9542 64.1872 40.5396L52.5059 47.2418C51.5688 47.777 50.6948 48.8766 50.2284 50.1059C49.2284 52.3762 47.9048 54.5294 46.3585 56.3691C44.7785 58.2673 42.9675 59.831 41.1103 60.893C39.2278 61.9759 37.3705 62.5027 35.694 62.4275C33.967 62.3355 32.4837 61.608 31.4038 60.3202C30.9164 59.7349 30.0634 60.1321 29.7273 60.3286C29.6936 60.3411 29.66 60.362 29.6306 60.3704L18.0585 67.0099C17.3778 67.403 16.7013 67.5953 16.0878 67.5953L16.0836 67.6036Z" fill="#035BE8"/>
<path fill-rule="evenodd" clip-rule="evenodd" d="M40.4187 53.2378C42.3684 52.7193 44.3517 50.2441 44.8895 47.7062C45.3559 45.415 44.0659 43.5879 42.3053 44.0561C40.3682 44.5704 38.3723 47.0456 37.8345 49.5793C37.3176 52.1131 38.469 53.752 40.4187 53.2378Z" fill="#035BE8"/>
<path fill-rule="evenodd" clip-rule="evenodd" d="M42.8542 44.553C42.724 44.553 42.5979 44.574 42.4509 44.6074C40.7407 45.0673 38.8666 47.4004 38.4002 49.6999C38.1439 50.9166 38.3204 51.941 38.854 52.4385C39.291 52.8441 39.8709 52.7981 40.2743 52.6894C42.0012 52.2295 43.8543 49.8965 44.3249 47.5969C44.5476 46.4931 44.3249 45.4687 43.7408 44.9126C43.4845 44.6743 43.1778 44.553 42.8542 44.553ZM39.7196 53.9061C39.0935 53.9061 38.5095 53.6887 38.0556 53.2664C37.2321 52.4804 36.9463 51.0964 37.2825 49.47C37.8456 46.7021 39.9927 44.0848 42.1567 43.5078C43.0475 43.2736 43.8669 43.4827 44.5098 44.0848C45.4006 44.9084 45.741 46.3384 45.4468 47.8268C44.8628 50.5947 42.7198 53.212 40.56 53.789C40.2701 53.8685 39.9927 53.9061 39.7196 53.9061Z" fill="#035BE8"/>
<path fill-rule="evenodd" clip-rule="evenodd" d="M61.6833 35.5853C61.4732 35.5853 61.3009 35.4849 61.1875 35.301C61.0278 35.025 61.1202 34.6822 61.3976 34.5233L64.5112 32.738C64.7843 32.5791 65.1373 32.6752 65.2844 32.947C65.4482 33.2188 65.3516 33.5658 65.0743 33.7205L61.9606 35.51C61.8766 35.5602 61.78 35.5894 61.6833 35.5894V35.5853Z" fill="#035BE8"/>
<path fill-rule="evenodd" clip-rule="evenodd" d="M55.5829 22.1474C55.4905 22.1474 55.3729 22.1224 55.2972 22.068C55.0199 21.9133 54.9232 21.5663 55.0829 21.2945L57.2973 17.4939C57.4444 17.218 57.7974 17.1302 58.0705 17.2849C58.3478 17.4396 58.4445 17.7866 58.2806 18.0625L56.0704 21.8548C55.9737 22.0387 55.7804 22.1391 55.5829 22.1391V22.1474Z" fill="#035BE8"/>
<path fill-rule="evenodd" clip-rule="evenodd" d="M40.8384 23.5896C40.5191 23.5896 40.2754 23.3387 40.2754 23.0251V19.4419C40.2754 19.1284 40.5317 18.8691 40.8384 18.8691C41.1662 18.8691 41.4225 19.1242 41.4225 19.4419V23.0251C41.4225 23.3387 41.1662 23.5896 40.8384 23.5896Z" fill="#035BE8"/>
<path fill-rule="evenodd" clip-rule="evenodd" d="M26.089 39.0677C25.9923 39.0677 25.8957 39.0385 25.799 38.9883L23.6056 37.7214C23.3325 37.5667 23.2359 37.2197 23.3955 36.9479C23.5552 36.672 23.8956 36.58 24.1687 36.7389L26.3747 38.0057C26.652 38.1604 26.7487 38.5075 26.589 38.7792C26.4713 38.9632 26.2823 39.0635 26.089 39.0635V39.0677Z" fill="#035BE8"/>
<path fill-rule="evenodd" clip-rule="evenodd" d="M16.8593 61.303C16.6702 61.303 16.4769 61.2068 16.3761 61.0229C16.2164 60.7511 16.313 60.4041 16.5862 60.2452L19.6998 58.4557C19.9561 58.301 20.3133 58.393 20.4729 58.6689C20.6368 58.9407 20.5402 59.2835 20.2628 59.4424L17.1492 61.2319C17.0526 61.2821 16.9559 61.303 16.8593 61.303Z" fill="#035BE8"/>
<path fill-rule="evenodd" clip-rule="evenodd" d="M44.4017 45.3769C44.2757 45.3769 44.1454 45.335 44.0488 45.2514C43.7925 45.0549 43.763 44.6953 43.9521 44.4487L60.6674 23.8611C60.8607 23.6144 61.2178 23.5809 61.4741 23.7733C61.7178 23.9698 61.7515 24.3294 61.5582 24.576L44.8429 45.1636C44.7295 45.3058 44.5698 45.3769 44.4059 45.3769H44.4017Z" fill="#035BE8"/>
</g>
</g>
<defs>
<clipPath id="clip0_9_44671">
<rect width="74" height="75" fill="white"/>
</clipPath>
</defs>
</svg>
