<svg width="57" height="78" viewBox="0 0 57 78" fill="none" xmlns="http://www.w3.org/2000/svg">
<g clip-path="url(#clip0_9_44726)">
<path fill-rule="evenodd" clip-rule="evenodd" d="M54.9612 4.71131L48.0463 0.720345C39.1153 -1.41366 0.572266 21.9114 0.572266 29.7004L7.48822 33.6914C10.3582 25.9014 25.5663 16.9113 31.7413 13.2663C37.5943 9.9723 49.5032 3.40731 54.9612 4.71131Z" fill="#EFF3FA"/>
<path fill-rule="evenodd" clip-rule="evenodd" d="M1.186 29.3792L7.217 32.8573C10.724 24.9832 25.717 16.1512 31.455 12.7682C38.534 8.7682 46.985 4.39122 52.562 3.99122L47.84 1.26417C41.794 -0.0298284 21.44 10.6292 9.52896 20.0392C4.49496 24.0152 1.497 27.3842 1.186 29.3792ZM7.49398 34.2792C7.3961 34.2792 7.30019 34.2517 7.217 34.2001L0.281946 30.2092C0.196236 30.1573 0.125664 30.0838 0.0772344 29.996C0.0288046 29.9083 0.00420907 29.8094 0.00594533 29.7092C0.00594533 26.7152 4.79199 22.3092 8.80599 19.1332C19.915 10.3652 41.348 -1.46683 48.184 0.160168C48.2342 0.175159 48.2823 0.196702 48.327 0.224194L55.2429 4.21522C55.3637 4.28217 55.4565 4.39026 55.5042 4.51985C55.552 4.64944 55.5516 4.79189 55.5031 4.92122C55.4547 5.05054 55.3613 5.15811 55.2401 5.22438C55.119 5.29064 54.978 5.31114 54.843 5.28218C49.385 3.98218 36.7839 11.1012 32.0319 13.7822C26.2429 17.1902 10.856 26.2592 8.04 33.9012C8.01247 33.9814 7.96697 34.0542 7.90701 34.1142C7.84705 34.1742 7.7742 34.2196 7.69399 34.2471C7.62702 34.2694 7.55641 34.2786 7.48599 34.2742L7.49398 34.2792Z" fill="#035BE8"/>
<path fill-rule="evenodd" clip-rule="evenodd" d="M7.37239 34.6452C8.29139 64.6632 3.49039 82.9731 31.7244 74.5121C59.9434 50.4071 55.1574 37.6332 56.1104 6.53916C56.4054 -3.39984 7.07939 25.0472 7.37239 34.6452Z" fill="white"/>
<path fill-rule="evenodd" clip-rule="evenodd" d="M7.96749 34.6293C8.09649 39.0403 8.11148 43.1152 8.11148 47.0522C8.16548 60.5272 8.18049 70.2583 13.3715 74.1163C16.8285 76.6693 22.5714 76.6353 31.4304 73.9923C55.2244 53.6413 55.2734 41.3763 55.3574 19.1333C55.3724 15.1813 55.3875 11.0913 55.5205 6.5233C55.5541 6.29766 55.5211 6.06711 55.4256 5.85997C55.33 5.65282 55.176 5.4781 54.9824 5.35728C52.4384 3.87028 42.2485 7.72329 30.7095 14.5393C17.4095 22.4033 7.83447 30.8493 7.96847 34.6283L7.96749 34.6293ZM20.2375 77.1583C17.5566 77.2961 14.9043 76.5537 12.6845 75.0443C7.03347 70.8443 6.99947 60.8682 6.95047 47.0572C6.95047 43.1252 6.93546 39.0573 6.80246 34.6643C6.63946 29.6903 18.4025 20.4642 30.1215 13.5422C39.5755 7.95622 51.8995 2.20127 55.5695 4.36027C55.9432 4.58535 56.246 4.91099 56.4433 5.30003C56.6407 5.68906 56.7246 6.12581 56.6855 6.56028C56.5325 11.1143 56.5325 15.1942 56.5175 19.1412C56.4385 41.7542 56.3895 54.2172 32.1015 74.9582C32.0359 75.0053 31.9642 75.0433 31.8885 75.0713C28.1233 76.3158 24.2004 77.0178 20.2375 77.1583Z" fill="#035BE8"/>
<path fill-rule="evenodd" clip-rule="evenodd" d="M31.7279 43.1411L31.7129 74.5121H31.7279C51.9509 57.2431 55.2279 45.7881 55.7979 29.2461L31.7279 43.1411Z" fill="#EFF3FA"/>
<path fill-rule="evenodd" clip-rule="evenodd" d="M32.3007 43.476V73.251C50.6217 57.346 54.4747 46.489 55.1757 30.272L32.3007 43.472V43.476ZM31.7136 75.094C31.5956 75.0957 31.48 75.0608 31.3826 74.994C31.3079 74.9384 31.2471 74.8662 31.2051 74.7831C31.1631 74.6999 31.141 74.6082 31.1406 74.515V43.144C31.142 43.0426 31.1697 42.9432 31.2208 42.8556C31.272 42.768 31.3449 42.6951 31.4326 42.644L55.5026 28.749C55.5927 28.6969 55.695 28.6694 55.7991 28.6694C55.9032 28.6694 56.0055 28.6969 56.0956 28.749C56.1855 28.8012 56.259 28.8774 56.3079 28.9691C56.3569 29.0608 56.3793 29.1644 56.3726 29.2681C55.7726 46.6951 51.9806 57.976 32.1046 74.954C32.0496 74.9945 31.9899 75.0281 31.9266 75.054C31.8583 75.0802 31.7868 75.0938 31.7136 75.094Z" fill="#035BE8"/>
<path fill-rule="evenodd" clip-rule="evenodd" d="M7.37237 34.644C7.63437 43.155 7.43636 50.722 7.67236 57.01L31.7283 43.13L31.7433 13.27C19.4873 20.339 7.22737 29.848 7.37237 34.644Z" fill="#EFF3FA"/>
<path fill-rule="evenodd" clip-rule="evenodd" d="M7.96863 34.6302C8.09763 39.0462 8.11261 43.1214 8.11261 47.0634C8.13261 50.2404 8.13259 53.2573 8.21259 56.0243L31.1416 42.7963L31.1566 14.2803C17.5386 22.2523 7.83758 30.7433 7.97058 34.6313L7.96863 34.6302ZM7.66858 57.5894C7.56477 57.5883 7.46244 57.5647 7.36859 57.5203C7.28501 57.4666 7.21466 57.3947 7.16272 57.3101C7.11078 57.2254 7.07859 57.1301 7.0686 57.0312C6.9686 53.9932 6.95461 50.6314 6.94061 47.0684C6.94061 43.1374 6.9256 39.0683 6.7926 34.6683C6.6296 29.4573 19.0476 19.9133 31.4406 12.7683C31.5275 12.7173 31.6264 12.6904 31.7271 12.6904C31.8278 12.6904 31.9267 12.7173 32.0136 12.7683C32.1012 12.8194 32.174 12.8924 32.225 12.98C32.276 13.0676 32.3034 13.1669 32.3046 13.2683L32.2896 43.1283C32.2912 43.2285 32.2666 43.3273 32.2182 43.415C32.1698 43.5028 32.0993 43.5763 32.0136 43.6283L7.9386 57.5083C7.85874 57.5585 7.76691 57.5866 7.67261 57.5894H7.66858Z" fill="#035BE8"/>
<path fill-rule="evenodd" clip-rule="evenodd" d="M0.572266 29.6659C0.691266 29.1819 0.834273 28.6389 1.01727 28.0509C3.29427 23.2989 13.9782 15.371 24.7612 9.25098L28.8912 11.632L31.7413 13.272C25.5473 16.918 10.3582 25.9079 7.48822 33.6919L0.572266 29.7009V29.6659Z" fill="#035BE8"/>
<path fill-rule="evenodd" clip-rule="evenodd" d="M1.25011 29.4141L7.21208 32.8571C10.5561 25.3491 24.3381 16.971 30.5811 13.282L24.7621 9.91797C13.0751 16.587 3.54106 24.124 1.54106 28.303C1.44106 28.663 1.32807 29.044 1.24907 29.415L1.25011 29.4141ZM7.48906 34.274C7.39118 34.2739 7.29529 34.2466 7.21208 34.1951L0.277084 30.204C0.187225 30.1484 0.114133 30.0694 0.0655364 29.9756C0.0169398 29.8817 -0.00534698 29.7765 0.00108329 29.671C-0.00215961 29.6222 0.00428007 29.5733 0.0200652 29.527C0.134065 29.033 0.277068 28.4801 0.460068 27.8821C2.96907 22.6271 14.3251 14.5061 24.4811 8.74707C24.5692 8.69721 24.6688 8.6709 24.7701 8.6709C24.8713 8.6709 24.9709 8.69721 25.0591 8.74707L32.0241 12.7681C32.1116 12.8192 32.1845 12.8921 32.2355 12.9797C32.2865 13.0674 32.3139 13.1667 32.3151 13.2681C32.3143 13.3678 32.2886 13.4657 32.2404 13.553C32.1922 13.6403 32.123 13.7142 32.0391 13.7681C26.2391 17.1811 10.8481 26.25 8.03209 33.892C7.99172 34.0035 7.91791 34.1 7.82072 34.168C7.72354 34.236 7.60768 34.2723 7.48906 34.272V34.274Z" fill="#035BE8"/>
<path fill-rule="evenodd" clip-rule="evenodd" d="M0.572266 29.7012L1.13123 58.6862C1.34323 69.9332 5.34522 70.2102 13.7512 75.0612C9.07822 71.8062 8.30823 66.4022 7.86823 60.8402L7.48822 33.6931L0.572266 29.7012Z" fill="#EFF3FA"/>
<path fill-rule="evenodd" clip-rule="evenodd" d="M1.18093 30.7183L1.70491 58.6813C1.88791 67.8393 4.55493 69.4003 10.4229 72.5613C8.16493 69.3313 7.63691 65.1963 7.29091 60.8843L6.91591 34.0322L1.18093 30.7183ZM13.7519 75.6432C13.6526 75.6421 13.5554 75.6149 13.4699 75.5642C12.2399 74.8642 11.129 74.2643 10.096 73.7023C3.86697 70.3383 0.735927 68.6543 0.542926 58.7023L-0.00107984 29.7123C-0.00683847 29.6102 0.015972 29.5085 0.0647161 29.4186C0.11346 29.3287 0.186215 29.2541 0.274921 29.2033C0.364595 29.1504 0.466645 29.122 0.570759 29.1211C0.674873 29.1202 0.777386 29.1469 0.867939 29.1983L7.78395 33.1892C7.87197 33.2406 7.94557 33.3134 7.998 33.4008C8.05044 33.4882 8.08002 33.5874 8.08394 33.6892L8.45894 60.8323C8.88294 66.2953 9.63893 71.4813 14.0949 74.5883C14.1941 74.6609 14.268 74.7629 14.3059 74.8799C14.3438 74.9969 14.3439 75.1229 14.3061 75.2399C14.2684 75.3569 14.1947 75.4591 14.0955 75.5319C13.9964 75.6047 13.8769 75.6443 13.7539 75.6453L13.7519 75.6432Z" fill="#035BE8"/>
<path fill-rule="evenodd" clip-rule="evenodd" d="M1.01337 53.1282L7.66638 57.0201V57.0101L7.64734 56.8722C7.64548 56.3416 7.69505 55.8121 7.79535 55.2911L7.48438 33.6912L0.568359 29.7002L1.01337 53.1282Z" fill="#035BE8"/>
<path fill-rule="evenodd" clip-rule="evenodd" d="M1.58992 52.7932L7.11196 56.0232C7.13196 55.7472 7.17591 55.4753 7.22591 55.1883L6.91494 34.0322L1.17995 30.7183L1.58992 52.7932ZM7.65096 57.5933C7.55338 57.5962 7.45705 57.5705 7.37392 57.5193L0.720966 53.6272C0.637645 53.5753 0.568606 53.5034 0.520221 53.418C0.471837 53.3326 0.44561 53.2365 0.443927 53.1383L-0.00107984 29.7102C-0.00683847 29.6081 0.015972 29.5065 0.0647161 29.4166C0.11346 29.3268 0.186215 29.2522 0.274921 29.2013C0.364595 29.1484 0.466645 29.12 0.570759 29.1192C0.674873 29.1183 0.777386 29.1449 0.867939 29.1963L7.78395 33.1873C7.87197 33.2387 7.94557 33.3114 7.998 33.3988C8.05044 33.4862 8.08002 33.5854 8.08394 33.6873L8.37496 55.2873C8.28414 55.8076 8.24124 56.3352 8.24691 56.8633V57.0163C8.24616 57.12 8.21804 57.2217 8.16536 57.3111C8.11268 57.4004 8.03732 57.4744 7.94692 57.5253C7.85611 57.5731 7.75455 57.5969 7.65194 57.5943L7.65096 57.5933Z" fill="#035BE8"/>
</g>
<defs>
<clipPath id="clip0_9_44726">
<rect width="56.688" height="77.159" fill="white"/>
</clipPath>
</defs>
</svg>
