<svg width="36" height="75" viewBox="0 0 36 75" fill="none" xmlns="http://www.w3.org/2000/svg">
<g clip-path="url(#clip0_9_44778)">
<mask id="mask0_9_44778" style="mask-type:luminance" maskUnits="userSpaceOnUse" x="0" y="0" width="36" height="75">
<path d="M35.0917 0H0V75H35.0917V0Z" fill="white"/>
</mask>
<g mask="url(#mask0_9_44778)">
<path d="M27.9063 49.8221C30.1202 48.5275 31.9236 49.5667 31.931 52.1433L31.9607 62.3021L10.8403 74.6443L10.8106 64.4856C10.8032 61.909 12.5917 58.7714 14.8081 57.4769L27.9063 49.8221Z" fill="white"/>
<path d="M28.4222 49.562C28.4444 49.552 28.4667 49.542 28.489 49.532C28.5483 49.5069 28.6077 49.4844 28.6646 49.4643C28.6794 49.4593 28.6943 49.4518 28.7091 49.4468C28.7809 49.4218 28.8551 49.3992 28.9243 49.3792C28.9664 49.3667 29.0084 49.3567 29.0505 49.3467C29.0703 49.3417 29.0901 49.3366 29.1074 49.3316C29.1692 49.3191 29.2286 49.3066 29.288 49.2966C29.3795 49.2816 29.4685 49.274 29.5551 49.269C29.5724 49.269 29.5898 49.269 29.6095 49.2665C29.6887 49.264 29.7654 49.264 29.8421 49.2665C29.8544 49.2665 29.8693 49.269 29.8817 49.269C29.9435 49.274 30.0029 49.2816 30.0622 49.2916C30.0796 49.2941 30.0993 49.2966 30.1167 49.3016C30.1859 49.3141 30.2527 49.3291 30.317 49.3492C30.3195 49.3492 30.3244 49.3492 30.3269 49.3517C30.3888 49.3692 30.4481 49.3917 30.5075 49.4168C30.5248 49.4243 30.5421 49.4318 30.5594 49.4393C30.6089 49.4618 30.6584 49.4869 30.7079 49.5119C30.7227 49.5219 30.74 49.5295 30.7573 49.537L22.4161 44.6291C22.4161 44.6291 22.4012 44.6216 22.3938 44.6166C22.3864 44.6116 22.3765 44.6091 22.3666 44.6041C22.3196 44.5765 22.2701 44.554 22.2182 44.5315C22.2083 44.5264 22.2009 44.5214 22.191 44.5189C22.1835 44.5164 22.1761 44.5139 22.1662 44.5114C22.1069 44.4864 22.0475 44.4664 21.9856 44.4463C21.9832 44.4463 21.9807 44.4463 21.9782 44.4438C21.9139 44.4238 21.8471 44.4088 21.7779 44.3962C21.7704 44.3962 21.763 44.3912 21.7556 44.3912C21.7457 44.3912 21.7333 44.3912 21.7234 44.3862C21.6641 44.3762 21.6047 44.3687 21.5429 44.3637C21.533 44.3637 21.5231 44.3612 21.5132 44.3612C21.5107 44.3612 21.5057 44.3612 21.5033 44.3612C21.4266 44.3562 21.3499 44.3562 21.2707 44.3612C21.2633 44.3612 21.2559 44.3612 21.2485 44.3612C21.2386 44.3612 21.2287 44.3637 21.2188 44.3637C21.1297 44.3687 21.0432 44.3762 20.9516 44.3912C20.8923 44.4012 20.8329 44.4113 20.7711 44.4263C20.7513 44.4313 20.734 44.4363 20.7142 44.4413C20.6746 44.4513 20.6375 44.4588 20.5979 44.4689C20.5954 44.4689 20.5905 44.4689 20.5855 44.4714C20.5138 44.4914 20.4421 44.5139 20.3703 44.539C20.3555 44.544 20.3406 44.5515 20.3258 44.5565C20.2664 44.5765 20.2095 44.5991 20.1502 44.6241C20.1427 44.6266 20.1353 44.6291 20.1254 44.6341C20.1106 44.6391 20.0957 44.6491 20.0809 44.6542C20.0191 44.6817 19.9547 44.7117 19.8904 44.7418C19.8657 44.7543 19.841 44.7643 19.8187 44.7768C19.7346 44.8194 19.6505 44.8645 19.5639 44.9146L6.46571 52.5693C6.33708 52.6444 6.20845 52.7271 6.08229 52.8147C6.04024 52.8423 6.00066 52.8748 5.96108 52.9049C5.87697 52.9675 5.79287 53.0301 5.70876 53.0977C5.66176 53.1352 5.61724 53.1728 5.57271 53.2128C5.49603 53.2779 5.41934 53.3456 5.34513 53.4132C5.3006 53.4557 5.2536 53.4983 5.20908 53.5409C5.18187 53.5684 5.15218 53.5935 5.12497 53.621C5.05076 53.6936 4.97902 53.7687 4.90976 53.8464C4.90976 53.8464 4.90729 53.8489 4.90481 53.8514C4.8306 53.9315 4.75887 54.0116 4.68713 54.0943C4.66487 54.1218 4.6426 54.1493 4.62034 54.1769C4.56839 54.2395 4.51644 54.3046 4.4645 54.3697C4.42987 54.4123 4.39523 54.4523 4.36308 54.4949C4.33587 54.53 4.31113 54.5675 4.28392 54.6026C4.24681 54.6526 4.20971 54.7052 4.1726 54.7553C4.14787 54.7904 4.12065 54.8254 4.09592 54.8605C4.05386 54.9206 4.01429 54.9832 3.97471 55.0458C3.94997 55.0858 3.92276 55.1234 3.89802 55.1635C3.88813 55.181 3.87576 55.196 3.86586 55.2135C3.79413 55.3262 3.72486 55.4414 3.65807 55.5566C3.65313 55.5641 3.65065 55.5716 3.64571 55.5791C3.63334 55.6017 3.62097 55.6267 3.60613 55.6492C3.55913 55.7319 3.5146 55.8145 3.47007 55.8971C3.45028 55.9372 3.4305 55.9748 3.41071 56.0148C3.39092 56.0549 3.36865 56.095 3.34886 56.1375C3.33155 56.1726 3.31176 56.2076 3.29444 56.2427C3.24992 56.3378 3.20539 56.433 3.16334 56.5307C3.15592 56.5482 3.14849 56.5657 3.14107 56.5807C3.14107 56.5857 3.13613 56.5908 3.13365 56.5958C3.08171 56.716 3.03223 56.8386 2.98771 56.9588C2.98028 56.9814 2.97286 57.0039 2.96297 57.0264C2.94565 57.0715 2.93081 57.1166 2.91597 57.1592C2.89371 57.2193 2.87144 57.2794 2.85165 57.342C2.83681 57.3895 2.82444 57.4371 2.8096 57.4847C2.79228 57.5398 2.77497 57.5974 2.76013 57.6525C2.75023 57.6875 2.73786 57.7201 2.72797 57.7551C2.71065 57.8177 2.69828 57.8803 2.68344 57.9404C2.66613 58.0105 2.64881 58.0781 2.63397 58.1482C2.62902 58.1733 2.6216 58.1958 2.61665 58.2209C2.59192 58.336 2.57213 58.4487 2.55481 58.5614C2.54986 58.5839 2.54739 58.609 2.54491 58.6315C2.53749 58.6816 2.5276 58.7317 2.52265 58.7818C2.51276 58.8494 2.51028 58.917 2.50286 58.9846C2.49791 59.0322 2.49297 59.0797 2.48802 59.1273C2.47565 59.2775 2.4707 59.4278 2.4707 59.5755L2.50039 69.7343L10.8417 74.6421L10.812 64.4834C10.812 64.3356 10.8194 64.1854 10.8293 64.0352C10.8318 63.9876 10.8392 63.94 10.8441 63.8924C10.8565 63.7747 10.8689 63.6571 10.8862 63.5394C10.8887 63.5168 10.8936 63.4918 10.8961 63.4693C10.9184 63.3315 10.9456 63.1938 10.9753 63.0561C10.9901 62.986 11.0074 62.9184 11.0247 62.8483C11.0495 62.7506 11.0742 62.6555 11.1014 62.5578C11.1187 62.5027 11.1336 62.4451 11.1509 62.39C11.1855 62.2824 11.2201 62.1722 11.2597 62.0645C11.2746 62.0194 11.2894 61.9744 11.3067 61.9318C11.3612 61.7816 11.4205 61.6338 11.4848 61.4861C11.4923 61.4686 11.4997 61.4535 11.5071 61.436C11.564 61.3033 11.6258 61.1731 11.6902 61.0404C11.7099 61.0003 11.7297 60.9577 11.752 60.9177C11.8138 60.795 11.8782 60.6723 11.9474 60.5521C11.9598 60.5296 11.9722 60.5045 11.987 60.482C12.0686 60.3417 12.1527 60.204 12.2393 60.0663C12.264 60.0262 12.2913 59.9887 12.316 59.9486C12.3803 59.851 12.4471 59.7533 12.5139 59.6582C12.551 59.6056 12.5881 59.5555 12.6252 59.5054C12.6846 59.4253 12.7439 59.3477 12.8058 59.2725C12.8577 59.2074 12.9097 59.1423 12.9616 59.0797C13.0556 58.9696 13.1496 58.8594 13.2461 58.7542C13.2461 58.7542 13.2486 58.7517 13.251 58.7492C13.35 58.644 13.4514 58.5439 13.5528 58.4437C13.5974 58.4011 13.6419 58.3586 13.6889 58.316C13.7631 58.2459 13.8398 58.1808 13.9165 58.1157C13.961 58.0781 14.008 58.0381 14.0525 58.0005C14.1366 57.9329 14.2207 57.8703 14.3048 57.8077C14.3444 57.7776 14.384 57.7476 14.4261 57.7176C14.5522 57.6299 14.6784 57.5473 14.8095 57.4722L27.9077 49.8174C27.9918 49.7673 28.0783 49.7223 28.1624 49.6797C28.1872 49.6672 28.2119 49.6547 28.2342 49.6446C28.2985 49.6121 28.3628 49.5845 28.4247 49.557L28.4222 49.562Z" fill="#035BE8"/>
<path d="M15.7516 46.5017C15.764 46.3239 15.7813 46.1461 15.8036 45.9684C15.8085 45.9183 15.8184 45.8682 15.8234 45.8206C15.8358 45.738 15.8481 45.6528 15.8605 45.5702C15.8704 45.5126 15.8803 45.4575 15.8902 45.3999C15.905 45.3198 15.9199 45.2372 15.9372 45.1571C15.9495 45.0919 15.9644 45.0268 15.9792 44.9617C15.9916 44.9067 16.004 44.8516 16.0163 44.799C16.0336 44.7289 16.051 44.6562 16.0683 44.5861C16.0806 44.5336 16.0955 44.4785 16.1103 44.4259C16.1227 44.3833 16.1351 44.3382 16.1474 44.2957C16.1969 44.1179 16.2513 43.9376 16.3082 43.7598C16.3132 43.7473 16.3156 43.7323 16.3206 43.7198C16.3775 43.547 16.4393 43.3742 16.5036 43.2014C16.521 43.1589 16.5358 43.1138 16.5531 43.0712C16.61 42.926 16.6669 42.7808 16.7288 42.6355C16.7386 42.613 16.7461 42.5904 16.756 42.5679C16.8252 42.4077 16.897 42.2474 16.9712 42.0896C16.991 42.0471 17.0108 42.007 17.0305 41.9669C17.0924 41.8417 17.1542 41.7165 17.2185 41.5913C17.2383 41.5538 17.2581 41.5162 17.2779 41.4762C17.3595 41.3209 17.4461 41.1657 17.5327 41.0129C17.55 40.9854 17.5673 40.9553 17.5822 40.9278C17.6589 40.7951 17.7405 40.6624 17.8197 40.5322C17.8444 40.4946 17.8667 40.4545 17.8914 40.417C17.9928 40.2592 18.0967 40.1015 18.2031 39.9462C18.2204 39.9237 18.2352 39.9011 18.2525 39.8761C18.3639 39.7158 18.4777 39.5606 18.5939 39.4053C18.6088 39.3853 18.6236 39.3653 18.6409 39.3453C18.7869 39.1549 18.9378 38.9696 19.0936 38.7869C19.1134 38.7618 19.1332 38.7393 19.1554 38.7142C19.2519 38.6041 19.3484 38.4964 19.4449 38.3887C19.4498 38.3837 19.4548 38.3787 19.4597 38.3712C19.5636 38.261 19.6675 38.1508 19.7739 38.0457C19.8407 37.9781 19.9099 37.9105 19.9792 37.8454C19.999 37.8278 20.0163 37.8078 20.0336 37.7903C20.1227 37.7051 20.2142 37.6225 20.3057 37.5424C20.3304 37.5198 20.3552 37.4998 20.3799 37.4773C20.4467 37.4197 20.5135 37.3596 20.5828 37.3045C20.6174 37.2769 20.6496 37.2494 20.6842 37.2219C20.7436 37.1743 20.8054 37.1242 20.8648 37.0791C20.9019 37.0516 20.939 37.024 20.9736 36.9965C21.033 36.9514 21.0948 36.9064 21.1542 36.8638C21.1913 36.8387 21.2259 36.8112 21.263 36.7862C21.3273 36.7411 21.3941 36.696 21.4609 36.6534C21.4931 36.6334 21.5252 36.6109 21.5549 36.5908C21.6514 36.5282 21.7503 36.4681 21.8493 36.4106C21.9804 36.3329 22.109 36.2653 22.2401 36.1977C22.2772 36.1777 22.3143 36.1602 22.3514 36.1426C22.4504 36.0951 22.5469 36.05 22.6433 36.0074C22.678 35.9924 22.7126 35.9774 22.7472 35.9623C22.8388 35.9248 22.9278 35.8897 23.0193 35.8572C23.0416 35.8497 23.0639 35.8396 23.0861 35.8321C23.1974 35.7946 23.3088 35.7595 23.4176 35.7295C23.4819 35.7119 23.5462 35.6969 23.6106 35.6819C23.6402 35.6744 23.6699 35.6669 23.6996 35.6594C23.7936 35.6393 23.8851 35.6218 23.9791 35.6068C23.9816 35.6068 23.9841 35.6068 23.989 35.6068C24.0731 35.5942 24.1572 35.5842 24.2389 35.5767C24.2661 35.5742 24.2933 35.5717 24.3205 35.5717C24.3799 35.5667 24.4392 35.5642 24.4986 35.5617C24.5258 35.5617 24.5506 35.5617 24.5753 35.5617C24.6371 35.5617 24.6965 35.5617 24.7559 35.5642C24.7757 35.5642 24.7979 35.5642 24.8177 35.5642C24.84 35.5642 24.8647 35.5692 24.887 35.5692C24.981 35.5767 25.0725 35.5867 25.164 35.6018C25.1912 35.6068 25.2209 35.6118 25.2481 35.6168C25.352 35.6368 25.4559 35.6594 25.5549 35.6894C25.5598 35.6894 25.5648 35.6919 25.5697 35.6944C25.6637 35.722 25.7552 35.757 25.8468 35.7921C25.874 35.8021 25.8987 35.8146 25.9259 35.8271C26.0026 35.8622 26.0793 35.8997 26.1535 35.9398C26.1782 35.9523 26.203 35.9648 26.2277 35.9799L17.8419 31.047C17.8419 31.047 17.8196 31.0345 17.8073 31.0269C17.7949 31.0194 17.7801 31.0144 17.7677 31.0069C17.6935 30.9668 17.6193 30.9293 17.5401 30.8942C17.5253 30.8867 17.5129 30.8792 17.4981 30.8742C17.4857 30.8692 17.4733 30.8667 17.461 30.8617C17.3694 30.8241 17.2779 30.7916 17.1839 30.7615C17.179 30.7615 17.1765 30.759 17.1715 30.7565C17.0726 30.7265 16.9687 30.7039 16.8648 30.6839C16.8524 30.6839 16.8425 30.6789 16.8302 30.6764C16.8153 30.6739 16.798 30.6739 16.7807 30.6714C16.6892 30.6563 16.5976 30.6463 16.5036 30.6388C16.4888 30.6388 16.474 30.6338 16.4591 30.6338C16.4517 30.6338 16.4418 30.6338 16.4344 30.6338C16.4146 30.6338 16.3923 30.6338 16.3725 30.6338C16.3132 30.6338 16.2513 30.6313 16.192 30.6313C16.1672 30.6313 16.14 30.6313 16.1153 30.6313C16.0955 30.6313 16.0757 30.6313 16.0559 30.6313C16.0163 30.6313 15.9792 30.6363 15.9396 30.6388C15.9124 30.6388 15.8852 30.6413 15.858 30.6438C15.7764 30.6513 15.6923 30.6614 15.6082 30.6739C15.6057 30.6739 15.6008 30.6739 15.5983 30.6739C15.5068 30.6889 15.4152 30.7064 15.3212 30.7265C15.2915 30.734 15.2619 30.7415 15.2322 30.749C15.1753 30.7615 15.1159 30.7765 15.059 30.7916C15.0541 30.7916 15.0466 30.7966 15.0417 30.7966C14.9329 30.8266 14.8215 30.8617 14.7102 30.8992C14.688 30.9068 14.6657 30.9168 14.6434 30.9243C14.5544 30.9568 14.4629 30.9919 14.3713 31.0294C14.359 31.0345 14.3466 31.037 14.3342 31.0445C14.312 31.0545 14.2897 31.067 14.2674 31.0745C14.171 31.1171 14.072 31.1622 13.9755 31.2097C13.9384 31.2273 13.9013 31.2448 13.8642 31.2648C13.7356 31.3299 13.6045 31.4 13.4734 31.4777C13.3744 31.5353 13.2755 31.5954 13.179 31.658C13.1469 31.678 13.1172 31.7005 13.085 31.7206C13.0182 31.7631 12.9539 31.8082 12.8871 31.8533C12.85 31.8783 12.8154 31.9058 12.7783 31.9309C12.7164 31.9735 12.6571 32.0185 12.5977 32.0636C12.5606 32.0911 12.5235 32.1187 12.4889 32.1462C12.427 32.1938 12.3676 32.2414 12.3083 32.289C12.2736 32.3165 12.239 32.344 12.2069 32.3716C12.1376 32.4292 12.0708 32.4868 12.004 32.5444C11.9793 32.5669 11.9545 32.5869 11.9298 32.6095C11.8383 32.6896 11.7492 32.7722 11.6577 32.8574C11.6379 32.8749 11.6206 32.8924 11.6033 32.91C11.5439 32.9675 11.4845 33.0251 11.4252 33.0827C11.4153 33.0902 11.4078 33.1003 11.4004 33.1103C11.2941 33.2154 11.1902 33.3256 11.0863 33.4358C11.0813 33.4408 11.0764 33.4483 11.069 33.4533C10.9725 33.5585 10.876 33.6662 10.7795 33.7763C10.7696 33.7864 10.7622 33.7964 10.7523 33.8064C10.74 33.8189 10.7301 33.8339 10.7177 33.849C10.5643 34.0292 10.411 34.2145 10.265 34.4074C10.2601 34.4124 10.2551 34.4174 10.2526 34.4224C10.2403 34.4374 10.2304 34.4524 10.2205 34.4674C10.1042 34.6202 9.99048 34.7779 9.87916 34.9357C9.86927 34.9507 9.8569 34.9657 9.84453 34.9833C9.83958 34.9908 9.83463 34.9983 9.82969 35.0058C9.72332 35.1611 9.61942 35.3163 9.518 35.4766C9.50811 35.4916 9.49821 35.5066 9.48832 35.5216C9.47348 35.5442 9.46111 35.5692 9.44626 35.5917C9.36463 35.722 9.28548 35.8547 9.20879 35.9874C9.19642 36.0074 9.18405 36.0274 9.17169 36.05C9.16674 36.0575 9.16426 36.065 9.15932 36.075C9.07274 36.2278 8.98616 36.383 8.90453 36.5383C8.89711 36.5508 8.88968 36.5633 8.88474 36.5758C8.87237 36.6009 8.86 36.6284 8.84516 36.6534C8.78084 36.7761 8.719 36.9013 8.65716 37.0265C8.64479 37.0516 8.62995 37.0791 8.61758 37.1042C8.61016 37.1192 8.60274 37.1367 8.59532 37.1517C8.52111 37.3095 8.4469 37.4698 8.38011 37.63C8.38011 37.635 8.37516 37.64 8.37268 37.645C8.36526 37.6626 8.35784 37.6801 8.35042 37.6976C8.28858 37.8428 8.23168 37.9881 8.17479 38.1333C8.16489 38.1558 8.155 38.1809 8.14511 38.2034C8.13768 38.2235 8.13026 38.2435 8.12532 38.2635C8.061 38.4363 7.99916 38.6091 7.94226 38.7819C7.94226 38.7844 7.93979 38.7894 7.93979 38.7919C7.93731 38.8019 7.93484 38.8119 7.92989 38.8219C7.87053 38.9997 7.81858 39.18 7.7691 39.3578C7.76168 39.3803 7.75426 39.4028 7.74931 39.4254C7.74437 39.4454 7.73942 39.4679 7.73447 39.488C7.71963 39.5406 7.70726 39.5957 7.69242 39.6482C7.6751 39.7183 7.65779 39.791 7.64047 39.8611C7.6281 39.9162 7.61574 39.9713 7.60337 40.0238C7.59595 40.0614 7.58605 40.099 7.57863 40.1365C7.57368 40.1641 7.56874 40.1891 7.56379 40.2166C7.54647 40.2993 7.53163 40.3794 7.51679 40.462C7.50689 40.5171 7.497 40.5747 7.4871 40.6298C7.47226 40.7149 7.46237 40.7976 7.45 40.8827C7.44505 40.9228 7.43763 40.9603 7.43268 41.0004C7.43268 41.0104 7.43268 41.0204 7.43021 41.0304C7.40795 41.2107 7.39063 41.3885 7.37826 41.5638C7.37579 41.6014 7.37331 41.6389 7.37084 41.6765C7.36095 41.8593 7.35352 42.0396 7.35352 42.2173C7.35847 44.1805 8.04368 45.5602 9.14695 46.2087L17.5327 51.1416C16.4294 50.4931 15.7442 49.1109 15.7393 47.1502C15.7393 46.9725 15.7467 46.7922 15.7566 46.6094C15.7566 46.5718 15.7615 46.5343 15.764 46.4967L15.7516 46.5017Z" fill="#EFF3FA"/>
<path d="M21.8558 36.4108C25.2522 34.4251 28.0128 36.0176 28.0252 39.9664C28.0351 43.9153 25.2918 48.728 21.8954 50.7111C18.5015 52.6943 15.7384 51.1018 15.7285 47.1529C15.7186 43.2041 18.4619 38.3939 21.8558 36.4108Z" fill="white"/>
<path d="M5.23204 34.2656L4.88281 34.874L11.2629 38.6268L11.6121 38.0184L5.23204 34.2656Z" fill="#035BE8"/>
<path d="M2.13893 59.107C2.1414 59.0694 2.14635 59.0319 2.14883 58.9943L2.15872 58.8916C2.16367 58.8416 2.16862 58.7915 2.17356 58.7414L2.20819 58.5085C2.22798 58.3908 2.24777 58.2706 2.27498 58.1504L2.2923 58.0753C2.30714 58.0127 2.32198 57.9526 2.34425 57.8575L2.35909 57.7899C2.36898 57.7473 2.37888 57.7047 2.39125 57.6622L2.42341 57.557C2.44072 57.4994 2.45804 57.4393 2.47535 57.3817L2.49019 57.3291C2.50009 57.2966 2.50998 57.264 2.51988 57.234C2.53472 57.1914 2.54956 57.1488 2.56441 57.1063L2.66088 56.8358C2.70788 56.7081 2.75983 56.5829 2.8192 56.4427L2.84393 56.3901C2.88846 56.29 2.93051 56.1898 2.97751 56.0922L3.15562 55.7341C3.20014 55.6464 3.24962 55.5638 3.31146 55.4511L3.35104 55.381C3.4203 55.2608 3.49204 55.1431 3.56625 55.0229L3.71714 54.7951C3.74683 54.75 3.77651 54.7049 3.8062 54.6599L3.88535 54.5522C3.92246 54.4996 3.96204 54.447 4.00162 54.3944L4.08325 54.2818C4.10551 54.2542 4.12778 54.2267 4.15004 54.1991L4.18962 54.1515C4.24404 54.0839 4.29599 54.0163 4.35041 53.9512L4.41967 53.8636C4.49388 53.7785 4.56809 53.6933 4.64972 53.6057C4.72394 53.5255 4.79815 53.4479 4.87483 53.3728L4.96388 53.2877C5.01088 53.2426 5.05788 53.1975 5.10488 53.155C5.18404 53.0823 5.2632 53.0122 5.35967 52.9296C5.40173 52.8945 5.44378 52.857 5.48831 52.8219C5.57488 52.7518 5.66394 52.6842 5.75299 52.6191L5.79504 52.589C5.82473 52.5665 5.85194 52.5465 5.88162 52.5264C6.0152 52.4338 6.15125 52.3462 6.28731 52.266L12.526 48.6202L8.95394 46.5193C7.69236 45.7756 6.99231 44.2507 6.98736 42.2225C6.98736 42.0372 6.99478 41.8494 7.00715 41.629L7.0121 41.5439C7.02447 41.3611 7.04178 41.1758 7.06404 40.9955C7.06404 40.9905 7.06652 40.9629 7.06899 40.9579L7.08631 40.8377C7.09868 40.7501 7.11104 40.665 7.12589 40.5773L7.15557 40.4046C7.17041 40.3194 7.18526 40.2368 7.20999 40.1216L7.2842 39.7836C7.30152 39.7109 7.31883 39.6383 7.33862 39.5632L7.41778 39.2652C7.46973 39.0824 7.52415 38.8971 7.58599 38.7093C7.58599 38.7043 7.59589 38.6768 7.59836 38.6718C7.65773 38.494 7.71957 38.3162 7.79378 38.1209C7.79378 38.1159 7.80862 38.0808 7.80862 38.0783L7.83831 38.0057C7.8952 37.8555 7.95457 37.7077 8.02631 37.5425L8.04857 37.4899C8.12031 37.3246 8.19452 37.1619 8.27615 36.9866C8.27615 36.9816 8.28852 36.9565 8.29099 36.9515L8.33057 36.8739C8.39242 36.7462 8.45673 36.6185 8.53589 36.4632L8.5631 36.4082L8.58289 36.3706C8.66699 36.2103 8.75357 36.0526 8.85747 35.8723L8.89705 35.8072C8.97621 35.672 9.05784 35.5368 9.15678 35.3765L9.21368 35.2864C9.31757 35.1236 9.42394 34.9633 9.54763 34.7831L9.58226 34.7355C9.69605 34.5727 9.81231 34.4125 9.94342 34.2422L9.98052 34.1921C10.1314 33.9968 10.2848 33.8065 10.4505 33.6112C10.453 33.6062 10.4753 33.5811 10.4777 33.5786L10.505 33.5461C10.6014 33.4334 10.7004 33.3232 10.8166 33.1955C10.923 33.0803 11.0294 32.9702 11.1382 32.86L11.1654 32.8324C11.2273 32.7723 11.2866 32.7122 11.3707 32.6346L11.4079 32.5996C11.4994 32.5119 11.5934 32.4268 11.6874 32.3442L11.7641 32.2765C11.8333 32.2164 11.9026 32.1564 11.9719 32.0988L12.0782 32.0136C12.1401 31.9635 12.2019 31.9135 12.2662 31.8659L12.38 31.7808C12.4419 31.7332 12.5062 31.6881 12.568 31.643L12.6818 31.5629C12.7511 31.5153 12.8179 31.4703 12.8896 31.4227L12.9861 31.3576C13.0875 31.2925 13.1889 31.2299 13.2928 31.1698C13.4289 31.0896 13.5649 31.017 13.6985 30.9494L13.8147 30.8918C13.9186 30.8418 14.0201 30.7942 14.1413 30.7416L14.2303 30.704C14.3268 30.664 14.4233 30.6264 14.5395 30.5838L14.589 30.5663C14.7078 30.5262 14.824 30.4887 14.9601 30.4511C15.0095 30.4386 15.059 30.4261 15.1085 30.4136L15.2421 30.381C15.341 30.3585 15.44 30.3409 15.5389 30.3259C15.5439 30.3259 15.5488 30.3259 15.5538 30.3259C15.6428 30.3134 15.7319 30.3009 15.8209 30.2934L15.8828 30.2884L15.9446 30.2834C15.9768 30.2809 16.0064 30.2783 16.0386 30.2758H16.187C16.2538 30.2733 16.3206 30.2733 16.4072 30.2758H16.4839C16.5012 30.2809 16.516 30.2809 16.5309 30.2834C16.6348 30.2909 16.7362 30.3034 16.8376 30.3184C16.845 30.3184 16.8796 30.3234 16.8871 30.3259C16.9044 30.3284 16.9192 30.3334 16.9291 30.3359C17.0281 30.3535 17.127 30.376 17.2433 30.4086C17.2581 30.4111 17.273 30.4161 17.2829 30.4186C17.3892 30.4511 17.4906 30.4887 17.5846 30.5262C17.5945 30.5287 17.6242 30.5388 17.6341 30.5438C17.6514 30.5513 17.6663 30.5588 17.6787 30.5663C17.7652 30.6039 17.8493 30.6464 17.931 30.6915C17.9409 30.6965 17.9681 30.709 17.978 30.714L26.4009 35.6695C26.4033 35.6695 26.4058 35.672 26.4083 35.6745C27.6649 36.4182 28.36 37.9406 28.365 39.9638C28.3699 42.0923 27.5957 44.4686 26.3514 46.5419L30.9253 49.2312C30.9253 49.2312 30.9327 49.2362 30.9376 49.2387C31.7935 49.747 32.266 50.7761 32.2709 52.1383L32.3006 62.2996C32.3006 62.4248 32.2338 62.5425 32.1275 62.6051L11.0071 74.9473C10.9527 74.9799 10.8933 74.9949 10.834 74.9949C10.8191 74.9949 10.8043 74.9949 10.7894 74.9924C10.7795 74.9924 10.7696 74.9899 10.7597 74.9874C10.7548 74.9874 10.7498 74.9874 10.7449 74.9849C10.7152 74.9774 10.688 74.9649 10.6608 74.9498L2.31951 70.0445C2.21314 69.9819 2.14635 69.8667 2.14635 69.7415L2.11914 59.5802C2.11914 59.4225 2.12656 59.2647 2.13893 59.1045V59.107ZM17.6712 31.3501L17.6465 31.335C17.6465 31.335 17.6119 31.3175 17.6069 31.315C17.5426 31.28 17.4758 31.2474 17.409 31.2174C17.3942 31.2098 17.3793 31.2048 17.3793 31.2023C17.3719 31.1998 17.3472 31.1898 17.3373 31.1873C17.2606 31.1573 17.1839 31.1272 17.0874 31.0972C17.085 31.0972 17.0825 31.0972 17.08 31.0972C16.991 31.0721 16.8994 31.0521 16.8079 31.0346L16.7758 31.027C16.7758 31.027 16.7362 31.022 16.7312 31.022C16.6496 31.0095 16.5655 30.9995 16.4814 30.992L16.4171 30.987H16.3626C16.3082 30.982 16.2538 30.982 16.1969 30.982L15.8902 30.997C15.8135 31.0045 15.7368 31.0145 15.6552 31.0245C15.6527 31.0245 15.6502 31.0245 15.6502 31.0245C15.5661 31.0371 15.4795 31.0546 15.393 31.0721L15.2718 31.1022C15.2297 31.1122 15.1901 31.1222 15.1308 31.1372C15.0269 31.1648 14.9254 31.1973 14.7943 31.2449C14.7919 31.2449 14.7597 31.2574 14.7548 31.2599C14.6706 31.29 14.5841 31.3225 14.4975 31.3601L14.4431 31.3826C14.4431 31.3826 14.406 31.4001 14.401 31.4026C14.3095 31.4427 14.2155 31.4853 14.0968 31.5454L14.0176 31.5854C13.8939 31.648 13.7702 31.7156 13.6441 31.7883C13.5501 31.8434 13.4536 31.9009 13.3621 31.961L13.2705 32.0211C13.2062 32.0637 13.1444 32.1063 13.0801 32.1488L12.9762 32.224C12.9168 32.2665 12.8599 32.3091 12.8005 32.3517L12.6942 32.4318C12.6348 32.4769 12.5779 32.5244 12.4938 32.5895L12.4196 32.6496C12.3528 32.7047 12.2885 32.7598 12.2242 32.8174L12.1524 32.88C12.0634 32.9576 11.9768 33.0378 11.8877 33.1229L11.8605 33.1479C11.8605 33.1479 11.8333 33.173 11.8333 33.1755C11.7764 33.2306 11.7171 33.2857 11.6602 33.3433L11.6354 33.3683C11.5315 33.471 11.4301 33.5761 11.3139 33.7013C11.2199 33.804 11.1259 33.9092 11.0318 34.0168L10.9972 34.0569C10.9972 34.0569 10.975 34.0844 10.9725 34.0869C10.8216 34.2622 10.6756 34.445 10.5322 34.6303L10.5099 34.6579C10.5099 34.6579 10.4901 34.6854 10.4876 34.6904C10.3738 34.8406 10.2625 34.9934 10.1537 35.1486C10.1537 35.1511 10.1339 35.1762 10.1314 35.1787L10.1067 35.2162C10.0028 35.3665 9.90137 35.5192 9.80242 35.6745L9.78263 35.707L9.75789 35.7471L9.73315 35.7872C9.654 35.9149 9.57484 36.0426 9.50063 36.1703L9.45115 36.2554C9.36457 36.4057 9.28294 36.5559 9.20378 36.7061C9.20378 36.7061 9.18152 36.7437 9.18152 36.7462L9.14442 36.8188C9.08257 36.939 9.02073 37.0617 8.96136 37.1844L8.91684 37.272C8.91684 37.272 8.902 37.3021 8.902 37.3046C8.82778 37.4598 8.75852 37.6151 8.69421 37.7653L8.67936 37.8029C8.67936 37.8029 8.66699 37.8354 8.66452 37.8379C8.60515 37.9782 8.54826 38.1209 8.49384 38.2636L8.4592 38.3538C8.4592 38.3538 8.44684 38.3863 8.44684 38.3888C8.38499 38.5566 8.32315 38.7244 8.26873 38.8921C8.26873 38.8946 8.25636 38.9297 8.25636 38.9322C8.19947 39.105 8.14752 39.2803 8.09805 39.453C8.09805 39.4555 8.08073 39.5131 8.07826 39.5181L8.06341 39.5782L8.02384 39.7335C8.00652 39.8036 7.9892 39.8712 7.97189 39.9413L7.91994 40.1792L15.675 44.7415L15.6824 44.7114C15.6997 44.6388 15.717 44.5637 15.7442 44.4585L15.816 44.1931C15.8679 44.0103 15.9223 43.825 15.9817 43.6422L15.9941 43.5997C16.0534 43.4219 16.1153 43.2441 16.1821 43.0688L16.234 42.9361C16.2909 42.7859 16.3503 42.6381 16.427 42.4603L16.4443 42.4203C16.5135 42.255 16.5902 42.0923 16.6669 41.9295L16.7288 41.8043C16.7906 41.6766 16.8549 41.5489 16.9217 41.4212L16.9811 41.3035C17.0652 41.1432 17.1518 40.9855 17.2408 40.8302L17.2928 40.7426C17.3719 40.6074 17.4535 40.4722 17.5377 40.3394L17.6119 40.2218C17.7158 40.059 17.8221 39.8987 17.931 39.741L17.9804 39.6709C18.0942 39.5081 18.2105 39.3479 18.3515 39.1626L18.3787 39.1275C18.5296 38.9322 18.683 38.7419 18.8413 38.5566L18.9031 38.4815C19.0021 38.3688 19.101 38.2561 19.2148 38.1309C19.3212 38.0157 19.4276 37.9056 19.5364 37.7954C19.6057 37.7253 19.6749 37.6577 19.7664 37.57L19.8035 37.5325C19.8951 37.4448 19.9891 37.3597 20.0831 37.277L20.1598 37.2094C20.229 37.1493 20.2983 37.0892 20.37 37.0317L20.4764 36.9465C20.4937 36.9315 20.511 36.919 20.5283 36.9065C20.5605 36.8814 20.5927 36.8539 20.6248 36.8288C20.6372 36.8188 20.6496 36.8088 20.6644 36.7988L20.6966 36.7737C20.7163 36.7587 20.7386 36.7412 20.7584 36.7262L20.7757 36.7111C20.7757 36.7111 20.7881 36.7036 20.793 36.6986C21.0849 36.4783 21.3842 36.2804 21.686 36.1027C22.5766 35.5818 23.4473 35.2839 24.2537 35.2137L17.6762 31.3451L17.6712 31.3501ZM26.0471 36.2779C26.0471 36.2779 26.0372 36.2729 26.0323 36.2704C26.0323 36.2704 25.9952 36.2504 25.9927 36.2504C25.9284 36.2153 25.8616 36.1828 25.7948 36.1527L25.7256 36.1227C25.6538 36.0926 25.5796 36.0651 25.493 36.0401C25.4782 36.0351 25.4633 36.0326 25.4485 36.0275C25.3644 36.005 25.2803 35.985 25.1937 35.97L25.1195 35.9574C25.0379 35.9449 24.9538 35.9349 24.8697 35.9274C24.8672 35.9274 24.8103 35.9224 24.8078 35.9224C24.8078 35.9224 24.7509 35.9224 24.7485 35.9224C24.694 35.9224 24.6396 35.9174 24.5852 35.9199H24.5135C24.459 35.9224 24.4071 35.9249 24.3205 35.9324H24.2785C24.2018 35.9424 24.1251 35.9524 24.0385 35.9649C23.9544 35.9775 23.8678 35.995 23.7812 36.0125L23.6996 36.0326C23.6402 36.0476 23.5809 36.0601 23.519 36.0776C23.4176 36.1052 23.3137 36.1377 23.1801 36.1853C23.1801 36.1853 23.1455 36.1978 23.143 36.1978C23.0589 36.2279 22.9723 36.2604 22.8858 36.2955L22.7868 36.338C22.6953 36.3781 22.6013 36.4207 22.4924 36.4733L22.4034 36.5183C22.2797 36.5809 22.156 36.6485 22.0299 36.7212C21.9359 36.7762 21.8394 36.8338 21.7479 36.8939L21.6563 36.954C21.592 36.9966 21.5302 37.0392 21.4659 37.0817L21.3595 37.1569C21.3001 37.1994 21.2432 37.242 21.1839 37.2846L21.0775 37.3647C21.0181 37.4098 20.9612 37.4573 20.9019 37.5024L20.8029 37.5825C20.7361 37.6376 20.6718 37.6927 20.6075 37.7503L20.5358 37.8129C20.4467 37.8905 20.3601 37.9707 20.2736 38.0533L20.2439 38.0808C20.2439 38.0808 20.2191 38.1034 20.2191 38.1059C20.1523 38.1685 20.0856 38.2336 20.0212 38.2987C19.9173 38.4013 19.8159 38.5065 19.7021 38.6317C19.6057 38.7344 19.5117 38.842 19.4201 38.9472L19.3608 39.0173C19.2099 39.1951 19.0639 39.3754 18.9007 39.5882L18.8759 39.6208C18.7621 39.771 18.6508 39.9238 18.542 40.079L18.4925 40.1466C18.3886 40.2969 18.2872 40.4496 18.1882 40.6049L18.1165 40.7176C18.0373 40.8453 17.9582 40.973 17.884 41.1032L17.8345 41.1883C17.7479 41.3385 17.6663 41.4888 17.5846 41.639L17.5278 41.7517C17.4659 41.8719 17.4041 41.9946 17.3447 42.1173L17.2853 42.2375C17.2111 42.3927 17.1419 42.548 17.0627 42.7333L17.0479 42.7708C16.9885 42.9111 16.9316 43.0538 16.8772 43.194L16.8277 43.3217C16.7659 43.4895 16.704 43.6573 16.6496 43.8275C16.6446 43.84 16.6422 43.8526 16.6372 43.8676C16.5803 44.0429 16.5284 44.2156 16.4789 44.3909L16.4022 44.6714C16.3849 44.7415 16.3676 44.8091 16.3503 44.8792L16.2736 45.2248C16.2588 45.3049 16.2439 45.3825 16.2291 45.4601L16.1994 45.6254C16.187 45.7055 16.1746 45.7882 16.1623 45.8683L16.1425 46.011C16.1202 46.1838 16.1054 46.3541 16.093 46.5243L16.0856 46.6345C16.0757 46.8098 16.0683 46.9826 16.0683 47.1528C16.0683 47.1528 16.0683 47.1529 16.0683 47.1554C16.0683 47.2104 16.0683 47.263 16.0683 47.3181C16.0683 47.3532 16.0683 47.3857 16.0708 47.4208C16.0708 47.4408 16.0708 47.4608 16.0708 47.4809C16.0708 47.5284 16.0757 47.5735 16.0782 47.6211C16.0782 47.6261 16.0782 47.6336 16.0782 47.6411C16.0806 47.6912 16.0856 47.7438 16.0905 47.7939C16.0905 47.7939 16.0905 47.7939 16.0905 47.7964C16.187 48.8756 16.521 49.747 17.0652 50.3404C17.0652 50.3404 17.0677 50.343 17.0701 50.3455C17.0924 50.3705 17.1171 50.3955 17.1419 50.4206C17.1443 50.4231 17.1468 50.4256 17.1493 50.4281C17.1715 50.4506 17.1963 50.4732 17.221 50.4957C17.226 50.4982 17.2284 50.5032 17.2334 50.5057C17.2557 50.5257 17.2804 50.5483 17.3026 50.5683C17.3076 50.5733 17.3125 50.5783 17.3175 50.5808C17.3398 50.6009 17.3645 50.6184 17.3868 50.6384C17.3942 50.6434 17.3991 50.6484 17.4065 50.6534C17.4288 50.671 17.4511 50.6885 17.4758 50.7035C17.4832 50.7085 17.4906 50.7135 17.4981 50.7211C17.5203 50.7361 17.5426 50.7511 17.5673 50.7686C17.5748 50.7736 17.5847 50.7812 17.5921 50.7862C17.6143 50.8012 17.6366 50.8137 17.6613 50.8287C17.6737 50.8362 17.6836 50.8438 17.696 50.8513C18.7498 51.4647 20.1771 51.3095 21.7108 50.4131C25.0057 48.4875 27.6773 43.805 27.6649 39.9739C27.66 38.201 27.0811 36.8914 26.0348 36.2805L26.0471 36.2779ZM25.9853 47.1403C24.9092 48.7654 23.5487 50.1552 22.0694 51.019C21.0429 51.62 20.0435 51.923 19.1381 51.923C18.4925 51.923 17.8914 51.7702 17.3595 51.4597C17.3571 51.4597 17.3546 51.4547 17.3497 51.4547C17.3497 51.4547 17.3497 51.4547 17.3472 51.4547L13.226 49.0309L6.64104 52.8795C6.51983 52.9496 6.4011 53.0272 6.28236 53.1099L6.16857 53.1925C6.08941 53.2526 6.00778 53.3127 5.92862 53.3753C5.89152 53.4054 5.85194 53.4379 5.79752 53.483C5.72578 53.5431 5.65652 53.6057 5.58478 53.6708L13.2977 58.208C13.2977 58.208 13.3076 58.2005 13.3101 58.1955C13.3324 58.1755 13.3522 58.1555 13.3744 58.1354C13.3868 58.1229 13.3992 58.1129 13.4091 58.1029C13.4239 58.0903 13.4363 58.0753 13.4511 58.0628C13.4833 58.0353 13.513 58.0052 13.5451 57.9777C13.8914 57.6672 14.2551 57.3942 14.6311 57.1764L27.7292 49.5216C28.1992 49.2462 28.6618 49.0659 29.1021 48.9783L25.9828 47.1428L25.9853 47.1403ZM11.1852 74.0384L31.6105 62.1018L31.5833 52.1458C31.5808 51.0366 31.2246 50.2178 30.5814 49.8422C30.5814 49.8422 30.5591 49.8296 30.5493 49.8246C30.5097 49.8021 30.4701 49.7846 30.428 49.7645L30.3885 49.747C30.3885 49.747 30.3835 49.747 30.381 49.7445C30.3514 49.732 30.3241 49.722 30.292 49.7119C30.2673 49.7044 30.2425 49.6944 30.2178 49.6869C30.1658 49.6719 30.1139 49.6619 30.0619 49.6518L30.0149 49.6443C29.9655 49.6368 29.9135 49.6293 29.8294 49.6243C29.7651 49.6193 29.6958 49.6193 29.629 49.6243C29.6142 49.6243 29.5994 49.6243 29.5845 49.6243C29.5078 49.6318 29.4287 49.6368 29.3495 49.6493C29.2976 49.6569 29.2431 49.6669 29.1887 49.6794C29.1714 49.6819 29.1541 49.6869 29.1368 49.6894C29.0997 49.6994 29.0626 49.7094 29.0255 49.7195C28.9611 49.737 28.8968 49.757 28.83 49.7796C28.8152 49.7846 28.8028 49.7871 28.788 49.7921C28.7336 49.8121 28.6816 49.8346 28.6272 49.8547L28.595 49.8697C28.595 49.8697 28.5728 49.8797 28.5654 49.8822C28.506 49.9073 28.4466 49.9348 28.3798 49.9699L28.3229 49.9974C28.2908 50.0149 28.2561 50.0325 28.224 50.05C28.1795 50.075 28.1325 50.1001 28.0879 50.1251L14.9898 57.7799C14.9675 57.7924 14.9452 57.8074 14.923 57.8224C14.824 57.8825 14.7275 57.9451 14.6311 58.0127L14.5148 58.0979C14.4356 58.1555 14.354 58.2156 14.2749 58.2807C14.2378 58.3107 14.1982 58.3433 14.1438 58.3908C14.072 58.4534 13.9978 58.516 13.9285 58.5811C13.884 58.6212 13.842 58.6613 13.7999 58.7038C13.7034 58.799 13.6045 58.8941 13.508 58.9993C13.414 59.0995 13.325 59.2071 13.2359 59.3123C13.184 59.3724 13.1345 59.435 13.085 59.4976C13.0256 59.5727 12.9687 59.6453 12.9094 59.723C12.8723 59.7705 12.8376 59.8206 12.803 59.8707C12.7387 59.9633 12.6744 60.056 12.6125 60.1511L12.5383 60.2638C12.4542 60.3965 12.3726 60.5293 12.2959 60.6645L12.2588 60.7321C12.1945 60.8498 12.1302 60.9649 12.0708 61.0826L12.0114 61.2003C11.9496 61.3255 11.8902 61.4532 11.8333 61.5809H11.8309C11.8234 61.596 11.816 61.611 11.8111 61.626H11.8135C11.7517 61.7687 11.6948 61.914 11.6429 62.0567L11.5983 62.1844C11.5612 62.2871 11.5266 62.3922 11.4944 62.4974C11.4771 62.55 11.4623 62.6051 11.445 62.6577C11.4177 62.7503 11.3955 62.843 11.3732 62.9331L11.3633 62.9682C11.3485 63.0232 11.3361 63.0783 11.3237 63.1309C11.2941 63.2636 11.2693 63.3938 11.2471 63.524L11.2372 63.5917C11.2199 63.7043 11.2075 63.8145 11.1976 63.9247L11.1852 64.0599C11.1753 64.2026 11.1679 64.3429 11.1679 64.4806L11.1951 74.0334L11.1852 74.0384ZM2.84641 69.5387L10.4901 74.0359L10.4678 66.3686L2.82414 61.8714L2.84641 69.5412V69.5387Z" fill="#035BE8"/>
<path d="M33.6773 7.41454C33.702 7.40954 33.7268 7.40202 33.749 7.39952C33.7663 7.39701 33.7861 7.39201 33.8034 7.39201C33.8208 7.39201 33.8406 7.387 33.8579 7.387C33.8777 7.387 33.895 7.3845 33.9148 7.3845C33.9296 7.3845 33.9445 7.3845 33.9593 7.3845C33.9791 7.3845 33.9989 7.3845 34.0162 7.3895C34.0286 7.3895 34.0409 7.39201 34.0533 7.39451C34.0731 7.39702 34.0929 7.40202 34.1127 7.40703C34.1226 7.40703 34.1325 7.41204 34.1423 7.41454C34.1671 7.42206 34.1893 7.42957 34.2116 7.43958C34.2166 7.43958 34.2215 7.44209 34.224 7.44459C34.2512 7.45711 34.2784 7.46963 34.3056 7.48466L27.9037 3.71863C27.9037 3.71863 27.8988 3.71613 27.8963 3.71362C27.874 3.7011 27.8493 3.68858 27.8245 3.67857C27.8196 3.67857 27.8171 3.67606 27.8122 3.67356C27.7924 3.66605 27.7726 3.65853 27.7503 3.65102C27.7479 3.65102 27.7429 3.65102 27.7404 3.65102C27.7305 3.64852 27.7207 3.64601 27.7108 3.64351C27.6984 3.64101 27.6835 3.636 27.6712 3.63349C27.6662 3.63349 27.6588 3.63349 27.6539 3.63349C27.6415 3.63349 27.6291 3.63099 27.6168 3.62849C27.6069 3.62849 27.597 3.62598 27.5846 3.62598C27.5772 3.62598 27.5673 3.62598 27.5599 3.62598C27.545 3.62598 27.5302 3.62598 27.5153 3.62598C27.5054 3.62598 27.498 3.62598 27.4881 3.62598C27.4782 3.62598 27.4683 3.62598 27.4584 3.62849C27.4411 3.62849 27.4238 3.63099 27.404 3.63349C27.3966 3.63349 27.3867 3.63349 27.3793 3.636C27.3694 3.636 27.3595 3.64101 27.3521 3.64101C27.3273 3.64601 27.3051 3.65102 27.2803 3.65603C27.2704 3.65603 27.2605 3.65853 27.2507 3.66354C27.2457 3.66354 27.2383 3.66855 27.2309 3.67105C27.1789 3.68608 27.127 3.70361 27.0701 3.72614L19.9557 6.68087C19.9063 6.7009 19.8568 6.71843 19.8073 6.73345C19.7925 6.73846 19.7752 6.74097 19.7603 6.74597C19.7356 6.75349 19.7084 6.75849 19.6836 6.7635C19.6663 6.76601 19.649 6.76851 19.6317 6.77101C19.6119 6.77352 19.5946 6.77602 19.5748 6.77602C19.555 6.77602 19.5377 6.77853 19.5204 6.77853C19.5055 6.77853 19.4907 6.77853 19.4758 6.77853C19.4561 6.77853 19.4363 6.77853 19.419 6.77352C19.4066 6.77352 19.3917 6.77101 19.3794 6.76851C19.3596 6.76601 19.3398 6.761 19.32 6.75599C19.3101 6.75349 19.2977 6.75098 19.2878 6.74848C19.2656 6.74097 19.2408 6.73345 19.2186 6.72594C19.2136 6.72594 19.2062 6.72093 19.2013 6.72093C19.1716 6.70841 19.1444 6.69589 19.1172 6.67837L25.5191 10.4444C25.5191 10.4444 25.524 10.4469 25.5265 10.4494C25.5512 10.4619 25.576 10.4745 25.6007 10.487C25.6007 10.487 25.6007 10.487 25.6032 10.487C25.6081 10.487 25.6155 10.492 25.6205 10.4945C25.6403 10.502 25.6576 10.5095 25.6774 10.5145C25.6799 10.5145 25.6848 10.5145 25.6898 10.517C25.6996 10.5195 25.712 10.522 25.7219 10.5245C25.7343 10.527 25.7466 10.5321 25.7615 10.5346C25.7689 10.5346 25.7763 10.5346 25.7813 10.5346C25.7936 10.5346 25.806 10.5371 25.8209 10.5396C25.8308 10.5396 25.8406 10.5421 25.8505 10.5421C25.8604 10.5421 25.8679 10.5421 25.8778 10.5421C25.8926 10.5421 25.9074 10.5421 25.9223 10.5421C25.9297 10.5421 25.9396 10.5421 25.947 10.5421C25.9569 10.5421 25.9668 10.5421 25.9767 10.5396C25.994 10.5396 26.0138 10.5371 26.0336 10.5346C26.041 10.5346 26.0509 10.5346 26.0583 10.5346C26.0682 10.5346 26.0756 10.5295 26.0855 10.5295C26.1103 10.5245 26.135 10.5195 26.1622 10.512C26.1721 10.512 26.182 10.5095 26.1919 10.507C26.1969 10.507 26.2043 10.502 26.2092 10.502C26.2587 10.487 26.3082 10.472 26.3576 10.4494L33.472 7.49467C33.5264 7.47214 33.5808 7.45461 33.6328 7.43958C33.6501 7.43458 33.6649 7.42957 33.6822 7.42706L33.6773 7.41454Z" fill="white"/>
<path d="M12.811 29.6475C12.811 29.61 12.811 29.5749 12.811 29.5374C12.811 29.5073 12.811 29.4748 12.811 29.4447C12.811 29.4097 12.8036 29.3771 12.7987 29.342C12.7962 29.3145 12.7937 29.2845 12.7888 29.2569C12.7838 29.2244 12.7739 29.1943 12.764 29.1618C12.7566 29.1367 12.7517 29.1092 12.7442 29.0866C12.7343 29.0566 12.722 29.029 12.7096 28.999C12.6997 28.9765 12.6923 28.9539 12.6824 28.9339C12.6676 28.9064 12.6502 28.8813 12.6329 28.8538C12.623 28.8362 12.6131 28.8162 12.6008 28.8012C12.581 28.7736 12.5587 28.7511 12.5365 28.7286C12.5241 28.716 12.5142 28.7035 12.5018 28.691C12.4647 28.6585 12.4276 28.6284 12.3856 28.6059L5.98364 24.8398C6.02569 24.8649 6.06527 24.8924 6.0999 24.925C6.11227 24.935 6.12217 24.95 6.13454 24.9625C6.1568 24.9851 6.17906 25.0076 6.19885 25.0352C6.21122 25.0527 6.22112 25.0702 6.23101 25.0877C6.24833 25.1128 6.26564 25.1378 6.27801 25.1654C6.28791 25.1854 6.29533 25.2079 6.30522 25.2305C6.31759 25.258 6.32996 25.2856 6.33985 25.3181C6.34727 25.3406 6.35222 25.3682 6.35964 25.3907C6.36706 25.4233 6.37696 25.4533 6.38438 25.4884C6.38933 25.5159 6.3918 25.5435 6.39427 25.571C6.39922 25.6061 6.40417 25.6386 6.40664 25.6737C6.40664 25.7037 6.40664 25.7363 6.40664 25.7663C6.40664 25.8039 6.40912 25.8389 6.40664 25.8765C6.40664 25.9091 6.4017 25.9416 6.39922 25.9767C6.39675 26.0167 6.39427 26.0568 6.38933 26.0994L5.19701 35.0462C5.19701 35.0462 5.19701 35.0562 5.19701 35.0612C5.19206 35.1013 5.18959 35.1388 5.18711 35.1764C5.18464 35.2114 5.17969 35.249 5.17969 35.2841C5.17969 35.3241 5.17969 35.3592 5.17969 35.3967C5.17969 35.4293 5.17969 35.4618 5.17969 35.4944C5.18217 35.532 5.18959 35.5645 5.19206 35.5996C5.19701 35.6271 5.19948 35.6572 5.20443 35.6847C5.21185 35.7172 5.22175 35.7473 5.22917 35.7798C5.23659 35.8049 5.24153 35.8299 5.24896 35.855C5.25885 35.885 5.27369 35.9126 5.28606 35.9401C5.29596 35.9601 5.30338 35.9827 5.31327 36.0027C5.32811 36.0302 5.34543 36.0528 5.36027 36.0778C5.37264 36.0954 5.38006 36.1129 5.39243 36.1279C5.41222 36.1529 5.43448 36.173 5.45675 36.1955C5.46911 36.2055 5.47654 36.2206 5.4889 36.2306C5.52354 36.2606 5.56064 36.2882 5.60022 36.3107L12.0021 40.0767C11.9626 40.0542 11.9255 40.0266 11.8908 39.9966C11.8785 39.9866 11.871 39.9741 11.8587 39.9615C11.8364 39.939 11.8141 39.919 11.7943 39.8914C11.782 39.8764 11.7721 39.8589 11.7622 39.8413C11.7449 39.8163 11.7276 39.7938 11.7127 39.7662C11.7028 39.7462 11.6954 39.7237 11.6855 39.7036C11.6731 39.6761 11.6608 39.651 11.6484 39.621C11.641 39.5985 11.636 39.5709 11.6286 39.5459C11.6212 39.5158 11.6113 39.4858 11.6039 39.4507C11.5989 39.4232 11.5965 39.3956 11.5915 39.3656C11.5866 39.3305 11.5816 39.298 11.5767 39.2604C11.5767 39.2304 11.5767 39.1978 11.5767 39.1653C11.5767 39.1277 11.5742 39.0901 11.5767 39.0501C11.5767 39.015 11.5816 38.98 11.5841 38.9424C11.5866 38.8998 11.589 38.8573 11.5965 38.8122L12.7888 29.8654C12.7888 29.8654 12.7888 29.8554 12.7888 29.8504C12.7937 29.8128 12.7937 29.7777 12.7987 29.7402C12.8011 29.7076 12.8061 29.6726 12.8061 29.64L12.811 29.6475Z" fill="#EFF3FA"/>
<path d="M19.6287 5.50615C19.6287 5.50615 19.6386 5.48862 19.6436 5.48111C19.6856 5.40349 19.7301 5.32837 19.7771 5.25575C19.7846 5.24573 19.792 5.23572 19.7969 5.2232C19.8439 5.15309 19.8934 5.08297 19.9429 5.01787C19.9528 5.00535 19.9627 4.99533 19.9726 4.98281C20.0121 4.93273 20.0542 4.88516 20.0962 4.84009C20.1185 4.81505 20.1432 4.79001 20.1655 4.76497C20.2125 4.71739 20.257 4.66981 20.3065 4.62725C20.3115 4.62224 20.3189 4.61473 20.3238 4.60972C20.3807 4.55964 20.4376 4.51457 20.4945 4.46949C20.5069 4.45948 20.5217 4.44946 20.5341 4.43944C20.5935 4.39688 20.6504 4.35681 20.7097 4.32426C20.7716 4.2867 20.8359 4.25665 20.8977 4.22911C20.915 4.2216 20.9324 4.21408 20.9497 4.20657C20.9868 4.19155 21.0264 4.17903 21.0635 4.16651C21.0808 4.1615 21.0981 4.15399 21.1154 4.15148C21.1352 4.14648 21.155 4.14147 21.1748 4.13896C21.1995 4.13396 21.2242 4.12895 21.249 4.12644C21.2638 4.12644 21.2787 4.12394 21.2935 4.12144C21.3207 4.11893 21.3504 4.11643 21.3776 4.11643C21.39 4.11643 21.3999 4.11643 21.4122 4.11643C21.4494 4.11643 21.4865 4.12144 21.5236 4.12644C21.526 4.12644 21.5285 4.12644 21.5335 4.12644C21.5681 4.13396 21.6002 4.14147 21.6324 4.15399C21.6398 4.15649 21.6497 4.159 21.6571 4.1615C21.6918 4.17402 21.7264 4.18904 21.7586 4.20908L15.3567 0.448054C15.3567 0.448054 15.3517 0.44555 15.3492 0.443046C15.327 0.430526 15.3022 0.418006 15.2775 0.40799C15.2701 0.405486 15.2627 0.402982 15.2552 0.400478C15.2478 0.397974 15.2404 0.39547 15.2305 0.392966C15.2206 0.390462 15.2107 0.385454 15.2008 0.38295C15.1786 0.375438 15.1563 0.37043 15.1316 0.367926C15.1291 0.367926 15.1266 0.367926 15.1217 0.367926C15.1217 0.367926 15.1217 0.367926 15.1192 0.367926C15.0895 0.362918 15.0623 0.360414 15.0326 0.35791C15.0252 0.35791 15.0178 0.35791 15.0103 0.35791C14.998 0.35791 14.9881 0.35791 14.9757 0.35791C14.9633 0.35791 14.9485 0.35791 14.9361 0.35791C14.9213 0.35791 14.9064 0.360414 14.8941 0.362918C14.8792 0.362918 14.8644 0.362918 14.8496 0.367926C14.8421 0.367926 14.8347 0.367926 14.8273 0.367926C14.81 0.37043 14.7927 0.375438 14.7753 0.380446C14.7556 0.385454 14.7358 0.387958 14.716 0.392966C14.711 0.392966 14.7036 0.392966 14.6987 0.39547C14.6863 0.397974 14.6764 0.402982 14.664 0.40799C14.6269 0.42051 14.5873 0.43303 14.5502 0.448054C14.5403 0.450558 14.5304 0.453062 14.523 0.45807C14.5156 0.460574 14.5082 0.465582 14.4983 0.47059C14.4364 0.498135 14.3721 0.528183 14.3103 0.565743C14.2509 0.600799 14.194 0.640863 14.1347 0.680927C14.1223 0.690943 14.1074 0.700959 14.0951 0.710975C14.0382 0.753543 13.9813 0.801119 13.9244 0.8512C13.9194 0.856208 13.912 0.86372 13.9071 0.868728C13.8749 0.898776 13.8403 0.928824 13.8081 0.961376C13.7933 0.9764 13.7809 0.991424 13.7661 1.00645C13.7413 1.03149 13.7191 1.05653 13.6968 1.08157C13.682 1.0991 13.6647 1.11663 13.6473 1.13416C13.6226 1.1642 13.5979 1.19425 13.5731 1.2243C13.5632 1.23682 13.5533 1.24684 13.5434 1.25936C13.5385 1.26436 13.5336 1.26937 13.5286 1.27688C13.4964 1.31945 13.4643 1.36202 13.4321 1.40709C13.4198 1.42462 13.4074 1.44465 13.395 1.46469C13.3876 1.4747 13.3802 1.48472 13.3728 1.49724C13.3653 1.50976 13.3554 1.52228 13.348 1.5348C13.3233 1.57486 13.2986 1.61493 13.2738 1.65749C13.2614 1.67753 13.2491 1.70006 13.2392 1.7226C13.2342 1.73261 13.2293 1.74013 13.2243 1.75014C13.2194 1.76016 13.212 1.77017 13.207 1.78269C13.1848 1.82276 13.165 1.86533 13.1452 1.90789C13.1303 1.93794 13.118 1.96799 13.1031 1.99804C13.1007 2.00555 13.0957 2.01306 13.0932 2.02057C13.0908 2.02558 13.0883 2.03309 13.0858 2.0381C13.066 2.08317 13.0487 2.13075 13.0289 2.17582C13.0141 2.21839 12.9968 2.25846 12.9844 2.30353L9.82551 11.6585C9.80078 11.7336 9.77356 11.8062 9.74141 11.8788C9.73893 11.8863 9.73646 11.8938 9.73151 11.9013C9.70183 11.969 9.66967 12.0391 9.63751 12.1042C9.63256 12.1142 9.62762 12.1267 9.6202 12.1367C9.58804 12.2018 9.55093 12.2644 9.51383 12.327C9.50641 12.3395 9.49898 12.3521 9.49156 12.3646C9.45198 12.4272 9.41241 12.4898 9.37035 12.5524C9.36541 12.5574 9.36046 12.5649 9.35799 12.5699C9.32088 12.6225 9.2813 12.6751 9.24172 12.7252C9.22688 12.7452 9.21204 12.7627 9.19472 12.7828C9.16504 12.8178 9.13535 12.8504 9.10567 12.8829C9.07846 12.913 9.05372 12.9405 9.02651 12.9681C8.99188 13.0031 8.95972 13.0357 8.92509 13.0682C8.90777 13.0832 8.89293 13.1008 8.87562 13.1158C8.82119 13.1634 8.76925 13.2084 8.71235 13.251L1.60544 18.6096C1.53865 18.6597 1.47434 18.7147 1.41002 18.7723C1.39518 18.7874 1.37787 18.7999 1.36302 18.8149C1.34818 18.8299 1.33087 18.8425 1.31602 18.8575C1.28634 18.8875 1.25665 18.9201 1.22697 18.9526C1.20718 18.9727 1.18739 18.9927 1.17008 19.0127C1.16513 19.0202 1.15771 19.0252 1.15276 19.0328C1.11318 19.0803 1.0736 19.1279 1.0365 19.1755C1.02908 19.1855 1.02165 19.1955 1.01423 19.2055C1.00434 19.2181 0.996916 19.2281 0.989495 19.2406C0.972179 19.2631 0.957337 19.2857 0.940021 19.3082C0.910337 19.3508 0.883127 19.3908 0.855916 19.4334C0.853442 19.4384 0.848495 19.4434 0.846021 19.4509C0.841074 19.4584 0.8386 19.4659 0.833653 19.4735C0.816337 19.501 0.799021 19.5285 0.781705 19.5586C0.756969 19.5987 0.734705 19.6412 0.712442 19.6838C0.709968 19.6888 0.707495 19.6963 0.702547 19.7013C0.6976 19.7088 0.695126 19.7163 0.692653 19.7239C0.67781 19.7514 0.662968 19.7815 0.648126 19.8115C0.628337 19.8541 0.608547 19.8991 0.588758 19.9417C0.588758 19.9467 0.58381 19.9517 0.581337 19.9567C0.578863 19.9642 0.576389 19.9718 0.571442 19.9793C0.559073 20.0118 0.544231 20.0419 0.531863 20.0744C0.514547 20.122 0.497231 20.1721 0.479915 20.2197C0.4626 20.2722 0.447757 20.3223 0.432915 20.3749C0.427968 20.3974 0.423021 20.42 0.418073 20.44C0.413126 20.46 0.408178 20.4801 0.403231 20.5001C0.398284 20.5176 0.393336 20.5352 0.390863 20.5502C0.383442 20.5852 0.378494 20.6203 0.373547 20.6579C0.368599 20.6879 0.363652 20.7154 0.358705 20.7455C0.358705 20.753 0.356231 20.763 0.353757 20.7705C0.346336 20.8256 0.343863 20.8782 0.341389 20.9308C0.341389 20.9433 0.338915 20.9583 0.338915 20.9709C0.336441 21.0435 0.338915 21.1161 0.341389 21.1837C0.341389 21.2037 0.346336 21.2213 0.34881 21.2413C0.353757 21.2889 0.361178 21.3364 0.368599 21.384C0.373547 21.4066 0.378494 21.4291 0.385915 21.4516C0.39581 21.4917 0.408178 21.5292 0.420547 21.5668C0.427968 21.5893 0.437863 21.6119 0.447757 21.6319C0.4626 21.667 0.479915 21.6995 0.499705 21.7296C0.512073 21.7496 0.521968 21.7671 0.534337 21.7847C0.5566 21.8172 0.581337 21.8448 0.608547 21.8723C0.620916 21.8848 0.633284 21.8998 0.645653 21.9124C0.687705 21.9499 0.734705 21.985 0.784179 22.0125L7.18609 25.7785C7.13414 25.751 7.08961 25.7159 7.04756 25.6784C7.03272 25.6659 7.02282 25.6508 7.01045 25.6383C6.98324 25.6108 6.95851 25.5807 6.93624 25.5507C6.92387 25.5332 6.91151 25.5131 6.90161 25.4956C6.88182 25.463 6.86451 25.4305 6.84966 25.3954C6.83977 25.3754 6.82987 25.3529 6.82245 25.3303C6.80761 25.2928 6.79772 25.2552 6.78782 25.2151C6.78287 25.1926 6.77545 25.1701 6.77051 25.1475C6.76061 25.1025 6.75566 25.0549 6.75072 25.0048C6.75072 24.9848 6.74577 24.9673 6.7433 24.9472C6.73835 24.8771 6.73587 24.807 6.74082 24.7344C6.74082 24.7219 6.7433 24.7068 6.7433 24.6943C6.74577 24.6342 6.75319 24.5716 6.76061 24.509C6.76556 24.4815 6.77051 24.4514 6.77545 24.4214C6.78535 24.3688 6.79277 24.3162 6.80514 24.2636C6.81009 24.2436 6.81503 24.2236 6.81998 24.201C6.8373 24.1284 6.85709 24.0533 6.88182 23.9807C6.90903 23.9005 6.93872 23.8204 6.97087 23.7403C6.97335 23.7328 6.97582 23.7253 6.98077 23.7178C7.01293 23.6401 7.05003 23.5625 7.08961 23.4849C7.09209 23.4774 7.09703 23.4699 7.09951 23.4623C7.13909 23.3847 7.18114 23.3096 7.22814 23.237C7.23309 23.2295 7.23556 23.222 7.24051 23.2144C7.28503 23.1443 7.33203 23.0742 7.38151 23.0066C7.38893 22.9941 7.39882 22.9841 7.40624 22.9716C7.45572 22.9039 7.50767 22.8413 7.56209 22.7787C7.5794 22.7587 7.59919 22.7387 7.61898 22.7187C7.66351 22.6711 7.70803 22.626 7.75256 22.5809C7.7674 22.5659 7.78224 22.5509 7.79956 22.5384C7.8614 22.4808 7.92572 22.4257 7.99498 22.3756L15.1019 17.017C15.1563 16.9745 15.2107 16.9294 15.2651 16.8818C15.2824 16.8668 15.2973 16.8518 15.3146 16.8342C15.3393 16.8117 15.3616 16.7917 15.3863 16.7691C15.3962 16.7591 15.4061 16.7466 15.4185 16.7341C15.4457 16.7065 15.4704 16.6765 15.4977 16.6489C15.515 16.6314 15.5323 16.6139 15.5471 16.5939C15.5595 16.5788 15.5719 16.5638 15.5842 16.5463C15.5991 16.5287 15.6139 16.5087 15.6312 16.4887C15.6436 16.4737 15.656 16.4611 15.6659 16.4461C15.6931 16.4111 15.7203 16.3735 15.7475 16.3359C15.7524 16.3309 15.7574 16.3234 15.7599 16.3184C15.7599 16.3184 15.7623 16.3134 15.7648 16.3134C15.7945 16.2708 15.8217 16.2283 15.8489 16.1857C15.8588 16.1682 15.8712 16.1506 15.8811 16.1331C15.8885 16.1206 15.8959 16.1081 15.9033 16.0981C15.9108 16.0855 15.9182 16.073 15.9256 16.0605C15.9503 16.0204 15.9726 15.9779 15.9949 15.9353C15.9998 15.9253 16.0048 15.9153 16.0097 15.9053C16.0147 15.8952 16.0196 15.8827 16.027 15.8727C16.0369 15.8502 16.0493 15.8301 16.0592 15.8076C16.079 15.765 16.0988 15.7225 16.1161 15.6799C16.1161 15.6749 16.1186 15.6724 16.121 15.6674C16.1235 15.6599 16.126 15.6523 16.1284 15.6473C16.1433 15.6148 16.1557 15.5797 16.168 15.5472C16.1829 15.5071 16.1977 15.4671 16.2101 15.427L19.369 6.07206C19.4011 5.9744 19.4382 5.88175 19.4778 5.7891C19.4803 5.78159 19.4852 5.77408 19.4877 5.76907C19.5248 5.68394 19.5669 5.6013 19.6089 5.52118L19.6287 5.50615Z" fill="#EFF3FA"/>
<path d="M20.7099 4.32452C21.2368 4.01653 21.7637 4.02905 22.0383 4.50981L25.2392 10.1463C25.4569 10.5269 25.8725 10.6346 26.3549 10.4368L33.4692 7.48207C34.6813 6.97626 35.1711 8.42608 34.2954 9.93349L29.1675 18.7751C28.8211 19.3736 28.6628 20.0347 28.7469 20.5455L29.9863 28.0725C30.152 29.0891 29.3975 30.4338 28.5367 30.9371C28.3091 31.0698 28.0741 31.1449 27.849 31.1374L21.4768 30.9646C21.2616 30.9596 21.0241 31.0297 20.7891 31.17C20.5541 31.3102 20.3166 31.5105 20.1014 31.7684L13.7514 39.3756C13.5263 39.646 13.2913 39.8464 13.0637 39.9791C12.2029 40.4824 11.441 40.0241 11.6018 38.8172L12.7941 29.8704C12.8757 29.2644 12.715 28.7887 12.3662 28.5984L7.20358 25.7713C6.32295 25.2906 6.80284 23.2748 8.01495 22.3634L15.1219 17.0048C15.6018 16.6417 16.0173 16.0483 16.2325 15.4148L19.3914 6.05979C19.6611 5.26352 20.1855 4.63501 20.7124 4.32702L20.7099 4.32452Z" fill="#EFF3FA"/>
<path d="M0 20.9436V20.8986C0.00742107 20.8385 0.00989475 20.7759 0.0222632 20.6857L0.0346316 20.6131L0.0445264 20.5555C0.0494738 20.5255 0.0544211 20.4954 0.0593685 20.4654L0.106369 20.2676C0.121211 20.21 0.138527 20.1524 0.150895 20.1248C0.150895 20.1198 0.153369 20.1148 0.155842 20.1098C0.155842 20.1048 0.158316 20.0973 0.16079 20.0923C0.178106 20.0397 0.197895 19.9846 0.217685 19.932L0.262211 19.8244C0.262211 19.8244 0.277053 19.7868 0.279527 19.7843C0.299316 19.7367 0.32158 19.6891 0.343843 19.6416L0.393316 19.5414C0.393316 19.5414 0.410632 19.5063 0.413106 19.5038C0.437843 19.4588 0.46258 19.4137 0.487317 19.3686L0.568948 19.2334C0.598633 19.1858 0.628317 19.1408 0.660475 19.0957L0.722317 19.0106C0.722317 19.0106 0.742107 18.983 0.74458 18.9805L0.769317 18.948C0.81137 18.8929 0.853423 18.8403 0.917738 18.7677L1.00679 18.67C1.03153 18.6425 1.05379 18.6174 1.081 18.5924L1.18242 18.4972C1.25416 18.4321 1.3259 18.3695 1.40258 18.3119L8.50949 12.9534C8.55649 12.9183 8.60349 12.8782 8.65049 12.8357C8.65049 12.8357 8.69502 12.7956 8.69502 12.7931C8.7247 12.7656 8.75686 12.7355 8.78654 12.703C8.81128 12.6779 8.83354 12.6529 8.8558 12.6278C8.88302 12.5978 8.91023 12.5677 8.93496 12.5377L8.97702 12.4876C9.01412 12.4425 9.04875 12.395 9.09328 12.3324C9.13038 12.2773 9.16749 12.2197 9.20212 12.1621L9.22191 12.1295C9.25407 12.0745 9.28623 12.0169 9.33075 11.9292C9.36044 11.8691 9.39012 11.809 9.42475 11.7264C9.45196 11.6613 9.4767 11.5962 9.49896 11.5286L12.6579 2.1736C12.6727 2.12603 12.69 2.08096 12.7073 2.03588C12.7271 1.9833 12.7469 1.93322 12.7667 1.88815C12.7667 1.88564 12.789 1.83807 12.789 1.83556L12.831 1.74041C12.8533 1.69283 12.8755 1.64776 12.9003 1.60269L12.9275 1.55511L12.9498 1.51755L12.977 1.46998C13.0042 1.42491 13.0314 1.37983 13.0586 1.33727L13.1501 1.19955C13.1848 1.14947 13.2194 1.10189 13.2689 1.03929C13.2713 1.03679 13.2911 1.01175 13.2936 1.00924L13.3159 0.979192C13.3381 0.951648 13.3604 0.924104 13.3827 0.89656L13.4371 0.836464C13.4643 0.80892 13.489 0.778872 13.5237 0.741312L13.5608 0.701247C13.5954 0.666191 13.6325 0.631135 13.6919 0.578551C13.7562 0.520959 13.8205 0.468375 13.8848 0.420799L13.9318 0.385743C13.9986 0.338166 14.0654 0.29059 14.1347 0.250526C14.2089 0.207958 14.2831 0.170398 14.3449 0.145358C14.3598 0.137846 14.3746 0.130334 14.4216 0.112806C14.4686 0.0927735 14.5156 0.0777494 14.5577 0.0652294C14.575 0.0577174 14.5923 0.0527094 14.6319 0.0426934L14.7184 0.0226613C14.7382 0.0176533 14.758 0.0126453 14.8026 0.00763722C14.8248 0.00513322 14.8446 0.00262921 14.8693 0.000125201C14.8792 0.000125201 14.9163 -0.00488281 14.9238 -0.00488281H15.0153C15.0153 -0.00488281 15.045 -0.00488281 15.0549 -0.00488281C15.0969 -0.0023788 15.139 0.00262921 15.1959 0.0126453C15.2305 0.0201573 15.2651 0.0276693 15.2948 0.0351813C15.3097 0.0401893 15.3245 0.0451974 15.369 0.0602214C15.3764 0.0627254 15.3987 0.0702374 15.4086 0.0752454C15.4457 0.0902695 15.4828 0.107798 15.5298 0.135342C15.5298 0.135342 21.9441 3.90888 21.9515 3.91389C22.1074 4.01154 22.2385 4.14927 22.3399 4.32455L22.9534 5.40628L22.7827 5.1058L26.9335 3.38304C27.0003 3.3555 27.0646 3.33296 27.1166 3.32044L27.1537 3.30792C27.1537 3.30792 27.1883 3.30041 27.1908 3.30041C27.2229 3.2929 27.2526 3.28538 27.2798 3.28038L27.3169 3.27286C27.3169 3.27286 27.3516 3.26786 27.354 3.26786C27.3788 3.26535 27.4035 3.26285 27.4258 3.26034L27.4703 3.25533C27.4703 3.25533 27.4777 3.25533 27.4852 3.25533C27.495 3.25533 27.5049 3.25533 27.5049 3.25533H27.6014C27.6014 3.25533 27.641 3.26034 27.6435 3.26034L27.6855 3.26535C27.6855 3.26535 27.7152 3.26786 27.7276 3.27036L27.8067 3.28789C27.8067 3.28789 27.8315 3.2929 27.8414 3.2954C27.8686 3.30291 27.8933 3.31293 27.9329 3.32795C27.9403 3.33046 27.9477 3.33296 27.9552 3.33546C27.9923 3.35049 28.0294 3.37052 28.0764 3.39556L34.4511 7.14656C34.5599 7.20666 34.6613 7.28679 34.7479 7.38945C35.255 7.98039 35.1932 9.06964 34.5945 10.1013L29.4666 18.9429C29.1648 19.4638 29.0188 20.0522 29.0881 20.4754L30.3274 28.0024C30.5278 29.2294 29.6348 30.6867 28.7072 31.2301C28.4128 31.4029 28.1159 31.4855 27.8364 31.478L21.4642 31.3052C21.3232 31.3002 21.1426 31.3553 20.9596 31.463C20.7542 31.5832 20.5489 31.7635 20.3634 31.9838L14.0134 39.591C13.7686 39.884 13.5063 40.1118 13.2342 40.2721C12.9498 40.4373 12.6653 40.5225 12.4006 40.5225C12.1978 40.5225 12.0048 40.4724 11.8341 40.3722C11.8341 40.3722 11.8317 40.3722 11.8292 40.3722L5.42975 36.6062C5.37285 36.5712 5.31596 36.5311 5.26401 36.486C5.25906 36.481 5.20959 36.4309 5.20464 36.4259C5.17496 36.3984 5.14775 36.3683 5.12301 36.3358C5.10569 36.3157 5.09085 36.2932 5.06611 36.2506C5.04632 36.2206 5.02654 36.1905 5.00922 36.158C4.99685 36.1355 4.98696 36.1104 4.96469 36.0578C4.94985 36.0253 4.93501 35.9952 4.92264 35.9602C4.91522 35.9351 4.9078 35.9101 4.90038 35.8825L5.2368 35.7974L4.88801 35.845C4.87811 35.8124 4.87069 35.7799 4.86327 35.7448C4.85832 35.7198 4.85585 35.6922 4.8509 35.6647L5.19722 35.6246L4.84596 35.6171C4.84101 35.5846 4.83606 35.5495 4.83359 35.5145C4.83359 35.4869 4.83359 35.4569 4.83359 35.4268V35.3717C4.83359 35.3367 4.83111 35.3016 4.83359 35.2641C4.83359 35.234 4.83853 35.204 4.84101 35.1714L4.84596 35.1088C4.84596 35.0763 4.8509 35.0437 4.85585 34.9911L6.04817 26.0443C6.05064 26.0218 6.05312 25.9992 6.05312 25.9767L6.06301 25.8565C6.06301 25.8365 6.06301 25.8164 6.06301 25.7639C6.06301 25.7639 6.06301 25.7288 6.06301 25.7263V25.6887C6.06301 25.6712 6.05806 25.6537 6.05312 25.6061C6.05312 25.6036 6.0457 25.5435 6.0457 25.541C6.04322 25.526 6.03827 25.511 6.02838 25.4709L0.638212 22.3008C0.566475 22.2608 0.499685 22.2132 0.435369 22.1556C0.41558 22.1381 0.398264 22.1205 0.376001 22.0955C0.338895 22.0554 0.30179 22.0129 0.267158 21.9653C0.252316 21.9427 0.237474 21.9202 0.217685 21.8877C0.190474 21.8426 0.168211 21.7975 0.145948 21.7499C0.133579 21.7199 0.121211 21.6923 0.111316 21.6623C0.0940002 21.6147 0.079158 21.5646 0.0618422 21.4995C0.0544211 21.4745 0.0494738 21.452 0.0445264 21.4269C0.032158 21.3693 0.0247369 21.3117 0.0173158 21.2391C0.0173158 21.2316 0.0123684 21.189 0.00989475 21.1815C0.00494738 21.0989 0.00247369 21.0163 0.00494738 20.9286L0 20.9436ZM27.7251 4.01405C27.7251 4.01405 27.7078 4.00403 27.6979 3.99902C27.6905 3.99902 27.6855 3.99402 27.6806 3.99151L27.6756 3.9865C27.6756 3.9865 27.6509 3.97899 27.6385 3.97649C27.6385 3.97649 27.6286 3.97398 27.6262 3.97398C27.6212 3.97398 27.5792 3.96647 27.5717 3.96647C27.5668 3.96647 27.5223 3.96647 27.5148 3.96647C27.5099 3.96647 27.4901 3.96647 27.4777 3.96647H27.4406C27.4406 3.96647 27.4109 3.97398 27.406 3.97649L27.354 3.9865C27.354 3.9865 27.3293 3.99402 27.3219 3.99652C27.2823 4.00904 27.2403 4.02156 27.1982 4.03909L23.1315 5.72679L25.5384 9.96607C25.6992 10.249 25.9985 10.199 26.2186 10.1063L33.1746 7.21918L27.7226 4.01155L27.7251 4.01405ZM12.1607 39.7613C12.3289 39.8739 12.5985 39.8414 12.8879 39.6736C13.0908 39.5559 13.2911 39.3781 13.4841 39.1478L19.834 31.5406C20.069 31.2576 20.3387 31.0248 20.6132 30.8645C20.8952 30.6993 21.1847 30.6116 21.4518 30.6116C21.4617 30.6116 21.4741 30.6116 21.484 30.6116L27.8562 30.7844C28.012 30.7844 28.1803 30.7368 28.3608 30.6316C29.0733 30.2135 29.7906 29.0316 29.6422 28.1301L28.4029 20.6006C28.3064 20.0122 28.482 19.261 28.8679 18.5949L33.9959 9.75323C34.4807 8.91689 34.4758 8.15317 34.2235 7.8602C34.0924 7.70746 33.8821 7.68993 33.6001 7.80762L26.4858 10.7624C25.8377 11.0303 25.244 10.86 24.9373 10.3217L21.7363 4.68512C21.6893 4.60499 21.6349 4.5474 21.5706 4.51235C21.5582 4.50483 21.5434 4.49983 21.5211 4.49231C21.5087 4.48731 21.4964 4.4848 21.484 4.4823C21.4716 4.47979 21.4568 4.47729 21.4419 4.47479C21.432 4.47479 21.4221 4.47479 21.4098 4.47479C21.4098 4.47479 21.4098 4.47479 21.4073 4.47479C21.3999 4.47479 21.39 4.47479 21.3801 4.47479C21.3628 4.47479 21.3455 4.47479 21.2985 4.47979C21.2811 4.47979 21.2638 4.4848 21.2465 4.48981C21.2465 4.48981 21.2119 4.49732 21.2045 4.49732C21.1921 4.49983 21.1772 4.50483 21.1624 4.50984C21.1327 4.51986 21.1055 4.52987 21.0758 4.53989L21.0338 4.55742C20.9892 4.57745 20.9447 4.59748 20.9002 4.62503C20.8952 4.62753 20.8878 4.63254 20.8829 4.63504C20.8705 4.64255 20.8581 4.65007 20.8458 4.65758C20.8087 4.68011 20.7716 4.70515 20.7345 4.7327L20.6998 4.75774C20.6504 4.7953 20.6009 4.83536 20.5366 4.89296C20.4945 4.93052 20.4525 4.97308 20.4129 5.01315L20.351 5.08076C20.3139 5.12082 20.2768 5.16339 20.2422 5.20846C20.2422 5.20846 20.2249 5.231 20.215 5.24352C20.1977 5.26605 20.1779 5.29109 20.1606 5.31864C20.1556 5.32364 20.1531 5.33116 20.1482 5.33616C20.1284 5.36371 20.1086 5.39376 20.0864 5.42631C20.0789 5.43883 20.0715 5.44884 20.0641 5.46136C20.0567 5.47138 20.0517 5.4814 20.0443 5.49141C20.0295 5.51645 20.0121 5.54149 19.9973 5.56653C19.9899 5.57905 19.9849 5.58907 19.9775 5.60159C19.9602 5.63164 19.9429 5.66169 19.9256 5.69424C19.9256 5.69925 19.9206 5.70175 19.9206 5.70676C19.9033 5.73681 19.8885 5.76936 19.8736 5.80191C19.8662 5.81443 19.8612 5.82695 19.8538 5.84197C19.8415 5.86952 19.8266 5.89957 19.8142 5.92711C19.7994 5.96467 19.7821 5.99973 19.7697 6.03729C19.7697 6.04229 19.7648 6.0473 19.7648 6.04981C19.7524 6.08236 19.74 6.11741 19.7277 6.15247C19.7252 6.15998 19.7202 6.17 19.7178 6.17751L18.2212 10.6071L16.5589 15.5325C16.544 15.5776 16.5292 15.6201 16.5119 15.6627C16.5069 15.6752 16.502 15.6877 16.497 15.6978C16.4847 15.7303 16.4723 15.7629 16.4574 15.7929C16.455 15.8004 16.4525 15.8079 16.45 15.8079C16.4302 15.8555 16.408 15.9031 16.3882 15.9456L16.356 16.0108C16.3486 16.0233 16.3437 16.0358 16.3362 16.0483C16.3362 16.0483 16.3189 16.0834 16.3189 16.0859C16.309 16.1059 16.2991 16.1234 16.2868 16.1435C16.2818 16.1535 16.2744 16.166 16.2694 16.176C16.2596 16.191 16.2521 16.2086 16.2422 16.2236C16.2422 16.2236 16.2274 16.2486 16.22 16.2612L16.2101 16.2762L16.2002 16.2912L16.1581 16.3613C16.1284 16.4089 16.0963 16.4565 16.0443 16.5291C16.0147 16.5717 15.985 16.6117 15.9553 16.6543L15.9108 16.7119C15.8984 16.7294 15.8836 16.7469 15.8687 16.762L15.8539 16.7795C15.8539 16.7795 15.8267 16.812 15.8242 16.8145L15.8069 16.8321C15.7623 16.8821 15.7178 16.9297 15.6733 16.9773C15.6659 16.9848 15.6486 17.0023 15.6461 17.0073C15.6411 17.0124 15.6337 17.0174 15.6288 17.0224C15.5323 17.12 15.4284 17.2077 15.3245 17.2878L8.21759 22.6464C8.18296 22.6739 8.14833 22.7015 8.11617 22.729C8.09391 22.749 8.07165 22.7666 8.04938 22.7866L8.00733 22.8267C7.96528 22.8667 7.92817 22.9068 7.88859 22.9468C7.88859 22.9468 7.86386 22.9719 7.86386 22.9744L7.83912 23.0019C7.78965 23.057 7.74265 23.1146 7.69812 23.1747C7.69812 23.1747 7.68328 23.1947 7.67586 23.2048C7.63133 23.2674 7.58928 23.33 7.53733 23.4126C7.49528 23.4802 7.45817 23.5478 7.41117 23.6355C7.37654 23.7056 7.34191 23.7757 7.3048 23.8658C7.28996 23.8984 7.27759 23.9334 7.26522 23.966C7.26522 23.971 7.26028 23.9785 7.2578 23.9835C7.24543 24.0136 7.23554 24.0436 7.22564 24.0762C7.2207 24.0937 7.21575 24.1087 7.2108 24.1262C7.19596 24.1788 7.18112 24.2314 7.16875 24.2815L7.15638 24.3366C7.14649 24.3816 7.13907 24.4292 7.12422 24.5043L7.1168 24.5494C7.1168 24.5644 7.11185 24.582 7.11185 24.597C7.10938 24.627 7.10691 24.6596 7.10196 24.6997C7.10196 24.7222 7.09949 24.7422 7.09949 24.7648C7.09949 24.7823 7.09949 24.7998 7.09949 24.8148C7.09949 24.8274 7.09949 24.8424 7.09949 24.8549C7.09949 24.8774 7.09949 24.9 7.10443 24.925C7.10443 24.93 7.10938 24.9576 7.10938 24.9601C7.11433 24.9976 7.1168 25.0327 7.12422 25.0677L7.13659 25.1178C7.14401 25.1454 7.15143 25.1729 7.16133 25.1954L7.17864 25.2405C7.18854 25.2631 7.20091 25.2831 7.2108 25.3031L7.23307 25.3382C7.24543 25.3557 7.26028 25.3707 7.29491 25.4083C7.31222 25.4233 7.32707 25.4358 7.34438 25.4458C7.3518 25.4509 7.35675 25.4534 7.36417 25.4584L7.37407 25.4659L12.5317 28.2904C13.0141 28.5533 13.2417 29.1618 13.1402 29.9205L11.9479 38.8673C11.891 39.298 11.9702 39.6336 12.1631 39.7638L12.1607 39.7613ZM5.54106 35.1113C5.54106 35.1313 5.53859 35.1489 5.53611 35.1664L5.52622 35.2991C5.52622 35.3191 5.52622 35.3392 5.52622 35.3918C5.52622 35.3918 5.52622 35.4293 5.52622 35.4318V35.4694C5.52622 35.4869 5.53117 35.5019 5.53859 35.5495C5.53859 35.552 5.54601 35.6121 5.54601 35.6171L5.5658 35.6847C5.5658 35.6847 5.57817 35.7348 5.57817 35.7373C5.58311 35.7498 5.58806 35.7599 5.6029 35.7924C5.6029 35.7974 5.61775 35.8275 5.62022 35.8325L5.6499 35.8775L5.66722 35.9076L5.71917 35.9627C5.73648 35.9777 5.75627 35.9927 5.77606 36.0052L11.2305 39.2154C11.2256 39.0752 11.2305 38.9249 11.2528 38.7697L12.4451 29.8229C12.5045 29.3746 12.4105 29.0241 12.1953 28.9064L7.0327 26.0794C7.01785 26.0719 7.00054 26.0618 6.9857 26.0518L6.75564 25.9166C6.75564 25.9366 6.75317 25.9592 6.7507 25.9792L6.74575 26.0418C6.74328 26.0769 6.7408 26.1144 6.73585 26.152L5.54354 35.1138L5.54106 35.1113Z" fill="#035BE8"/>
</g>
</g>
<defs>
<clipPath id="clip0_9_44778">
<rect width="36" height="75" fill="white"/>
</clipPath>
</defs>
</svg>
